<svg width="224" height="130" viewBox="0 0 224 130" fill="none" xmlns="http://www.w3.org/2000/svg">
<path d="M9.13286 116.906C14.664 122.643 20.5184 125.645 26.2462 127.106C35.9597 129.579 45.2892 127.621 52.0052 127.05C53.4384 126.923 54.8668 126.731 56.2766 126.493C57.6863 126.254 59.0866 125.954 60.4917 125.621L61.3628 125.415C62.0747 125.237 62.7678 125.055 63.4891 124.858C68.7064 123.453 73.8629 121.659 79.0944 120.287C105.022 113.487 132.284 116.966 158.619 122.924L159.898 123.219C160.587 123.378 161.28 123.533 161.968 123.687L162.867 123.907L165.036 124.422C166.998 124.891 168.947 125.383 170.89 125.87C179.882 128.132 189.039 130.553 198.284 129.888H198.438C199.622 129.797 200.799 129.641 201.965 129.42H202.035C202.058 129.423 202.082 129.423 202.105 129.42C209.946 127.888 219.172 117.711 221.457 105.885C228.618 68.886 198.443 37.5978 191.886 32.0339L191.549 31.7482C183.515 24.9439 174.596 19.2596 165.036 14.8502C164.315 14.513 163.589 14.1899 162.867 13.8808C161.874 13.4452 160.891 13.0331 159.898 12.6397C120.721 -3.12955 64.5194 8.12012 44.0714 21.9457C-7.63394 56.8796 -0.632156 106.775 9.13286 116.906Z" fill="url(#paint0_linear_299_17184)"/>
<mask id="mask0_299_17184" style="mask-type:alpha" maskUnits="userSpaceOnUse" x="0" y="0" width="224" height="130">
<path d="M9.13291 116.905C14.6641 122.643 20.5184 125.645 26.2463 127.106C35.9598 129.579 45.2892 127.621 52.0053 127.05C53.4384 126.923 54.8669 126.731 56.2766 126.492C57.6863 126.254 59.0867 125.954 60.4917 125.621L61.3628 125.415C62.0747 125.237 62.7679 125.055 63.4891 124.858C68.7065 123.453 73.863 121.659 79.0944 120.287C105.022 113.486 132.284 116.966 158.62 122.924L159.898 123.219C160.587 123.378 161.28 123.532 161.968 123.687L162.867 123.907L165.036 124.422C166.998 124.891 168.947 125.382 170.89 125.869C179.882 128.132 189.039 130.553 198.284 129.888H198.438C199.622 129.797 200.799 129.641 201.965 129.42H202.035C202.059 129.423 202.082 129.423 202.105 129.42C209.946 127.888 219.172 117.711 221.458 105.885C228.619 68.8858 218.481 48.2111 211.924 42.6472L211.587 42.3615C197.032 7.03249 158.62 6.14016 158.62 6.14016C123.29 -5.04751 46.6943 -0.0306289 26.2463 13.7949C-10.6514 43.2361 -0.632104 106.775 9.13291 116.905Z" fill="#FEFEFE"/>
</mask>
<g mask="url(#mask0_299_17184)">
<path opacity="0.2" d="M118.271 105.356C102.875 120.944 82.9338 137.069 59.7701 134.305C58.5314 134.17 57.2988 133.998 56.0542 133.787C53.5283 133.358 51.0608 132.807 48.6517 132.134C44.6415 131.02 44.1999 139.054 40.5396 137.321C40.4878 137.293 40.4177 137.262 40.3659 137.235C35.3616 134.878 30.6947 131.975 26.4443 128.615C25.945 128.229 25.4487 127.824 24.9708 127.423C19.6536 107.056 9.07473 65.5051 8.32776 42.8424C8.26954 40.9671 9.89236 36.4 12.4597 32.3702C13.748 30.3278 15.2739 28.4388 16.9507 27.103C18.239 26.0593 19.6208 25.3518 21.0468 25.1605L36.5759 25.3099L56.2558 25.5234L67.2343 25.635L77.9685 25.7428C85.077 24.8017 91.6487 29.573 92.9574 36.6162C95.6403 51.2038 102.293 76.9042 118.271 105.356Z" fill="#1D7EDD"/>
<path d="M97.3586 29.2513C100.104 43.8387 106.907 69.7612 123.467 98.3147C122.083 100.029 120.604 101.653 119.025 103.205C103.908 118.401 86.654 139.363 63.8758 136.636C62.6576 136.503 61.4456 136.334 60.2215 136.126C57.7375 135.704 55.3107 135.163 52.9412 134.504C48.997 133.411 45.1974 132.012 41.5964 130.316C41.5454 130.289 41.4764 130.259 41.4255 130.232C31.4463 108.293 15.145 63.9816 14.1755 35.225C14.1559 34.4678 14.4162 33.2617 14.899 31.836C16.1001 28.2522 18.7654 23.2437 22.0929 20.3335C23.5117 19.0667 25.0498 18.1878 26.6588 17.9829L82.6287 18.6049C84.2376 18.4 85.834 18.4872 87.3278 18.8511C87.3998 18.8633 87.4748 18.8577 87.5438 18.8878C92.4481 20.1066 96.39 24.0488 97.3586 29.2513Z" fill="#1D7EDD"/>
<path d="M151.592 120.629C155.998 126.271 155.037 131.806 148.341 134.335C139.035 137.85 127.245 142.166 126.857 142.726C127.549 141.814 126.213 143.683 126.857 142.726C111.74 157.921 86.0654 134.064 63.2872 131.337C62.069 131.203 60.8569 131.034 59.6329 130.826C57.1489 130.405 54.7221 129.864 52.3526 129.204C42.0865 109.828 20.6928 64.5742 19.1867 29.0521C19.1552 28.2561 19.1956 27.4723 19.3081 26.7008C19.6367 24.3295 20.6191 22.1427 22.0929 20.3336C24.1414 17.7579 27.1847 15.9762 30.7057 15.526L87.3747 8.21307C94.3447 7.30035 100.83 11.9686 102.108 18.8416C104.637 32.3291 127.011 89.1639 151.592 120.629Z" fill="#10A8E5"/>
<path d="M140.32 115.919C145.67 123.338 144.551 131.702 135.938 134.78C131.595 136.333 127.32 137.429 124.842 137.008C109.724 152.203 83.3742 129.576 60.596 126.849C50.8583 108.941 31.8438 69.6852 29.2159 38.698C28.6755 32.3915 32.6744 26.7269 38.6016 24.9752C39.2652 24.7753 39.9557 24.6351 40.6761 24.5367L54.5349 22.7527C55.8797 22.5765 57.0786 23.3684 57.6285 24.6018C57.7241 24.8019 57.8347 25.023 57.9514 25.2083C59.0882 27.1296 61.2344 28.4502 63.8155 28.3C65.6463 28.2063 67.3677 27.2299 68.4508 25.759C68.5681 25.6134 68.6644 25.4826 68.7457 25.331C69.2965 24.4867 69.5861 23.6533 69.6717 22.8221C69.8271 21.5797 70.9122 20.6424 72.1609 20.4866L84.3568 18.8983C85.3593 18.7743 86.3617 18.7606 87.3278 18.8511C87.3998 18.8634 87.4749 18.8577 87.5438 18.8878C92.9265 19.4707 97.5467 23.3442 98.9231 28.7631C102.17 41.5234 118.465 85.6073 140.32 115.919Z" fill="white"/>
<path fill-rule="evenodd" clip-rule="evenodd" d="M101.488 37.2144L30.2983 47.3122C29.8228 44.4083 29.4561 41.5308 29.2159 38.698C28.6755 32.3915 32.6744 26.7269 38.6016 24.9752C39.2652 24.7753 39.9557 24.6351 40.6761 24.5367L54.5349 22.7527C55.8797 22.5765 57.0786 23.3684 57.6285 24.6018C57.7241 24.8019 57.8347 25.023 57.9514 25.2083C59.0882 27.1296 61.2344 28.4502 63.8155 28.3C65.6463 28.2063 67.3677 27.2299 68.4508 25.759C68.5681 25.6134 68.6644 25.4827 68.7457 25.331C69.2965 24.4867 69.5861 23.6533 69.6717 22.8221C69.8271 21.5797 70.9122 20.6424 72.1609 20.4866L84.3568 18.8983C85.3593 18.7743 86.3617 18.7606 87.3278 18.8511C87.3518 18.8552 87.3762 18.8573 87.4005 18.8594C87.4492 18.8636 87.4979 18.8677 87.5438 18.8878C92.9265 19.4707 97.5467 23.3442 98.9231 28.7631C99.4478 30.8254 100.313 33.706 101.488 37.2144Z" fill="#3FB9EA"/>
<path d="M41.5055 37.0395C41.2753 37.0815 41.0551 37.1667 40.8567 37.2908C40.3951 37.4713 39.88 37.4563 39.4298 37.2492C38.712 36.8956 38.6877 36.6144 38.6877 36.6144C38.7827 36.1881 39.0466 35.8187 39.4191 35.5906C39.7292 35.3802 40.0972 35.2715 40.4719 35.2796L40.4878 35.2804C40.736 35.3483 40.9961 35.3611 41.2497 35.3179C42.1916 35.1647 42.8467 34.2983 42.7376 33.3503C42.6284 32.4024 41.7935 31.7075 40.8415 31.7724C39.8895 31.8372 39.1565 32.6388 39.1769 33.5928C39.161 33.7989 39.1001 33.9991 38.9984 34.1791C38.8147 34.4215 38.3854 35.3201 37.1773 35.1652C37.0225 34.6769 37.1178 34.1438 37.432 33.7393C37.9467 33.1819 38.0524 32.36 37.6955 31.6905C37.3387 31.0211 36.5973 30.6507 35.8477 30.7674C35.0981 30.8841 34.5044 31.4622 34.3678 32.2085C34.2313 32.9547 34.5819 33.7057 35.2416 34.0802C35.537 34.282 35.7602 34.5728 35.8786 34.9104C35.9346 35.1295 35.9519 35.2322 35.9782 35.3449C35.3177 35.7337 34.9673 36.491 35.0985 37.2461C35.2248 37.9981 35.8145 38.587 36.5667 38.7123C36.5667 38.7123 36.6103 39.055 36.6097 39.0677C36.609 39.0804 36.6737 39.5132 36.1975 40.1995C35.7218 40.7861 35.6673 41.6089 36.0614 42.2532C36.4555 42.8975 37.2128 43.2236 37.9517 43.0673C38.6907 42.9109 39.251 42.306 39.3503 41.5573C39.4497 40.8085 39.0666 40.0784 38.3941 39.7347C38.318 39.6641 37.8187 39.2036 37.7578 38.825C37.7281 38.6517 37.7099 38.5044 37.7019 38.4722C37.7894 38.4153 37.8849 38.3717 37.9852 38.3429C38.3616 38.2518 38.7571 38.279 39.1175 38.4209C39.5639 38.6029 39.9198 38.9547 40.1069 39.3989C40.4235 40.2904 41.3801 40.7804 42.2885 40.5166C43.197 40.2527 43.7422 39.3264 43.532 38.4041C43.3218 37.4818 42.4291 36.8832 41.496 37.039L41.5055 37.0395ZM42.0172 39.5757C41.7569 39.6329 41.4856 39.5495 41.3024 39.3559C41.2661 39.3191 40.7407 38.6122 40.4683 38.1978L37.8996 37.3012C37.7667 37.6211 37.4889 37.8581 37.1521 37.9391L37.4506 39.7647C37.4506 39.7647 38.3772 40.7237 38.4456 41.1439C38.5208 41.5985 38.2133 42.0279 37.7588 42.1031C37.3042 42.1783 36.8748 41.8707 36.7996 41.4162C36.7317 40.9864 37.206 40.0136 37.3091 39.7927L37.0044 37.9669C36.4229 38.0406 35.8872 37.6415 35.7915 37.0632C35.6958 36.4849 36.0745 35.9345 36.6487 35.8171L36.3477 33.9787C36.3477 33.9787 35.4162 33.0545 35.345 32.6245C35.2897 32.3281 35.399 32.0249 35.6307 31.8319C35.8623 31.6389 36.1802 31.5862 36.4618 31.6941C36.7433 31.802 36.9446 32.0537 36.9879 32.3521C37.0592 32.7789 36.4922 33.954 36.4922 33.954L36.7963 35.7925C37.1384 35.7633 37.4742 35.8978 37.7014 36.1553L39.8571 34.4505C39.8571 34.4505 40.2333 33.2724 40.2363 33.2121C40.3392 32.9304 40.5827 32.7236 40.8773 32.6676C41.1737 32.6123 41.4769 32.7216 41.6699 32.9532C41.8629 33.1849 41.9156 33.5028 41.8077 33.7843C41.6998 34.0659 41.4481 34.2671 41.1497 34.3105C40.9123 34.3497 40.3873 34.4766 40.3295 34.4865L39.9443 34.5535L37.7848 36.2708C37.8743 36.4025 37.9342 36.5521 37.9606 36.7091C37.9864 36.8624 37.9787 37.0194 37.9379 37.1694L40.5271 38.102L41.7382 37.9389C42.1927 37.8637 42.6221 38.1712 42.6973 38.6258C42.7725 39.0803 42.4649 39.5097 42.0104 39.5849L42.0172 39.5757Z" fill="white"/>
<path d="M138.873 86.28C141.049 91.0406 138.377 96.6957 133.266 97.8228L81.9823 109.131C74.5061 110.779 66.8827 106.916 63.94 99.8484C55.7627 80.2084 47.0837 56.5014 45.3619 36.1982C44.7987 29.6255 48.9663 23.7219 55.1437 21.8962C55.8353 21.6879 56.5549 21.5418 57.3057 21.4393L71.7494 19.58C71.6646 19.738 71.8716 19.4283 71.7494 19.58L90.1191 17.2183L102.83 15.5629C103.875 15.4337 104.919 15.4194 105.926 15.5138C106.001 15.5265 106.079 15.5206 106.151 15.552C111.761 16.1595 116.576 20.1965 118.011 25.844C120.55 35.8256 127.405 61.188 138.873 86.28Z" fill="#1D7EDD" fill-opacity="0.2"/>
<mask id="mask1_299_17184" style="mask-type:alpha" maskUnits="userSpaceOnUse" x="106" y="11" width="117" height="130">
<path d="M106.448 134C106.448 137.866 109.582 141 113.448 141L212.95 141L215.148 141C219.014 141 222.148 137.866 222.148 134L222.148 18.537C222.148 14.4676 218.689 11.2558 214.631 11.5561L112.931 19.08C109.275 19.3505 106.448 22.3953 106.448 26.0609L106.448 41.4938L106.448 134Z" fill="#80469D"/>
</mask>
<g mask="url(#mask1_299_17184)">
<path d="M166.075 49.7091C166.075 49.7091 163.129 77.6656 161.927 82.3795C160.724 87.0933 160.794 88.0594 163.576 89.0508C166.358 90.0422 202.787 97.4251 207.608 92.62C212.43 87.815 211.872 72.7684 210.49 46.1722L199.093 36.9686L167.489 45.4107L165.299 47.9388L166.075 49.7091Z" fill="#60304B"/>
<path d="M170.494 47.9479C170.494 47.9479 166.383 80.1924 168.025 86.8076C168.025 86.8076 167.464 90.2524 169.635 90.4977C171.806 90.743 205.955 82.6834 205.955 82.6834C205.955 82.6834 207.802 66.8059 206.595 51.3972C206.297 47.511 170.494 47.9479 170.494 47.9479Z" fill="#351D41"/>
<path d="M184.473 75.8194L182.759 94.1776L194.076 91.8436L198.364 79.1003L198.364 59.2989L192.168 63.367L184.473 75.8194Z" fill="#FDDDD0"/>
<path d="M199.081 69.8849L198.342 79.6995L193.109 92.0927L181.652 93.5875L183.639 80.4352C186.512 79.3712 194.748 75.9816 199.081 69.8849Z" fill="#FCD2C0"/>
<path d="M165.031 119.867L151.731 108.018C151.056 107.417 150.864 106.451 151.296 105.657C154.009 100.662 164.222 83.1939 176.724 78.4742C181.081 77.0832 183.978 78.3002 183.978 78.3002L183.32 88.0118C183.198 89.8108 185.325 90.8371 186.649 89.6134C190.584 85.9775 196.531 80.4237 198.466 78.3002C198.466 78.3002 205.254 79.4015 205.492 80.1795C205.279 79.7361 205.636 80.6502 205.492 80.1795C205.492 80.1795 219.091 82.7713 224.787 110.142L225.659 113.423C220.243 116.711 214.389 119.209 208.272 120.842C208.272 120.842 205.73 130.454 212.639 145.892C219.548 161.33 220.621 170.184 220.621 170.184C220.621 170.184 205.254 182.271 178.574 177.125L176.666 161.846L174.959 177.143C174.959 177.143 161.141 177.884 153.877 173.164C153.877 173.164 154.95 165.567 155.841 161.799C156.732 158.031 166.44 131.106 166.146 126.499C165.852 121.891 165.031 119.867 165.031 119.867Z" fill="#3FB9EA"/>
<path d="M223.607 142.962C223.607 142.962 223.467 156.422 223.607 163.935C223.719 169.911 227.572 178.74 224.316 184.29C221.059 189.839 219.916 190.973 215.639 191.835C215.639 191.835 214.118 192.834 216.66 187.706C216.66 187.706 217.882 183.155 215.639 178.881C215.639 178.881 216.413 183.488 215.639 186.296C214.864 189.103 213.833 189.108 213.175 186.516C212.518 183.924 211.44 176.547 212.154 171.289C212.867 166.03 214.953 165.022 214.827 163.396C214.701 161.77 211.906 144.813 211.906 144.813C211.906 144.813 211.314 134.643 210.838 130.336C210.362 126.029 208.174 120.911 208.174 120.911C208.174 120.911 220.098 117.096 221.563 115.366C221.582 115.366 223.686 132.492 223.607 142.962Z" fill="#FDDDD0"/>
<path d="M199.502 64.2869L198.7 74.9335C195.376 79.1395 184.675 86.2735 183.481 86.1844L183.976 75.3271L188.139 70.86L189.793 68.9672L199.502 64.2869Z" fill="#FBB598"/>
<path d="M209.383 117.336C209.383 117.336 210.824 112.462 217.719 110.99L209.383 117.336Z" fill="#10A8E5"/>
<path d="M207.773 115.367C207.773 115.367 208.617 105.117 212.657 102.015L207.773 115.367Z" fill="#10A8E5"/>
<path d="M169.603 88.1591C169.603 88.1591 153.623 126.051 199.773 126.051C199.602 128.14 176.141 132.865 165.973 133.201C165.973 129.951 165.029 118.508 165.074 119.127C165.074 119.127 161.175 111.848 169.603 88.1591Z" fill="#10A8E5"/>
<path d="M190.047 114.761C189.544 114.64 189.056 114.65 188.594 114.759C188.4 114.764 186.921 114.758 185.793 113.423C184.579 111.994 184.698 111.323 184.698 111.323C184.698 111.323 185.363 109.863 186.747 109.624C188.137 109.384 188.752 109.691 189.009 109.834C189.023 109.839 189.036 109.839 189.049 109.838C189.487 110.202 189.986 110.469 190.536 110.593C192.547 111.071 194.398 109.536 194.653 107.187C194.901 104.838 193.457 102.521 191.447 102.051C189.612 101.615 187.916 102.855 187.439 104.854C187.278 105.275 187.024 105.814 186.743 106.037C186.239 106.434 184.858 108.104 182.562 106.71C182.562 106.71 182.373 105.071 183.898 103.676C184.839 103.094 185.528 102.01 185.676 100.641C185.924 98.2923 184.481 95.9761 182.47 95.5052C180.459 95.0277 178.608 96.5623 178.353 98.9118C178.209 100.247 178.613 101.567 179.357 102.548L179.351 102.555C179.351 102.555 180.171 103.79 180.127 105.013C180.107 105.558 180.077 105.818 180.067 106.09C178.584 106.342 177.404 107.808 177.205 109.664C177.007 111.532 177.879 113.374 179.255 114.289C179.255 114.289 179.138 115.105 179.133 115.132C179.128 115.159 179 116.201 177.653 117.353C176.814 117.955 176.208 118.981 176.074 120.249C175.826 122.598 177.262 124.915 179.28 125.385C181.291 125.863 183.142 124.328 183.397 121.979C183.543 120.577 183.089 119.194 182.277 118.204C182.163 117.979 181.447 116.492 181.55 115.571C181.598 115.15 181.637 114.823 181.644 114.716C181.856 114.677 181.901 114.647 182.283 114.663C182.405 114.682 183.729 114.884 184.525 115.829C185.335 116.793 185.774 117.614 185.916 118.924C186.012 120.993 187.348 122.872 189.142 123.297C191.153 123.774 193.004 122.24 193.259 119.89C193.501 117.555 192.058 115.238 190.047 114.761ZM189.573 120.989C188.628 120.763 188.346 119.999 188.284 119.863C188.237 119.753 187.605 117.678 187.311 116.497L182.746 112.214C182.301 112.812 181.625 113.133 180.889 113.02C180.889 113.02 180.414 117.412 180.409 117.445C180.405 117.485 181.681 120.435 181.57 121.45C181.452 122.551 180.592 123.261 179.648 123.042C178.704 122.816 178.028 121.745 178.153 120.643C178.269 119.601 179.775 117.797 180.111 117.385L180.583 112.953C179.423 112.588 178.609 111.24 178.756 109.845C178.903 108.457 179.957 107.543 181.134 107.734L181.611 103.276C181.611 103.276 180.304 100.361 180.42 99.3129C180.538 98.2116 181.397 97.5015 182.341 97.7209C183.286 97.9469 183.955 99.0188 183.837 100.12C183.727 101.155 181.91 103.343 181.91 103.343L181.432 107.802C182.143 108.036 182.723 108.636 183.025 109.399L188.294 107.386C188.294 107.386 189.725 105.022 189.791 104.899C189.857 104.775 190.437 103.99 191.381 104.209C192.326 104.435 192.995 105.507 192.876 106.608C192.758 107.71 191.899 108.42 190.955 108.2C190.459 108.086 189.344 107.917 189.228 107.884C189.112 107.852 188.427 107.702 188.427 107.702L183.14 109.743C183.237 110.109 183.275 110.504 183.232 110.898C183.19 111.285 183.077 111.63 182.915 111.925C182.915 111.925 187.506 116.305 187.5 116.306C187.452 116.295 188.807 116.662 189.992 116.985C190.932 117.245 191.606 118.283 191.487 119.384C191.376 120.505 190.517 121.215 189.573 120.989Z" fill="white"/>
<path d="M170.423 43.5922C170.423 43.5922 168.352 55.716 167.835 59.7256C167.318 63.7351 169.406 70.0402 172.082 72.5028C174.759 74.9653 186.296 82.2077 197.798 67.6555C209.301 53.1033 206.067 43.1775 205.322 41.4245C204.577 39.6716 194.427 31.594 194.427 31.594C194.427 31.594 183.148 31.5118 182.336 31.6136C181.524 31.7155 171.1 36.4608 171.1 36.4608L170.423 43.5922Z" fill="#FDDDD0"/>
<path d="M175.119 53.8448C175.803 54.0052 176.599 53.0924 176.895 51.8109C177.191 50.5294 176.885 49.364 176.192 49.2001C175.498 49.0362 174.71 49.9569 174.397 51.2314C174.084 52.5059 174.406 53.6783 175.101 53.8378" fill="#60304B"/>
<path d="M189.301 56.4875C190.037 56.6584 190.89 55.6779 191.202 54.2965C191.513 52.915 191.183 51.6636 190.445 51.497C189.707 51.3304 188.852 52.3048 188.545 53.688C188.238 55.0712 188.568 56.3226 189.306 56.4892" fill="#60304B"/>
<path d="M169.108 44.543C170.245 44.0151 171.481 43.7397 172.73 43.7357C173.98 43.7317 175.214 43.9993 176.348 44.5199C176.348 44.5199 177.527 45.2698 177.925 44.1458C178.323 43.0218 175.298 42.3657 172.838 42.5199C172.108 42.5707 171.397 42.7785 170.753 43.1291C170.108 43.4797 169.546 43.965 169.105 44.5517" fill="#60304B"/>
<path d="M197.437 48.9111C196.272 47.8409 194.887 47.038 193.379 46.5576C191.87 46.0771 190.274 45.9306 188.699 46.128C188.699 46.128 186.972 46.5835 186.936 45.0667C186.9 43.5499 190.812 43.9218 193.723 45.0427C194.584 45.3809 195.361 45.9019 196 46.5701C196.639 47.2391 197.129 48.0369 197.437 48.9111" fill="#60304B"/>
<path d="M160.861 49.8C160.861 49.8 164.015 52.3643 167.962 48.365C171.908 44.3657 173.986 40.7287 185.014 39.3284C196.042 37.9281 196.451 36.7173 196.451 36.7173C196.451 36.7173 192.261 50.3504 201.167 56.0187C210.074 61.687 212.374 56.0712 212.374 56.0712C212.374 56.0712 216.495 48.6928 212.082 44.5875C212.082 44.5875 210.233 34.6244 203.428 34.2868C203.428 34.2868 195.841 21.5796 181.955 26.2104C168.069 30.8411 165.713 39.9649 165.713 39.9649C165.713 39.9649 156.648 43.1048 160.861 49.8Z" fill="#60304B"/>
<path d="M174.574 58.0863C174.393 58.2778 174.238 58.4923 174.113 58.7243C173.282 60.2803 175.488 61.4502 176.648 60.9883C180.258 59.5439 180.196 53.7826 179.193 54.0197C178.635 54.1533 178.305 54.875 177.961 55.3124C177.012 56.5274 175.603 56.9844 174.574 58.0863" fill="#F88B5C"/>
<path d="M182.775 69.1459C182.291 69.7808 181.651 70.279 180.918 70.5913C180.185 70.9037 179.384 71.0192 178.595 70.9265C177.925 70.9008 177.278 70.6822 176.73 70.2968C176.183 69.9115 175.759 69.3757 175.509 68.7535C178.647 67.4419 181.594 68.5621 182.77 69.1589" fill="#F88B5C"/>
<path d="M175.842 64.9127C178.798 66.2084 181.978 65.9157 183.422 65.6952C183.513 65.6804 183.606 65.6879 183.694 65.717C183.781 65.7462 183.859 65.7961 183.923 65.8625C183.986 65.9289 184.033 66.0099 184.058 66.0984C184.083 66.187 184.087 66.2805 184.068 66.371C183.844 67.3784 183.401 68.3254 182.771 69.1447C181.589 68.5608 178.647 67.4424 175.514 68.7409C175.094 67.6695 174.939 66.5101 175.064 65.3623C175.073 65.2742 175.103 65.1892 175.151 65.1145C175.198 65.0397 175.263 64.9773 175.34 64.9322C175.416 64.8871 175.502 64.8606 175.59 64.855C175.678 64.8493 175.766 64.8646 175.847 64.8997" fill="#351D41"/>
<path d="M199.177 40.3829C199.177 40.3829 203.03 55.3696 211.434 48.3056C211.434 48.3056 204.104 52.5763 199.177 40.3829Z" fill="#351D41"/>
<path d="M163.402 44.4981C163.402 44.4981 165.439 44.3405 165.908 40.2404C165.908 40.2404 164.597 43.0593 163.701 43.1827C162.805 43.3061 161.456 44.6881 163.402 44.4981Z" fill="#351D41"/>
<path d="M196.962 36.407L202.938 34.2596L202.08 33.2653L196.962 36.407Z" fill="#351D41"/>
<path d="M200.968 56.5343C200.968 56.5343 206.36 52.6839 207.753 57.1822C209.146 61.6805 203.523 67.1367 198.807 65.3777C194.092 63.6187 200.968 56.5343 200.968 56.5343Z" fill="#FDDDD0"/>
<path fill-rule="evenodd" clip-rule="evenodd" d="M205.788 58.5388C205.823 58.2684 205.631 58.0213 205.359 57.9868L205.297 58.4763C205.359 57.9868 205.36 57.9868 205.359 57.9868L205.358 57.9866L205.356 57.9864L205.352 57.9859L205.342 57.9847C205.334 57.9839 205.323 57.9829 205.311 57.9819C205.286 57.9799 205.253 57.9778 205.211 57.9764C205.128 57.9736 205.012 57.9739 204.866 57.9841C204.574 58.0045 204.165 58.0646 203.665 58.2194C202.662 58.5298 201.308 59.2157 199.806 60.6962C199.612 60.888 199.61 61.2005 199.803 61.3941C199.996 61.5878 200.309 61.5893 200.504 61.3975C200.917 60.9906 201.314 60.6516 201.69 60.3692C201.704 60.37 201.721 60.3715 201.742 60.3743C201.821 60.3848 201.923 60.4092 202.046 60.4494C202.293 60.5298 202.58 60.6582 202.861 60.8003C203.14 60.9411 203.401 61.0889 203.592 61.202C203.688 61.2584 203.766 61.3058 203.819 61.3388C203.846 61.3553 203.866 61.3682 203.88 61.3768L203.895 61.3864L203.899 61.3887L204.168 60.9739M204.168 60.9739C204.436 60.5588 204.435 60.5587 204.435 60.5587L204.433 60.5574L204.428 60.5541L204.41 60.5425C204.394 60.5325 204.371 60.5181 204.342 60.5001C204.283 60.4641 204.2 60.4132 204.098 60.3529C203.894 60.2328 203.614 60.0737 203.31 59.9201C203.139 59.8338 202.956 59.7472 202.773 59.6696C203.22 59.4266 203.62 59.2669 203.959 59.162C204.382 59.0311 204.716 58.984 204.935 58.9687C205.045 58.961 205.127 58.9612 205.178 58.9629C205.203 58.9637 205.221 58.9649 205.231 58.9657L205.238 58.9664C205.508 58.9983 205.754 58.8077 205.788 58.5388" fill="#F9A07A"/>
</g>
<path d="M174.424 120.527L179.898 120.527C179.171 120.525 178.472 120.814 177.958 121.328C177.443 121.843 177.155 122.541 177.156 123.269L177.156 126.873C177.155 127.601 177.443 128.299 177.958 128.814C178.472 129.329 179.171 129.617 179.898 129.616L174.424 129.616C172.91 129.616 171.682 128.388 171.682 126.873L171.682 123.269C171.682 121.755 172.91 120.527 174.424 120.527Z" fill="#FF9566"/>
<path d="M177.158 126.873L177.158 123.269C177.157 122.541 177.445 121.843 177.96 121.328C178.474 120.814 179.172 120.525 179.9 120.527L182.944 120.527C182.216 120.525 181.518 120.814 181.003 121.328C180.488 121.843 180.2 122.541 180.201 123.269L180.201 126.873C180.2 127.601 180.488 128.299 181.003 128.814C181.518 129.329 182.216 129.617 182.944 129.616L179.9 129.616C179.172 129.617 178.474 129.329 177.96 128.814C177.445 128.299 177.157 127.601 177.158 126.873Z" fill="#FF7C4E"/>
<path d="M180.201 126.873L180.201 123.269C180.199 122.541 180.488 121.843 181.002 121.328C181.517 120.814 182.215 120.525 182.943 120.527L185.939 120.527C184.425 120.527 183.197 121.755 183.197 123.269L183.197 126.873C183.197 128.388 184.425 129.616 185.939 129.616L182.943 129.616C182.215 129.617 181.517 129.329 181.002 128.814C180.488 128.299 180.199 127.601 180.201 126.873Z" fill="#FF9566"/>
<path d="M183.198 126.873L183.198 123.269C183.198 121.755 184.425 120.527 185.94 120.527L188.36 120.527C186.846 120.527 185.618 121.755 185.618 123.269L185.618 126.873C185.618 128.388 186.846 129.616 188.36 129.616L185.94 129.616C184.425 129.616 183.198 128.388 183.198 126.873Z" fill="#FF7C4E"/>
<path d="M185.616 126.873L185.616 123.269C185.616 121.755 186.844 120.527 188.358 120.527L190.129 120.527C189.4 120.524 188.7 120.812 188.183 121.326C187.667 121.841 187.377 122.54 187.377 123.269L187.377 126.873C187.377 128.388 188.604 129.616 190.119 129.616L188.348 129.616C186.837 129.61 185.616 128.384 185.616 126.873Z" fill="#FF9566"/>
<path d="M190.139 120.527L202.328 120.527C203.843 120.527 205.071 121.755 205.071 123.269L205.071 126.873C205.071 128.388 203.843 129.616 202.328 129.616L190.139 129.616C188.624 129.616 187.397 128.388 187.397 126.873L187.397 123.269C187.397 121.755 188.624 120.527 190.139 120.527Z" fill="#FF7C4E"/>
<path d="M203.292 126.873L203.292 123.269C203.292 121.755 202.065 120.527 200.55 120.527L198.779 120.527C200.294 120.527 201.521 121.755 201.521 123.269L201.521 126.873C201.521 128.388 200.294 129.616 198.779 129.616L200.55 129.616C202.065 129.616 203.292 128.388 203.292 126.873Z" fill="#FF9566"/>
<path d="M183.222 111.444L188.67 111.444C187.155 111.444 185.927 112.671 185.927 114.186L185.927 117.79C185.927 119.305 187.155 120.533 188.67 120.533L183.222 120.533C182.494 120.534 181.796 120.245 181.281 119.731C180.766 119.216 180.478 118.518 180.479 117.79L180.479 114.186C180.478 113.458 180.766 112.76 181.281 112.245C181.796 111.731 182.494 111.442 183.222 111.444Z" fill="#FF9566"/>
<path d="M185.932 117.79L185.932 114.186C185.932 112.671 187.16 111.444 188.674 111.444L191.718 111.444C190.203 111.444 188.975 112.671 188.975 114.186L188.975 117.79C188.975 119.305 190.203 120.532 191.718 120.532L188.674 120.532C187.16 120.532 185.932 119.305 185.932 117.79Z" fill="#FF7C4E"/>
<path d="M188.974 117.79L188.974 114.186C188.974 112.671 190.202 111.444 191.716 111.444L194.718 111.444C193.99 111.442 193.292 111.731 192.777 112.245C192.263 112.76 191.974 113.458 191.976 114.186L191.976 117.79C191.974 118.518 192.263 119.216 192.777 119.731C193.292 120.245 193.99 120.534 194.718 120.533L191.716 120.533C190.989 120.533 190.291 120.244 189.777 119.729C189.263 119.215 188.974 118.518 188.974 117.79Z" fill="#FF9566"/>
<path opacity="0.3" d="M186.253 111.441C187.359 107.382 190.224 104.03 194.062 102.306C197.899 100.582 202.308 100.665 206.077 102.534L204.758 111.457L186.253 111.441Z" fill="#358DD9"/>
<path opacity="0.3" d="M204.765 111.444L204.557 112.83C203.269 117.941 198.585 120.527 193.339 120.527L186.712 120.527C185.593 117.626 185.432 114.443 186.255 111.444L204.765 111.444Z" fill="#F76234"/>
<path opacity="0.3" d="M186.711 120.526C188.767 125.548 194.252 129.542 199.845 129.542C206.419 129.456 212.082 124.89 213.56 118.485C215.038 112.079 211.948 105.493 206.078 102.536L204.551 112.845C203.263 117.955 198.256 120.542 193.005 120.542L186.711 120.526Z" fill="#F76234"/>
<path d="M206.922 129.542C214.787 129.542 221.163 123.166 221.163 115.301C221.163 107.436 214.787 101.06 206.922 101.06L203.214 101.06L203.214 129.542L206.922 129.542Z" fill="#FF7C4E"/>
<path d="M203.212 129.537C195.422 129.537 189.106 123.161 189.106 115.296C189.106 107.431 195.422 101.055 203.212 101.055C211.003 101.055 217.318 107.431 217.318 115.296C217.318 123.161 211.003 129.537 203.212 129.537Z" fill="#FF9566"/>
<path d="M203.214 125.673C207.425 125.718 211.245 123.215 212.888 119.337C214.53 115.46 213.668 110.974 210.706 107.981C207.744 104.987 203.268 104.079 199.373 105.68C195.478 107.281 192.936 111.075 192.935 115.286C192.919 118.027 193.993 120.662 195.921 122.611C197.849 124.559 200.473 125.661 203.214 125.673Z" fill="#FF9566"/>
<path d="M203.216 126.848C207.899 126.899 212.148 124.117 213.976 119.805C215.803 115.493 214.846 110.504 211.552 107.175C208.259 103.846 203.281 102.834 198.95 104.615C194.618 106.395 191.79 110.614 191.79 115.297C191.764 121.639 196.875 126.805 203.216 126.848ZM203.216 106.1C206.946 106.064 210.33 108.284 211.782 111.72C213.234 115.157 212.467 119.13 209.841 121.78C207.215 124.43 203.249 125.233 199.799 123.812C196.35 122.391 194.099 119.028 194.101 115.297C194.084 110.243 198.161 106.128 203.216 106.1Z" fill="#FF7C4E"/>
<path d="M198.115 111.608C198.736 110.925 199.618 110.538 200.541 110.543C201.232 110.542 201.902 110.776 202.442 111.208C202.735 111.44 202.994 111.713 203.21 112.018C203.432 111.71 203.698 111.437 204 111.208C204.54 110.775 205.213 110.541 205.906 110.543C206.828 110.538 207.71 110.925 208.331 111.608C208.962 112.324 209.304 113.25 209.292 114.205C209.266 115.311 208.84 116.37 208.092 117.186C207.165 118.215 206.158 119.168 205.08 120.037L203.683 121.232C203.416 121.467 203.015 121.467 202.748 121.232L201.366 120.032C200.288 119.163 199.281 118.209 198.354 117.18C197.607 116.365 197.18 115.306 197.154 114.199C197.141 113.246 197.483 112.322 198.115 111.608Z" fill="#FEF0EA"/>
<path d="M147.792 120.26C143.869 118.29 133.199 110.116 132.085 108.934C130.692 107.457 127.443 105.487 122.337 105.979C117.231 106.472 113.517 104.994 111.661 104.994C109.804 104.994 107.947 106.964 113.053 108.934C111.506 108.934 108.156 110.903 106.299 110.903C104.443 110.903 101.349 109.591 99.8015 108.934L99.801 108.934L97.802 108.934C97.0361 108.934 96.5719 109.749 97.0392 110.356C99.4277 113.456 104.292 117.118 111.661 117.797C120.202 118.585 126.05 117.469 127.907 116.813L141.391 132.57L160.595 131.093L166.087 120.26L154.162 110.064C154.36 109.664 154.365 109.588 154.087 110L154.162 110.064C153.257 111.896 148.303 120.517 147.792 120.26Z" fill="#FCD2C0"/>
<path d="M26.0688 77.4625L25.6753 72.8364" stroke="#FEFEFE" stroke-width="3" stroke-linecap="round"/>
<path d="M16.817 78.2494L13.4706 75.4277" stroke="#FEFEFE" stroke-width="3" stroke-linecap="round"/>
<path d="M35.3207 76.6755L38.1424 73.3291" stroke="#FEFEFE" stroke-width="3" stroke-linecap="round"/>
<path d="M48.7067 87.9622C48.5618 86.2589 47.0636 84.9956 45.3603 85.1405L34.5661 86.0587C32.8629 86.2036 31.5996 87.7018 31.7444 89.405L32.4659 97.8862C32.8643 102.57 36.9844 106.044 41.6684 105.646C46.3524 105.247 49.8265 101.127 49.4281 96.4433L48.7067 87.9622Z" fill="#FFBD20"/>
<path d="M31.1355 109.649L26.5094 110.042L27.5204 121.928C27.614 123.028 28.5821 123.844 29.6827 123.751L30.3232 123.696C31.4238 123.603 32.2401 122.635 32.1465 121.534L31.1355 109.649Z" fill="#FFBD20"/>
<path d="M38.6805 125.315L21.7183 126.758C21.4647 123.778 23.6756 121.156 26.6563 120.902L32.8244 120.377C35.8051 120.124 38.427 122.335 38.6805 125.315Z" fill="#FFCA4C"/>
<path d="M43.7656 130.319L17.5513 132.549C17.2615 129.142 19.7882 126.146 23.1947 125.856L37.0729 124.675C40.4794 124.386 43.4759 126.912 43.7656 130.319Z" fill="#FFBD20"/>
<path d="M22.4923 90.1921C22.3474 88.4888 20.8492 87.2255 19.1459 87.3704L8.35179 88.2885C6.64852 88.4334 5.3852 89.9316 5.53008 91.6349L6.2515 100.116C6.64992 104.8 10.77 108.274 15.454 107.876C20.138 107.477 23.6122 103.357 23.2137 98.6732L22.4923 90.1921Z" fill="#FFBD20"/>
<path d="M42.9159 83.7954C42.771 82.0921 41.2728 80.8288 39.5695 80.9737L13.3552 83.2035C11.6519 83.3484 10.3886 84.8466 10.5335 86.5499L12.1075 105.054C12.7594 112.719 19.5014 118.404 27.1661 117.752L31.7922 117.358C39.4569 116.706 45.1419 109.964 44.4899 102.3L42.9159 83.7954Z" fill="#FFCA4C"/>
<path d="M27.4482 93.6623C27.6435 93.4499 27.965 93.0782 28.1774 92.8222C28.6566 92.2195 29.6278 91.502 30.6671 91.1766C32.6307 90.5619 34.5135 91.1555 35.7915 92.7757C36.5311 93.7133 36.9317 94.7743 36.9504 95.973C36.964 96.8502 36.7781 97.6914 36.4755 98.5093C36.0615 99.6289 35.4625 100.647 34.7706 101.614C33.7145 103.089 32.4988 104.425 31.1813 105.666L30.1922 106.517C29.7321 106.913 29.174 107.147 28.6004 107.209C28.0245 107.245 27.4349 107.108 26.9145 106.796L25.7959 106.124C24.2876 105.123 22.8638 104.012 21.5737 102.736C20.7285 101.901 19.9661 100.998 19.3689 99.9644C18.9325 99.2093 18.6073 98.4116 18.4725 97.5448C18.2884 96.3601 18.5041 95.2467 19.0748 94.1977C20.0608 92.3849 21.8162 91.4818 23.8555 91.756C24.9348 91.9012 26.0132 92.4443 26.5873 92.9575C26.8399 93.1739 27.2199 93.4859 27.4482 93.6623Z" fill="#FF2B6A"/>
<path d="M22.2898 103.415C23.2644 103.548 24.2685 103.576 25.2894 103.489C30.6356 103.034 34.9951 99.5443 36.8163 94.8593C36.64 94.105 36.2942 93.4119 35.7923 92.7756C34.5143 91.1554 32.6315 90.5618 30.6679 91.1764C29.6286 91.5019 28.6575 92.2193 28.1782 92.8221C27.9659 93.0781 27.6444 93.4498 27.4491 93.6621C27.2207 93.4858 26.8407 93.1738 26.5882 92.9573C26.014 92.4442 24.9356 91.901 23.8563 91.7558C21.8171 91.4817 20.0616 92.3848 19.0756 94.1976C18.505 95.2466 18.2893 96.36 18.4734 97.5446C18.6081 98.4115 18.9334 99.2092 19.3698 99.9643C19.9669 100.998 20.7294 101.901 21.5746 102.736C21.8087 102.968 22.0472 103.194 22.2898 103.415Z" fill="#FF4B81"/>
<path d="M20.5146 98.237C20.4961 98.1207 20.483 98.0052 20.4753 97.8906M22.2668 94.1451C21.7529 94.4627 21.3173 94.9162 20.9885 95.4904C20.821 95.7831 20.6918 96.0822 20.6028 96.3881" stroke="#FFD7E3" stroke-width="0.8" stroke-linecap="round"/>
<path d="M62.9596 25.3784C64.7491 25.6822 66.4442 24.4882 66.7459 22.7116C67.0475 20.9349 65.8414 19.2483 64.052 18.9445C62.2626 18.6407 60.5675 19.8347 60.2658 21.6113C59.9642 23.388 61.1702 25.0746 62.9596 25.3784Z" fill="#2C77CD"/>
<path d="M156.351 75.1265C159.242 81.6955 155.583 89.454 148.587 91L88.6228 100.928C79.5275 102.938 70.2361 98.2305 66.687 89.6003C59.0188 70.9542 51.3199 49.3309 49.6962 30.1417C49.1379 23.6122 53.269 17.7475 59.392 15.9339C60.0775 15.7269 60.7908 15.5817 61.5351 15.4799L75.8518 13.6328C75.7678 13.7899 75.973 13.4821 75.8518 13.6328L94.0602 11.2867L121.806 8.0645C122.842 7.93615 123.877 7.92198 124.875 8.01567C124.95 8.02832 125.027 8.02248 125.098 8.05364C130.659 8.65717 135.432 12.6675 136.854 18.2779C139.249 27.7125 146.018 51.6453 156.351 75.1265Z" fill="#FEFEFE"/>
<path d="M153.736 18.6362L155.685 18.6362L155.685 16.6835C156.846 15.3632 158.321 16.1665 158.321 17.3159L158.321 18.6362L160.27 18.6362C161.591 19.7975 160.787 21.269 159.638 21.269L158.321 21.269L158.321 23.2217C157.16 24.546 155.689 23.7387 155.689 22.5893L155.689 21.269L154.372 21.269C153.219 21.269 152.412 19.7975 153.736 18.6362Z" fill="#ADDCFD"/>
<path d="M94.2791 69.7715L127.199 64.8781" stroke="#CFEDF9" stroke-width="2" stroke-linecap="round"/>
<path d="M89.5507 70.8521C90.2447 72.3331 89.4771 74.1302 87.918 74.5308L74.6696 76.6309C72.6425 77.1517 70.525 76.1392 69.669 74.1918C68.7522 72.1059 67.7655 68.9085 67.2703 66.8753C67.1 65.3875 67.9866 64.0198 69.3481 63.564C69.5005 63.5121 69.6595 63.4741 69.8258 63.4458L73.0258 62.9268C73.008 62.9633 73.0519 62.8916 73.0258 62.9268L77.0956 62.2675L83.2995 61.3434C83.531 61.307 83.7633 61.2968 83.9879 61.3114C84.0047 61.3138 84.022 61.3119 84.0382 61.3186C85.2902 61.4188 86.3889 62.3025 86.7466 63.5745C87.3492 65.7134 87.7483 67.4149 89.5507 70.8521Z" fill="#CFEDF9"/>
<path d="M93.0424 62.4624L93.3894 62.4064C93.7295 62.3515 93.9719 62.2572 94.1165 62.1235C94.2611 61.9899 94.3148 61.8078 94.2777 61.5774C94.2408 61.3491 94.1313 61.2002 93.9492 61.1305C93.7693 61.0604 93.5059 61.0534 93.1588 61.1094L92.8326 61.162L93.0424 62.4624ZM93.1762 63.2919L93.4742 65.1388L92.3983 65.3124L91.6218 60.4994L93.1003 60.2609C93.7897 60.1496 94.3192 60.1869 94.6887 60.3728C95.0577 60.5564 95.2814 60.8908 95.3597 61.3758C95.4054 61.6589 95.3639 61.9245 95.2354 62.1727C95.1066 62.4187 94.9018 62.6285 94.6212 62.8021C95.5593 63.7609 96.1695 64.3797 96.4519 64.6584L95.258 64.851L93.7489 63.1996L93.1762 63.2919Z" fill="#CFEDF9"/>
<path d="M99.0302 64.31C98.5744 64.3835 98.1916 64.2842 97.8819 64.0122L97.8264 64.0212C97.9129 64.3224 97.9601 64.4972 97.9679 64.5455L98.2085 66.0368L97.15 66.2076L96.2949 60.9074L97.1556 60.7685L97.3818 61.2218L97.4304 61.214C97.6192 60.8097 97.9565 60.5684 98.4424 60.49C98.9005 60.4161 99.2862 60.5261 99.5995 60.8201C99.9128 61.1141 100.118 61.5596 100.214 62.1565C100.277 62.5494 100.271 62.9005 100.195 63.21C100.122 63.5191 99.9848 63.7675 99.7849 63.9551C99.5849 64.1428 99.3333 64.2611 99.0302 64.31ZM98.2319 61.3481C97.9705 61.3903 97.792 61.4979 97.6964 61.671C97.6006 61.8418 97.5786 62.1032 97.6307 62.4551L97.6482 62.5637C97.7119 62.9588 97.8189 63.232 97.9692 63.3834C98.1217 63.5344 98.3322 63.5883 98.6006 63.545C99.0749 63.4685 99.2522 63.0593 99.1325 62.3175C99.0741 61.9554 98.9714 61.6938 98.8243 61.5329C98.6793 61.3694 98.4818 61.3078 98.2319 61.3481Z" fill="#CFEDF9"/>
<path d="M101.76 61.8734L100.22 60.2742L101.42 60.0805L102.363 61.1309L102.934 59.8364L104.134 59.6426L103.162 61.6472L104.787 63.3136L103.583 63.5079L102.564 62.3786L101.948 63.7716L100.747 63.9654L101.76 61.8734Z" fill="#CFEDF9"/>
<path d="M105.75 61.2296L104.21 59.6304L105.411 59.4367L106.353 60.4871L106.924 59.1925L108.125 58.9988L107.152 61.0034L108.778 62.6698L107.573 62.8641L106.554 61.7348L105.939 63.1278L104.738 63.3215L105.75 61.2296Z" fill="#CFEDF9"/>
<path d="M109.741 60.5857L108.201 58.9866L109.402 58.7928L110.344 59.8433L110.915 58.5487L112.116 58.355L111.143 60.3595L112.768 62.026L111.564 62.2202L110.545 61.091L109.93 62.484L108.729 62.6777L109.741 60.5857Z" fill="#CFEDF9"/>
<path d="M104.744 87.5585L137.664 82.6651" stroke="#CFEDF9" stroke-width="2" stroke-linecap="round"/>
<path d="M99.1597 87.2009C99.4152 87.5894 99.6763 87.9892 99.7601 88.4466C100.001 89.759 99.2463 91.1196 97.9148 91.4616L84.6664 93.5617C82.6393 94.0825 80.5218 93.07 79.6658 91.1227C78.749 89.0367 77.3048 86.6288 76.8096 84.5955C76.6393 83.1077 77.5259 81.74 78.8874 81.2842C79.0398 81.2323 79.1988 81.1943 79.3651 81.166L82.5651 80.647C82.5473 80.6835 82.5912 80.6118 82.5651 80.647L86.6349 79.9877L92.8388 79.0636C93.0703 79.0272 93.3026 79.017 93.5272 79.0316C93.544 79.034 93.5613 79.0322 93.5775 79.0388C94.8295 79.139 95.9282 80.0227 96.2859 81.2947C96.8441 83.276 97.6003 84.8302 99.1597 87.2009Z" fill="#CFEDF9"/>
<path d="M103.508 80.2494L103.855 80.1934C104.195 80.1385 104.437 80.0443 104.582 79.9106C104.726 79.7769 104.78 79.5949 104.743 79.3644C104.706 79.1362 104.597 78.9872 104.415 78.9175C104.235 78.8475 103.971 78.8404 103.624 78.8964L103.298 78.949L103.508 80.2494ZM103.642 81.079L103.94 82.9258L102.864 83.0994L102.087 78.2864L103.566 78.0479C104.255 77.9367 104.785 77.974 105.154 78.1598C105.523 78.3435 105.747 78.6778 105.825 79.1628C105.871 79.446 105.829 79.7116 105.701 79.9598C105.572 80.2057 105.367 80.4155 105.087 80.5892C106.025 81.548 106.635 82.1667 106.917 82.4454L105.723 82.638L104.214 80.9866L103.642 81.079Z" fill="#CFEDF9"/>
<path d="M109.496 82.097C109.04 82.1705 108.657 82.0713 108.347 81.7993L108.292 81.8082C108.378 82.1095 108.425 82.2843 108.433 82.3326L108.674 83.8239L107.615 83.9946L106.76 78.6944L107.621 78.5556L107.847 79.0089L107.896 79.001C108.085 78.5968 108.422 78.3554 108.908 78.277C109.366 78.2031 109.752 78.3132 110.065 78.6072C110.378 78.9011 110.583 79.3466 110.679 79.9436C110.743 80.3364 110.736 80.6876 110.661 80.9971C110.587 81.3062 110.45 81.5546 110.25 81.7422C110.05 81.9298 109.799 82.0481 109.496 82.097ZM108.697 79.1352C108.436 79.1774 108.257 79.285 108.162 79.458C108.066 79.6289 108.044 79.8902 108.096 80.2421L108.114 80.3508C108.177 80.7458 108.284 81.019 108.434 81.1704C108.587 81.3215 108.798 81.3753 109.066 81.332C109.54 81.2555 109.718 80.8463 109.598 80.1045C109.539 79.7424 109.437 79.4809 109.29 79.32C109.145 79.1565 108.947 79.0949 108.697 79.1352Z" fill="#CFEDF9"/>
<path d="M112.225 79.6604L110.685 78.0613L111.886 77.8675L112.828 78.918L113.399 77.6234L114.6 77.4297L113.627 79.4342L115.252 81.1007L114.048 81.295L113.029 80.1657L112.414 81.5587L111.213 81.7524L112.225 79.6604Z" fill="#CFEDF9"/>
<path d="M116.215 79.0166L114.676 77.4174L115.876 77.2237L116.819 78.2742L117.389 76.9796L118.59 76.7858L117.618 78.7904L119.243 80.4568L118.039 80.6511L117.02 79.5219L116.404 80.9148L115.203 81.1086L116.215 79.0166Z" fill="#CFEDF9"/>
<path d="M120.206 78.3728L118.666 76.7736L119.867 76.5799L120.809 77.6303L121.38 76.3358L122.581 76.142L121.608 78.1466L123.234 79.813L122.029 80.0073L121.01 78.878L120.395 80.271L119.194 80.4647L120.206 78.3728Z" fill="#CFEDF9"/>
</g>
<path d="M60.6702 48.4036C60.0683 44.0265 63.1287 39.9902 67.5057 39.3883L112.09 33.2573C116.467 32.6554 120.504 35.7158 121.106 40.0928L121.157 40.4663C121.759 44.8434 118.698 48.8796 114.321 49.4816L69.7368 55.6126C65.3597 56.2145 61.3234 53.1541 60.7215 48.777L60.6702 48.4036Z" fill="#FFF0F7"/>
<path d="M112.14 38.0086C111.994 37.9072 111.75 37.727 111.587 37.6016C111.217 37.3036 110.534 37.0032 109.864 36.9482C108.599 36.8444 107.545 37.4572 106.995 38.6062C106.677 39.2712 106.58 39.9645 106.731 40.6889C106.842 41.2189 107.068 41.7003 107.361 42.1518C107.762 42.7699 108.261 43.3021 108.809 43.7902C109.645 44.5354 110.558 45.1748 111.52 45.7439L112.231 46.1221C112.562 46.298 112.93 46.3636 113.283 46.3229C113.635 46.2665 113.972 46.1041 114.243 45.8455L114.825 45.2894C115.598 44.4818 116.304 43.6196 116.908 42.6764C117.304 42.0586 117.641 41.4115 117.86 40.7081C118.021 40.1942 118.108 39.6697 118.072 39.1294C118.022 38.391 117.741 37.7497 117.255 37.1954C116.416 36.2374 115.236 35.9316 114.045 36.3733C113.415 36.6071 112.839 37.0805 112.563 37.4674C112.44 37.632 112.254 37.8714 112.14 38.0086Z" fill="#FF769F"/>
<path d="M83.3419 41.9687C83.1954 41.8673 82.9514 41.6871 82.7888 41.5617C82.4185 41.2637 81.7363 40.9634 81.0663 40.9084C79.8004 40.8045 78.7471 41.4174 78.1972 42.5664C77.879 43.2313 77.7816 43.9246 77.9329 44.649C78.0437 45.1791 78.2697 45.6605 78.5629 46.112C78.964 46.7301 79.4629 47.2623 80.0106 47.7504C80.8467 48.4955 81.76 49.135 82.7218 49.704L83.4328 50.0822C83.7636 50.2582 84.1315 50.3237 84.4853 50.283C84.837 50.2267 85.1735 50.0643 85.4445 49.8056L86.0271 49.2495C86.7996 48.4419 87.5064 47.5797 88.1103 46.6366C88.5059 46.0187 88.8426 45.3716 89.0621 44.6682C89.2225 44.1543 89.3101 43.6298 89.2737 43.0895C89.2239 42.3511 88.943 41.7099 88.4571 41.1555C87.6175 40.1976 86.4378 39.8918 85.2469 40.3335C84.6167 40.5673 84.0409 41.0406 83.7647 41.4275C83.642 41.5921 83.4555 41.8316 83.3419 41.9687Z" fill="#FF769F"/>
<path d="M97.5381 40.0166C97.3917 39.9152 97.1477 39.7349 96.9851 39.6096C96.6148 39.3116 95.9326 39.0112 95.2626 38.9562C93.9967 38.8524 92.9434 39.4652 92.3935 40.6142C92.0752 41.2792 91.9779 41.9725 92.1292 42.6969C92.24 43.2269 92.466 43.7083 92.7592 44.1598C93.1603 44.7779 93.6592 45.3101 94.2069 45.7982C95.043 46.5434 95.9562 47.1828 96.9181 47.7519L97.6291 48.1301C97.9599 48.306 98.3277 48.3716 98.6816 48.3309C99.0333 48.2745 99.3698 48.1121 99.6408 47.8535L100.223 47.2974C100.996 46.4898 101.703 45.6276 102.307 44.6844C102.702 44.0666 103.039 43.4195 103.258 42.7161C103.419 42.2022 103.506 41.6776 103.47 41.1374C103.42 40.399 103.139 39.7577 102.653 39.2034C101.814 38.2454 100.634 37.9396 99.4432 38.3813C98.8129 38.6151 98.2372 39.0885 97.961 39.4754C97.8383 39.64 97.6517 39.8794 97.5381 40.0166Z" fill="#FF769F"/>
<path d="M69.1456 43.9209C68.9992 43.8195 68.7551 43.6392 68.5925 43.5139C68.2222 43.2159 67.54 42.9155 66.87 42.8605C65.6041 42.7567 64.5508 43.3695 64.0009 44.5185C63.6827 45.1835 63.5853 45.8768 63.7366 46.6012C63.8474 47.1312 64.0734 47.6126 64.3666 48.0641C64.7678 48.6822 65.2666 49.2144 65.8144 49.7025C66.6504 50.4477 67.5637 51.0871 68.5255 51.6562L69.2365 52.0344C69.5673 52.2103 69.9352 52.2759 70.289 52.2352C70.6407 52.1788 70.9772 52.0164 71.2482 51.7578L71.8308 51.2017C72.6033 50.3941 73.3101 49.5319 73.914 48.5887C74.3096 47.9709 74.6463 47.3238 74.8658 46.6204C75.0262 46.1065 75.1139 45.5819 75.0774 45.0416C75.0276 44.3033 74.7467 43.662 74.2608 43.1077C73.4212 42.1497 72.2415 41.8439 71.0507 42.2856C70.4204 42.5194 69.8446 42.9928 69.5684 43.3797C69.4457 43.5443 69.2592 43.7837 69.1456 43.9209Z" fill="#FF769F"/>
<path d="M128.208 28.628L128.041 27.4111" stroke="#FFBD20" stroke-width="2" stroke-linecap="round"/>
<path d="M132.259 28.7433L133.412 27.3448" stroke="#FFBD20" stroke-width="2" stroke-linecap="round"/>
<path d="M124.338 29.8326L122.851 28.7972" stroke="#FFBD20" stroke-width="2" stroke-linecap="round"/>
<path d="M128.904 33.6903C128.666 33.5253 128.269 33.232 128.004 33.028C127.401 32.5431 126.291 32.0543 125.201 31.9648C123.141 31.7958 121.427 32.7931 120.532 34.6629C120.014 35.745 119.856 36.8732 120.102 38.0521C120.282 38.9147 120.65 39.6981 121.127 40.4328C121.78 41.4386 122.592 42.3047 123.483 43.099C124.844 44.3116 126.33 45.3522 127.895 46.2783L129.052 46.8938C129.59 47.1801 130.189 47.2867 130.765 47.2205C131.337 47.1288 131.885 46.8645 132.326 46.4436L133.274 45.5386C134.531 44.2244 135.681 42.8213 136.664 41.2865C137.308 40.281 137.856 39.228 138.213 38.0833C138.474 37.247 138.616 36.3935 138.557 35.5142C138.476 34.3127 138.019 33.2691 137.228 32.367C135.862 30.8081 133.942 30.3105 132.004 31.0292C130.979 31.4097 130.042 32.18 129.592 32.8096C129.392 33.0775 129.089 33.4671 128.904 33.6903Z" fill="#FF2B6A"/>
<path d="M136.112 42.1094C135.186 42.4545 134.209 42.7039 133.189 42.8441C127.849 43.5784 122.807 41.1204 119.988 36.931C119.994 36.1528 120.18 35.3973 120.532 34.663C121.426 32.7931 123.141 31.7958 125.201 31.9648C126.291 32.0543 127.401 32.5431 128.004 33.028C128.268 33.2321 128.665 33.5254 128.904 33.6904C129.089 33.4672 129.392 33.0775 129.592 32.8097C130.041 32.18 130.978 31.4098 132.004 31.0293C133.942 30.3105 135.862 30.8081 137.228 32.367C138.019 33.2691 138.476 34.3127 138.557 35.5142C138.616 36.3935 138.473 37.2471 138.212 38.0833C137.855 39.228 137.307 40.2811 136.663 41.2865C136.485 41.5651 136.301 41.8393 136.112 42.1094Z" fill="#FF4B81"/>
<path d="M111.517 43.0482L110.958 43.125L110.65 40.8815C110.613 40.6137 110.59 40.4005 110.581 40.2419C110.55 40.285 110.511 40.3332 110.463 40.3865C110.417 40.4397 110.26 40.6098 109.991 40.897L109.662 40.5815L110.573 39.6377L111.039 39.5736L111.517 43.0482Z" fill="#FFD8EA"/>
<path d="M112.971 42.8482L113.935 39.6814L112.129 39.9298L112.061 39.4379L114.464 39.1075L114.518 39.4972L113.575 42.7652L112.971 42.8482Z" fill="#FFD8EA"/>
<path d="M128.528 41.7421L127.487 41.8852L127.096 39.0368L127.041 38.5675L126.988 38.0534C126.839 38.25 126.734 38.3799 126.674 38.443L126.171 38.9753L125.584 38.418L126.996 36.9374L127.851 36.8198L128.528 41.7421Z" fill="#FEFEFE"/>
<path d="M130.825 36.3457C131.296 36.2808 131.69 36.3364 132.007 36.5124C132.326 36.6858 132.511 36.9543 132.561 37.318C132.595 37.5693 132.556 37.8034 132.444 38.02C132.332 38.2344 132.132 38.4404 131.843 38.6379C132.239 38.7848 132.531 38.955 132.72 39.1486C132.911 39.3396 133.024 39.563 133.059 39.8189C133.114 40.2229 133.001 40.5701 132.718 40.8606C132.436 41.1487 132.036 41.3283 131.52 41.3993C130.981 41.4734 130.542 41.4171 130.203 41.2304C129.864 41.0438 129.666 40.7406 129.608 40.3209C129.57 40.0403 129.609 39.7809 129.728 39.5429C129.848 39.3044 130.062 39.0795 130.369 38.868C130.064 38.7293 129.836 38.5674 129.685 38.3824C129.533 38.1973 129.441 37.9847 129.408 37.7446C129.36 37.3922 129.466 37.0871 129.728 36.8292C129.99 36.5714 130.356 36.4102 130.825 36.3457ZM130.563 40.1278C130.589 40.3209 130.677 40.462 130.827 40.5512C130.976 40.6404 131.168 40.669 131.401 40.6369C131.659 40.6014 131.845 40.5199 131.958 40.3923C132.07 40.2625 132.114 40.1066 132.089 39.9248C132.068 39.7744 131.985 39.643 131.839 39.5304C131.695 39.4152 131.47 39.3032 131.165 39.1942C130.717 39.4799 130.516 39.7911 130.563 40.1278ZM130.923 37.1075C130.745 37.1319 130.608 37.1977 130.511 37.3048C130.415 37.4094 130.378 37.538 130.399 37.6906C130.418 37.8253 130.477 37.9407 130.577 38.0367C130.679 38.1301 130.851 38.2174 131.093 38.2984C131.299 38.1649 131.438 38.0383 131.511 37.9185C131.584 37.7988 131.61 37.6682 131.591 37.5268C131.57 37.3719 131.497 37.2573 131.372 37.1829C131.248 37.1086 131.098 37.0834 130.923 37.1075Z" fill="#FEFEFE"/>
<path d="M82.7188 47.0083L82.1603 47.0851L81.8517 44.8416C81.8149 44.5739 81.7921 44.3607 81.7832 44.2021C81.752 44.2451 81.7126 44.2933 81.665 44.3467C81.6191 44.3998 81.4616 44.57 81.1928 44.8572L80.8637 44.5416L81.7751 43.5978L82.241 43.5337L82.7188 47.0083Z" fill="#FFD8EA"/>
<path d="M84.6588 44.5307C85.009 44.4825 85.299 44.5371 85.5289 44.6944C85.7587 44.8516 85.8957 45.0903 85.9397 45.4103C85.9907 45.7811 85.9141 46.087 85.71 46.3282C85.5072 46.5676 85.1919 46.7167 84.7641 46.7755C84.3759 46.8289 84.0623 46.8082 83.8233 46.7136L83.7537 46.2074C83.892 46.2626 84.0471 46.2986 84.2189 46.3153C84.3907 46.332 84.5479 46.3306 84.6905 46.311C84.9425 46.2764 85.1264 46.1937 85.2425 46.0632C85.3585 45.9326 85.4016 45.7588 85.3718 45.5417C85.3147 45.1266 85.0215 44.9554 84.4923 45.0282C84.4179 45.0384 84.3271 45.059 84.2199 45.0899C84.1126 45.1192 84.019 45.149 83.9392 45.1793L83.6694 45.0663L83.5692 43.3511L85.3754 43.1027L85.4437 43.5994L84.1294 43.7802L84.1693 44.6513C84.2234 44.6341 84.2893 44.6138 84.3667 44.5902C84.4458 44.5664 84.5432 44.5466 84.6588 44.5307Z" fill="#FFD8EA"/>
<path d="M96.915 45.0562L96.3565 45.133L96.048 42.8894C96.0112 42.6217 95.9883 42.4085 95.9794 42.2499C95.9482 42.2929 95.9088 42.3411 95.8613 42.3945C95.8153 42.4476 95.6579 42.6178 95.389 42.905L95.0599 42.5894L95.9714 41.6456L96.4372 41.5816L96.915 45.0562Z" fill="#FFD8EA"/>
<path d="M97.7805 43.4285C97.5936 42.0691 98.0539 41.3132 99.1614 41.1609C99.3357 41.137 99.4849 41.1302 99.609 41.1406L99.673 41.6064C99.5478 41.5881 99.406 41.5898 99.2476 41.6116C98.8752 41.6628 98.6093 41.8011 98.4498 42.0264C98.2903 42.2518 98.2329 42.5858 98.2776 43.0284L98.3062 43.0245C98.363 42.8859 98.4539 42.7725 98.579 42.6843C98.7039 42.5944 98.8574 42.537 99.0396 42.5119C99.3549 42.4686 99.6138 42.5315 99.8162 42.7006C100.019 42.8697 100.143 43.1198 100.188 43.451C100.238 43.8154 100.176 44.1178 100.001 44.3582C99.8268 44.5968 99.564 44.7403 99.2123 44.7887C98.9635 44.8229 98.7391 44.7932 98.5389 44.6997C98.3386 44.6045 98.1728 44.4497 98.0416 44.2353C97.9118 44.0191 97.8248 43.7501 97.7805 43.4285ZM99.1393 44.3289C99.3311 44.3026 99.4699 44.2205 99.5559 44.0828C99.6435 43.9448 99.6715 43.7609 99.6399 43.5312C99.6124 43.3316 99.5417 43.1815 99.4278 43.0809C99.3155 42.9801 99.1619 42.9431 98.967 42.9699C98.8466 42.9865 98.7393 43.0279 98.6451 43.0941C98.5506 43.1587 98.4803 43.2403 98.4341 43.3386C98.3877 43.4354 98.3709 43.5306 98.3838 43.624C98.4145 43.8474 98.5006 44.0277 98.6422 44.1648C98.7851 44.3002 98.9508 44.3549 99.1393 44.3289Z" fill="#FFD8EA"/>
<path d="M68.5225 48.9605L67.964 49.0373L67.6555 46.7938C67.6187 46.526 67.5958 46.3129 67.5869 46.1543C67.5557 46.1973 67.5163 46.2455 67.4688 46.2988C67.4228 46.352 67.2654 46.5222 66.9966 46.8094L66.6674 46.4938L67.5789 45.55L68.0447 45.4859L68.5225 48.9605Z" fill="#FFD8EA"/>
<path d="M71.9567 47.7158L71.4885 47.7802L71.5928 48.5383L71.0485 48.6132L70.9443 47.855L69.3567 48.0733L69.2976 47.6432L70.5694 45.1291L71.1137 45.0542L71.4248 47.3167L71.893 47.2524L71.9567 47.7158ZM70.8806 47.3916L70.7606 46.5194C70.7179 46.2088 70.6909 45.9534 70.6795 45.7532L70.6605 45.7558C70.6305 45.8665 70.5782 46.0028 70.5036 46.1648L69.8135 47.5383L70.8806 47.3916Z" fill="#FFD8EA"/>
<path d="M65.2016 27.8734C65.3197 28.7491 65.1603 29.4535 64.7234 29.9866C64.2889 30.5194 63.601 30.8492 62.6598 30.9761L61.1534 31.1792L60.4362 25.8595L62.1064 25.6344C62.9748 25.5173 63.6801 25.6556 64.2222 26.0493C64.7643 26.443 65.0908 27.0511 65.2016 27.8734ZM64.0339 28.0605C63.8799 26.9179 63.2983 26.4147 62.2892 26.5507L61.6888 26.6317L62.1558 30.0957L62.6398 30.0304C63.7265 29.8839 64.1912 29.2273 64.0339 28.0605Z" fill="#6A6A6A"/>
<path d="M67.0671 28.3036C67.1214 28.7063 67.2279 29.0019 67.3867 29.1904C67.5479 29.3786 67.7777 29.4526 68.0761 29.4124C68.372 29.3725 68.5705 29.242 68.6716 29.0209C68.7748 28.797 68.7991 28.4825 68.7445 28.0774C68.6902 27.6748 68.584 27.3816 68.4258 27.1979C68.2677 27.0142 68.0395 26.9425 67.7411 26.9827C67.4451 27.0226 67.2453 27.1521 67.1414 27.3711C67.0372 27.5876 67.0125 27.8985 67.0671 28.3036ZM69.8797 27.9244C69.969 28.5866 69.8642 29.1281 69.5652 29.5487C69.2663 29.9694 68.8051 30.2217 68.1817 30.3058C67.7911 30.3584 67.4352 30.32 67.114 30.1904C66.7924 30.0584 66.53 29.8431 66.3267 29.5445C66.1234 29.2459 65.993 28.8831 65.9355 28.4561C65.8458 27.7915 65.9496 27.2514 66.2468 26.8359C66.544 26.4205 67.0067 26.1704 67.635 26.0857C68.0255 26.033 68.3814 26.0715 68.7027 26.201C69.0239 26.3306 69.286 26.5435 69.489 26.8397C69.6919 27.1359 69.8222 27.4974 69.8797 27.9244Z" fill="#6A6A6A"/>
<path d="M74.7027 29.3525L73.593 29.5021L73.2726 27.1261C73.233 26.8326 73.1513 26.6201 73.0274 26.4886C72.9031 26.3547 72.727 26.3031 72.499 26.3339C72.1885 26.3757 71.9781 26.5103 71.868 26.7375C71.7575 26.9624 71.7347 27.3149 71.7994 27.7952L72.0575 29.7092L70.9477 29.8588L70.3992 25.7908L71.247 25.6765L71.4664 26.1767L71.5282 26.1684C71.6254 25.9552 71.7753 25.7843 71.9778 25.6558C72.1824 25.5245 72.4229 25.4402 72.6995 25.4029C73.1725 25.3391 73.5488 25.4193 73.8285 25.6434C74.1078 25.865 74.28 26.2172 74.3451 26.7L74.7027 29.3525Z" fill="#6A6A6A"/>
<path d="M78.3045 28.8669L78.0153 28.3428L77.9861 28.3467C77.8311 28.6072 77.6603 28.7969 77.4738 28.9159C77.2894 29.0322 77.0384 29.1117 76.7206 29.1546C76.33 29.2072 76.0069 29.1372 75.7512 28.9444C75.498 28.7513 75.3436 28.4486 75.288 28.0362C75.2298 27.6044 75.3373 27.2664 75.6106 27.0221C75.886 26.775 76.3267 26.5995 76.9326 26.4956L77.6356 26.3786L77.6116 26.2003C77.556 25.7879 77.3171 25.6102 76.895 25.6671C76.57 25.7109 76.2012 25.8607 75.7886 26.1163L75.32 25.4163C75.7552 25.1082 76.2578 24.9157 76.8278 24.8389C77.3736 24.7653 77.8081 24.8277 78.1312 25.0262C78.4544 25.2247 78.6487 25.5665 78.7141 26.0517L79.0795 28.7624L78.3045 28.8669ZM77.7229 27.0263L77.2955 27.0987C76.9742 27.1519 76.7419 27.2425 76.5986 27.3705C76.4553 27.4985 76.3984 27.6716 76.4278 27.89C76.47 28.2029 76.6706 28.3351 77.0296 28.2867C77.2868 28.2521 77.4818 28.1505 77.6146 27.9819C77.7499 27.813 77.8011 27.606 77.768 27.361L77.7229 27.0263Z" fill="#6A6A6A"/>
<path d="M82.7768 27.034C82.833 27.4512 82.7303 27.7886 82.4687 28.0462C82.2094 28.3034 81.7911 28.471 81.2138 28.5488C80.9179 28.5887 80.6628 28.6021 80.4486 28.589C80.2348 28.5783 80.0317 28.5464 79.8393 28.4933L79.7157 27.5764C79.9349 27.6456 80.1775 27.6956 80.4435 27.7265C80.7119 27.757 80.9443 27.759 81.1408 27.7325C81.5435 27.6782 81.7291 27.5346 81.6977 27.3017C81.686 27.2144 81.6498 27.1477 81.5892 27.1015C81.5283 27.0529 81.4278 27.0035 81.2877 26.9532C81.1472 26.9005 80.9616 26.8428 80.7308 26.7801C80.4003 26.6912 80.1535 26.601 79.9904 26.5094C79.8299 26.4174 79.706 26.3045 79.6187 26.1705C79.5336 26.0338 79.4768 25.8599 79.4484 25.6489C79.3997 25.2874 79.5015 24.9897 79.754 24.7556C80.0086 24.5187 80.393 24.3656 80.9072 24.2963C81.3972 24.2302 81.8883 24.2727 82.3804 24.4237L82.1536 25.2693C81.938 25.2095 81.738 25.1636 81.5534 25.1317C81.3687 25.0998 81.1843 25.0962 80.9999 25.1211C80.6724 25.1652 80.5206 25.2759 80.5445 25.4529C80.5579 25.5524 80.6217 25.6315 80.7358 25.6902C80.8523 25.7486 81.0986 25.8253 81.4744 25.9203C81.8095 26.006 82.0586 26.0947 82.2216 26.1864C82.3846 26.278 82.5111 26.3918 82.6011 26.5279C82.6911 26.664 82.7496 26.8327 82.7768 27.034Z" fill="#6A6A6A"/>
<path d="M82.9439 23.0288C82.8952 22.6674 83.0722 22.4595 83.4748 22.4053C83.8775 22.351 84.1032 22.5045 84.1519 22.866C84.1752 23.0382 84.1424 23.1797 84.0536 23.2905C83.9669 23.3985 83.8228 23.4661 83.6215 23.4932C83.2188 23.5475 82.993 23.3927 82.9439 23.0288ZM84.7912 27.9924L83.6814 28.142L83.133 24.074L84.2428 23.9244L84.7912 27.9924Z" fill="#6A6A6A"/>
<path d="M89.9862 27.292L88.1427 23.2912L88.11 23.2956C88.2705 24.1384 88.3699 24.7017 88.4082 24.9855L88.7418 27.4598L87.7339 27.5957L87.0167 22.276L88.5522 22.069L90.3596 25.9672L90.3814 25.9643L91.1684 21.7163L92.7039 21.5092L93.4211 26.8289L92.3695 26.9707L92.03 24.4528C92.014 24.3339 91.9967 24.1967 91.9782 24.0411C91.9622 23.8852 91.9235 23.4705 91.8624 22.7971L91.8296 22.8015L91.0196 27.1527L89.9862 27.292Z" fill="#6A6A6A"/>
<path d="M93.8147 21.5633C93.766 21.2018 93.9429 20.994 94.3456 20.9397C94.7483 20.8854 94.974 21.0389 95.0227 21.4004C95.0459 21.5726 95.0131 21.7141 94.9243 21.8249C94.8376 21.9329 94.6936 22.0005 94.4923 22.0276C94.0896 22.0819 93.8637 21.9271 93.8147 21.5633ZM95.662 26.5268L94.5522 26.6764L94.0038 22.6084L95.1135 22.4588L95.662 26.5268Z" fill="#6A6A6A"/>
<path d="M100.461 25.8798L99.3511 26.0294L99.0307 23.6534C98.9912 23.3599 98.9094 23.1474 98.7855 23.0159C98.6612 22.882 98.4851 22.8304 98.2571 22.8612C97.9466 22.903 97.7363 23.0376 97.6261 23.2648C97.5156 23.4897 97.4928 23.8422 97.5575 24.3225L97.8156 26.2365L96.7058 26.3861L96.1573 22.3181L97.0051 22.2038L97.2245 22.704L97.2863 22.6957C97.3836 22.4825 97.5334 22.3116 97.7359 22.1831C97.9405 22.0518 98.181 21.9675 98.4576 21.9302C98.9306 21.8664 99.3069 21.9466 99.5866 22.1707C99.8659 22.3923 100.038 22.7445 100.103 23.2273L100.461 25.8798Z" fill="#6A6A6A"/>
<path d="M104.471 21.1972L104.547 21.7612L103.932 22.0108C104.073 22.177 104.159 22.373 104.19 22.5986C104.248 23.0352 104.142 23.3966 103.869 23.6828C103.598 23.9663 103.193 24.1445 102.652 24.2174L102.45 24.2335L102.284 24.2373C102.182 24.34 102.138 24.4448 102.152 24.5515C102.174 24.7116 102.388 24.7642 102.796 24.7092L103.487 24.616C103.934 24.5558 104.286 24.6059 104.545 24.7661C104.806 24.926 104.961 25.1916 105.012 25.5627C105.076 26.0381 104.926 26.4337 104.564 26.7493C104.204 27.0646 103.653 27.2723 102.91 27.3723C102.343 27.4489 101.895 27.4079 101.568 27.2496C101.243 27.0933 101.056 26.8369 101.008 26.4803C100.975 26.2353 101.024 26.02 101.154 25.8345C101.285 25.6489 101.494 25.501 101.78 25.3908C101.659 25.3576 101.549 25.2922 101.45 25.1945C101.35 25.0944 101.291 24.9824 101.275 24.8587C101.254 24.7035 101.281 24.5689 101.357 24.4549C101.433 24.3385 101.549 24.2191 101.706 24.0967C101.48 24.0333 101.29 23.9083 101.136 23.7215C100.985 23.5344 100.891 23.3026 100.854 23.0261C100.794 22.5822 100.892 22.2195 101.148 21.938C101.404 21.6565 101.8 21.4796 102.336 21.4073C102.45 21.3919 102.586 21.3847 102.744 21.3856C102.904 21.3838 103.007 21.3847 103.052 21.3886L104.471 21.1972ZM101.957 26.2635C101.978 26.4163 102.067 26.5266 102.224 26.5943C102.384 26.6616 102.596 26.6775 102.86 26.6419C103.258 26.5882 103.562 26.4916 103.773 26.3521C103.984 26.2125 104.077 26.0481 104.051 25.8589C104.031 25.7061 103.95 25.6095 103.808 25.5693C103.667 25.5291 103.457 25.5278 103.178 25.5654L102.603 25.6429C102.399 25.6703 102.235 25.7407 102.109 25.854C101.986 25.9693 101.936 26.1058 101.957 26.2635ZM101.914 22.8979C101.944 23.1186 102.017 23.2866 102.134 23.4017C102.253 23.5166 102.416 23.5601 102.622 23.5323C102.831 23.5041 102.975 23.4193 103.055 23.2776C103.135 23.136 103.159 22.9548 103.13 22.734C103.064 22.244 102.829 22.0262 102.427 22.0805C102.019 22.1354 101.848 22.4079 101.914 22.8979Z" fill="#6A6A6A"/>
<path d="M108.56 20.6459L108.637 21.2099L108.022 21.4595C108.163 21.6257 108.248 21.8216 108.279 22.0472C108.338 22.4839 108.231 22.8453 107.958 23.1315C107.688 23.4149 107.282 23.5931 106.741 23.6661L106.539 23.6821L106.373 23.686C106.271 23.7887 106.227 23.8934 106.242 24.0002C106.263 24.1603 106.478 24.2128 106.885 24.1579L107.577 24.0647C108.023 24.0045 108.375 24.0546 108.634 24.2148C108.895 24.3747 109.051 24.6402 109.101 25.0114C109.165 25.4868 109.016 25.8823 108.653 26.198C108.293 26.5133 107.742 26.7209 107 26.821C106.432 26.8975 105.984 26.8566 105.657 26.6983C105.332 26.542 105.146 26.2856 105.097 25.929C105.064 25.684 105.113 25.4687 105.244 25.2832C105.374 25.0976 105.583 24.9497 105.869 24.8395C105.749 24.8063 105.639 24.7409 105.539 24.6432C105.439 24.543 105.381 24.4311 105.364 24.3074C105.343 24.1521 105.371 24.0175 105.447 23.9035C105.522 23.7871 105.639 23.6678 105.795 23.5454C105.569 23.482 105.379 23.3569 105.226 23.1702C105.074 22.9831 104.98 22.7513 104.943 22.4747C104.883 22.0308 104.981 21.6681 105.237 21.3866C105.493 21.1051 105.889 20.9283 106.425 20.856C106.539 20.8406 106.675 20.8334 106.834 20.8343C106.994 20.8324 107.096 20.8334 107.141 20.8372L108.56 20.6459ZM106.046 25.7122C106.067 25.865 106.156 25.9752 106.313 26.0429C106.473 26.1103 106.685 26.1262 106.949 26.0905C107.347 26.0369 107.652 25.9403 107.862 25.8007C108.073 25.6612 108.166 25.4968 108.14 25.3076C108.12 25.1547 108.039 25.0582 107.898 25.018C107.756 24.9777 107.546 24.9764 107.267 25.014L106.692 25.0916C106.489 25.119 106.324 25.1894 106.199 25.3026C106.076 25.418 106.025 25.5545 106.046 25.7122ZM106.004 22.3465C106.034 22.5673 106.107 22.7352 106.224 22.8504C106.343 22.9652 106.506 23.0087 106.712 22.9809C106.92 22.9528 107.064 22.8679 107.144 22.7263C107.224 22.5846 107.249 22.4034 107.219 22.1827C107.153 21.6927 106.919 21.4748 106.516 21.5291C106.108 21.5841 105.938 21.8565 106.004 22.3465Z" fill="#6A6A6A"/>
<path d="M112.54 24.2514L112.32 23.7512L112.262 23.759C112.169 23.9642 112.02 24.1337 111.816 24.2675C111.611 24.3988 111.369 24.4832 111.09 24.5209C110.613 24.5853 110.235 24.5065 109.958 24.2845C109.681 24.0601 109.51 23.7077 109.445 23.2274L109.088 20.5748L110.197 20.4252L110.518 22.8013C110.557 23.0948 110.639 23.3085 110.763 23.4424C110.887 23.5739 111.063 23.6242 111.291 23.5935C111.602 23.5516 111.812 23.4183 111.923 23.1935C112.033 22.9662 112.056 22.6124 111.991 22.1321L111.733 20.2182L112.843 20.0686L113.391 24.1366L112.54 24.2514Z" fill="#6A6A6A"/>
<path d="M115.505 18.6389C115.457 18.2775 115.634 18.0696 116.036 18.0153C116.439 17.9611 116.665 18.1146 116.713 18.4761C116.737 18.6483 116.704 18.7898 116.615 18.9006C116.528 19.0086 116.384 19.0762 116.183 19.1033C115.78 19.1576 115.554 19.0028 115.505 18.6389ZM117.353 23.6025L116.243 23.7521L115.694 19.6841L116.804 19.5345L117.353 23.6025Z" fill="#6A6A6A"/>
<path d="M122.151 22.9555L121.042 23.1051L120.721 20.7291C120.682 20.4356 120.6 20.2231 120.476 20.0916C120.352 19.9577 120.176 19.9061 119.948 19.9369C119.637 19.9787 119.427 20.1133 119.317 20.3405C119.206 20.5654 119.183 20.9179 119.248 21.3982L119.506 23.3121L118.396 23.4618L117.848 19.3938L118.696 19.2795L118.915 19.7797L118.977 19.7713C119.074 19.5582 119.224 19.3873 119.427 19.2588C119.631 19.1274 119.872 19.0431 120.148 19.0059C120.621 18.9421 120.998 19.0223 121.277 19.2464C121.557 19.468 121.729 19.8202 121.794 20.3029L122.151 22.9555Z" fill="#6A6A6A"/>
<path d="M122.432 17.705C122.384 17.3436 122.561 17.1357 122.963 17.0815C123.366 17.0272 123.592 17.1807 123.64 17.5422C123.664 17.7144 123.631 17.8559 123.542 17.9667C123.455 18.0747 123.311 18.1423 123.11 18.1694C122.707 18.2237 122.481 18.0689 122.432 17.705ZM124.28 22.6686L123.17 22.8182L122.621 18.7502L123.731 18.6006L124.28 22.6686Z" fill="#6A6A6A"/>
<circle cx="152.087" cy="40" r="2" fill="#ADDCFD"/>
<circle cx="183.087" cy="19" r="2" fill="#ADDCFD"/>
<defs>
<linearGradient id="paint0_linear_299_17184" x1="113.279" y1="46.2406" x2="112.954" y2="77.2188" gradientUnits="userSpaceOnUse">
<stop stop-color="#99DFF9" stop-opacity="0"/>
<stop offset="0.15" stop-color="#99DFF9" stop-opacity="0.21"/>
<stop offset="0.41" stop-color="#99DFF9" stop-opacity="0.55"/>
<stop offset="0.62" stop-color="#99DFF9" stop-opacity="0.79"/>
<stop offset="0.77" stop-color="#99DFF9" stop-opacity="0.94"/>
<stop offset="0.85" stop-color="#99DFF9"/>
</linearGradient>
</defs>
</svg>
