<svg width="40" height="40" viewBox="0 0 40 40" fill="none" xmlns="http://www.w3.org/2000/svg">
<path d="M25.0146 39.9999H32.1247C36.4747 39.9999 39.9997 36.4749 39.9997 32.1249V25.0049C39.9997 20.6549 36.4747 17.1299 32.1247 17.1299H25.0146C20.6646 17.1299 17.1396 20.6549 17.1396 25.0049V32.1299C17.1446 36.4749 20.6696 39.9999 25.0146 39.9999Z" fill="#FF7C4E"/>
<path d="M21.75 39.9999H28.86C33.21 39.9999 36.735 36.4749 36.735 32.1249V25.0049C36.735 20.6549 33.21 17.1299 28.86 17.1299H21.75C17.4 17.1299 13.875 20.6549 13.875 25.0049V32.1299C13.88 36.4749 17.405 39.9999 21.75 39.9999Z" fill="#FF9566"/>
<path d="M30.7996 24.4504C30.1096 23.7154 29.1746 23.3154 28.1596 23.3254C27.3996 23.3354 26.7096 23.5854 26.1046 24.0704C25.7996 24.3154 25.5246 24.6154 25.2796 24.9604C25.0296 24.6204 24.7446 24.3254 24.4346 24.0904C23.8196 23.6204 23.1196 23.3854 22.3596 23.3954C21.3446 23.4054 20.4146 23.8304 19.7446 24.5804C19.0796 25.3254 18.7246 26.3354 18.7346 27.4254C18.7496 28.5504 19.1746 29.5704 20.0746 30.6454C20.8796 31.6054 22.0346 32.5754 23.3746 33.7004C23.8296 34.0854 24.3496 34.5204 24.8846 34.9854C25.0246 35.1104 25.2096 35.1754 25.3946 35.1704C25.5796 35.1704 25.7596 35.0954 25.8996 34.9704C26.4246 34.4954 26.9346 34.0454 27.3796 33.6504C28.6896 32.4954 29.8196 31.5004 30.6046 30.5204C31.4796 29.4254 31.8846 28.3954 31.8696 27.2704C31.8646 26.1804 31.4846 25.1754 30.7996 24.4504Z" fill="#FAFEFF"/>
<path opacity="0.2" d="M31.4696 17.5796C31.2396 26.9246 23.6396 34.4447 14.2646 34.5396C14.0196 33.7796 13.8896 32.9696 13.8896 32.1246V25.0146C13.8896 20.6646 17.4146 17.1446 21.7596 17.1446H28.8796C29.7846 17.1396 30.6596 17.2946 31.4696 17.5796Z" fill="#FAFEFF"/>
<path d="M25.9253 7.87V14.99C25.9253 15.04 25.9253 15.1 25.9203 15.15C25.8403 19.425 22.3503 22.87 18.0553 22.87H10.9453C6.59531 22.87 3.07031 19.345 3.07031 14.99V7.87C3.07031 3.52 6.59531 0 10.9453 0H18.0603C22.4003 0 25.9253 3.52 25.9253 7.87Z" fill="#0A91DC"/>
<path d="M22.855 7.87V14.99C22.855 19.34 19.33 22.87 14.985 22.87H7.87C4.365 22.87 1.395 20.58 0.38 17.405C0.13 16.64 0 15.83 0 14.99V7.87C0 3.52 3.525 0 7.87 0H14.99C15.9 0 16.775 0.155 17.585 0.44C20.65 1.51 22.855 4.43 22.855 7.87Z" fill="#10A8E5"/>
<path d="M16.5951 9.17547H13.6901V6.26547C13.6901 5.48547 13.0601 4.85547 12.2851 4.85547H10.5851C9.81012 4.85547 9.18012 5.48547 9.18012 6.26547V9.17547H6.27512C5.50012 9.17547 4.87012 9.80547 4.87012 10.5855V12.2905C4.87012 13.0705 5.50012 13.7005 6.27512 13.7005H9.18012V16.6105C9.18012 17.3905 9.81012 18.0205 10.5851 18.0205H12.2851C13.0601 18.0205 13.6901 17.3905 13.6901 16.6105V13.7005H16.5951C17.3701 13.7005 18.0001 13.0705 18.0001 12.2905V10.5855C18.0001 9.80547 17.3701 9.17547 16.5951 9.17547Z" fill="#FAFEFF"/>
<path opacity="0.2" d="M17.585 0.44C17.355 9.785 9.755 17.305 0.375 17.4C0.13 16.64 0 15.83 0 14.99V7.87C0 3.52 3.525 0 7.87 0H14.99C15.895 0 16.77 0.155 17.585 0.44Z" fill="#FAFEFF"/>
<path d="M38.0397 4.17992H37.3747C37.0047 4.18492 36.7047 3.88492 36.6997 3.51492V3.50992V2.84492C36.7047 2.47492 36.4047 2.17492 36.0397 2.16992H36.0347C35.6647 2.16992 35.3597 2.46992 35.3597 2.84492V3.50992C35.3597 3.87992 35.0647 4.17992 34.6947 4.17992H34.6897H34.0197C33.6497 4.17992 33.3447 4.47992 33.3447 4.85492C33.3447 5.22492 33.6447 5.52992 34.0197 5.52992H34.6847C35.0547 5.52992 35.3597 5.82992 35.3597 6.20492V6.86992C35.3597 7.23992 35.6597 7.54492 36.0347 7.54492C36.4047 7.54492 36.7047 7.24992 36.7047 6.87992V6.87492V6.20492C36.7047 5.83492 37.0047 5.52992 37.3797 5.52992H38.0447C38.4147 5.52992 38.7197 5.22992 38.7197 4.85492C38.7147 4.48492 38.4147 4.17992 38.0397 4.17992Z" fill="#ADDCFD"/>
<path d="M6.07976 35.2103H5.41476C5.04476 35.2153 4.74476 34.9153 4.73976 34.5453V34.5403V33.8703C4.74476 33.5003 4.44477 33.2003 4.07977 33.1953H4.07476C3.69976 33.2003 3.39977 33.5003 3.39977 33.8753V34.5403C3.39977 34.9103 3.10477 35.2103 2.73477 35.2103H2.72977H2.05977C1.68977 35.2103 1.38477 35.5103 1.38477 35.8853C1.38477 36.2553 1.68477 36.5603 2.05977 36.5603H2.72477C3.09477 36.5603 3.39977 36.8603 3.39977 37.2353V37.9003C3.39977 38.2703 3.69976 38.5753 4.07476 38.5753C4.44476 38.5753 4.74476 38.2803 4.74476 37.9103V37.9053V37.2353C4.74476 36.8653 5.04476 36.5603 5.41976 36.5603H6.08476C6.45476 36.5603 6.75976 36.2603 6.75976 35.8853C6.75476 35.5103 6.45476 35.2103 6.07976 35.2103Z" fill="#ADDCFD"/>
<path d="M30.8454 12.5952C31.2762 12.5952 31.6254 12.2459 31.6254 11.8152C31.6254 11.3844 31.2762 11.0352 30.8454 11.0352C30.4146 11.0352 30.0654 11.3844 30.0654 11.8152C30.0654 12.2459 30.4146 12.5952 30.8454 12.5952Z" fill="#ADDCFD"/>
<path d="M9.57004 28.5698C10.0008 28.5698 10.35 28.2205 10.35 27.7898C10.35 27.359 10.0008 27.0098 9.57004 27.0098C9.13926 27.0098 8.79004 27.359 8.79004 27.7898C8.79004 28.2205 9.13926 28.5698 9.57004 28.5698Z" fill="#ADDCFD"/>
</svg>
