<svg width="205" height="167" viewBox="0 0 205 167" fill="none" xmlns="http://www.w3.org/2000/svg">
<g clip-path="url(#clip0_158_73879)">
<path d="M204.91 133.155C204.018 146.911 196.372 159.527 175.794 164.728C155.119 169.956 135.204 158.617 114.812 158.038C114.158 158.02 113.513 158.011 112.876 158.011C112.222 158.02 111.568 158.029 110.914 158.057C109.72 158.093 108.527 158.158 107.334 158.25C106.918 158.277 106.494 158.305 106.07 158.341C105.504 158.387 104.938 158.443 104.373 158.498C102.013 158.727 99.6526 159.003 97.2925 159.27C89.841 160.124 82.3895 160.887 74.9203 159.646C74.8585 159.637 74.7878 159.628 74.7259 159.61C67.6456 158.387 61.7852 155.089 57.5689 148.813C53.7503 143.134 51.1516 136.105 45.574 132.062C38.2109 126.723 28.2844 128.607 19.8076 125.749C15.6797 124.352 12.0998 121.834 9.16513 118.609C4.45381 113.445 1.41311 106.452 0.431949 99.2943C-0.849743 89.9217 0.873912 80.347 3.66712 71.3695C13.5406 39.6314 37.5391 12.3039 67.6368 2.44437C81.6382 -2.14084 93.9071 -0.404159 105.849 8.74788C112.24 13.6455 118.127 19.4161 125.118 23.2662C144.202 33.7965 184.023 30.8837 183.555 63.1823C183.458 69.7431 183.13 82.1296 189.097 88.8282C196.92 97.6127 206.007 116.248 204.91 133.155Z" fill="url(#paint0_linear_158_73879)"/>
<path d="M70.3349 104.053L69.3184 133.678C70.2023 134.211 71.0951 134.762 71.979 135.323C73.2872 136.141 74.56 137.004 75.8241 137.886C79.3156 140.349 82.6391 143.014 85.9096 145.743L86.6521 145.449L92.1855 143.225C92.1855 143.225 91.39 142.756 90.2409 141.617C88.0399 139.43 84.5484 134.781 82.8778 126.217C81.0834 117 75.5589 109.732 72.474 106.268C71.1834 104.834 70.3349 104.053 70.3349 104.053Z" fill="#1D7EDD"/>
<path d="M68.2034 91.9432C68.999 95.095 65.5075 104.412 66.2765 107.573C67.0455 110.734 72.1546 107.812 74.4528 110.027C76.751 112.241 80.2513 113.316 83.1241 112.012C85.9261 110.734 87.526 107.537 87.968 104.385C88.41 101.233 87.9238 98.0446 87.7382 94.8652C87.1548 84.9965 89.5768 74.9715 94.5709 66.5546C95.0129 65.8103 95.0129 64.9741 95.0836 64.1012C95.1543 63.2282 94.8184 62.2542 94.0583 61.8591C93.3158 61.4732 92.4142 61.7304 91.6363 62.0245C82.5937 65.4243 74.824 72.3711 70.2541 81.1739C68.8575 83.8479 67.4609 89.012 68.2034 91.9432Z" fill="#60304B"/>
<path d="M46.9822 73.3169C46.9822 73.3169 46.6552 82.5792 45.8154 87.7801C57.3418 98.4299 65.6507 100.635 70.1146 100.856C70.6272 98.5126 70.972 96.8494 71.0869 96.2062L46.9822 73.3169Z" fill="#E5A589"/>
<path d="M44.9045 91.0244C43.393 92.8438 47.0701 117.203 54.6984 121.614C63.0957 125.942 66.6667 115.77 68.6644 107.197C69.2301 104.798 69.7163 102.639 70.1052 100.856C65.6502 100.627 57.3325 98.4306 45.8061 87.7808C45.5586 89.3796 45.2581 90.5925 44.9045 91.0244Z" fill="#F5BB9C"/>
<path d="M74.7278 159.609C67.6475 158.387 61.7871 155.088 57.5708 148.812C53.7522 143.134 51.1535 136.104 45.5759 132.061C38.2128 126.722 28.2863 128.606 19.8095 125.748C15.6815 124.352 12.1016 121.834 9.16699 118.609C15.5136 106.525 26.1826 91.0332 28.6752 89.2322C33.8462 85.4831 44.0644 87.6241 49.0497 90.3899C49.1028 90.4175 49.1381 90.4451 49.1823 90.4818C49.3768 90.638 49.1823 91.3088 48.8818 92.1082C48.3249 93.4958 47.4233 95.3335 47.6266 95.5816L47.9448 96.0135L47.9713 96.0319L49.7657 98.421L50.4728 99.3398L52.7534 102.335L55.2284 105.597C57.6945 108.869 60.9739 111.212 63.7317 111.405C65.42 111.533 66.9139 110.835 67.9127 109.071C68.2044 108.538 68.4607 107.922 68.6729 107.196L68.9027 106.167L69.0618 105.469L69.1413 105.175L69.3888 104.109L69.5214 103.493C69.8043 103.668 70.0783 103.861 70.3346 104.054C70.3523 104.054 71.8462 104.339 72.4649 106.259C77.6359 122.385 76.363 147.076 74.7278 159.609Z" fill="#10A8E5"/>
<path d="M71.069 104.651C71.069 104.651 73.7738 118.094 62.0707 116.596C50.3763 115.099 42.4033 94.4697 42.4033 94.4697" stroke="#1D7EDD" stroke-width="0.584753" stroke-miterlimit="10" stroke-linecap="round"/>
<path d="M78.8472 98.0074C74.8607 99.0457 71.4575 99.0274 65.4999 97.0334C57.023 94.2216 50.2345 87.5689 47.0347 78.9407C46.5839 78.2147 43.7288 78.7385 39.5832 73.3171C35.4376 67.8957 38.4076 55.7665 43.331 56.3913C48.2545 57.0162 50.703 64.5969 50.703 64.5969L53.0984 52.6056C54.3889 52.3575 57.5534 51.5029 58.5699 50.6392C53.8851 67.6844 58.8086 95.5448 78.8472 98.0074Z" fill="#F5BB9C"/>
<path d="M98.0993 61.1235C97.4894 65.1298 96.2077 69.0075 95.2796 73.317C94.9614 74.7964 94.4929 76.6618 93.8476 78.7292C93.4057 80.1811 92.8665 81.7156 92.2389 83.2777C91.0898 86.1262 89.6313 89.0483 87.8104 91.5844C86.4934 93.4221 84.8404 94.9659 83.0019 96.1236C79.422 98.4025 75.0907 99.2662 70.8921 98.2554C54.3627 94.2859 52.586 65.5433 56.599 50.9423C60.8507 47.6068 64.4129 40.6233 64.4129 40.6233C65.8007 42.1946 67.6481 28.733 76.1691 30.5708C83.7444 32.2064 97.0121 48.6911 97.0121 48.6911C98.6385 53.2579 98.6915 57.255 98.0993 61.1235Z" fill="#FCCAB4"/>
<path d="M83.5228 71.7184C83.5582 73.2162 84.8045 75.789 83.4433 77.443C83.2311 77.7003 83.0013 77.9484 82.7184 78.0771C81.7726 78.5181 80.6766 78.1873 80.0136 77.4155C79.3507 76.6436 79.0943 75.5318 79.1474 74.4291C79.2093 72.9865 80.7208 68.4839 81.9494 67.5467C83.6024 66.2878 83.4875 70.3768 83.5228 71.7184Z" fill="#D8615D"/>
<path d="M25.899 114.299C26.0139 114.336 26.12 114.372 26.226 114.4C36.4796 117.607 45.7873 110.679 50.2069 100.038C50.3042 99.8082 50.3837 99.5785 50.4721 99.3396C52.3637 94.1939 51.7538 88.4417 50.4456 83.0754C49.3407 78.6005 46.8834 78.5913 46.6978 78.5178C43.3919 77.3049 40.634 74.5666 39.3081 71.2035C37.8497 67.5004 38.1414 63.099 40.1125 59.6716C40.5722 58.8813 41.1997 58.1738 41.9953 57.7787C44.2228 56.6852 46.0348 58.3668 47.4137 59.9748C48.6247 61.3807 49.5263 64.8357 50.6047 66.3426C52.3991 62.7223 55.0774 56.823 56.5182 53.0465C56.2353 54.2686 56.2 56.0052 57.3756 56.3452C57.9766 56.5198 58.5954 56.189 59.1169 55.8582C65.8524 51.5671 69.5826 43.7474 72.968 36.3412C74.1348 39.9432 76.1943 43.3339 79.2262 45.4565C82.2492 47.5791 85.7319 48.9023 89.2588 49.8855C90.2753 50.1704 91.389 50.4276 92.326 49.959C93.2718 49.4904 93.7403 47.9742 92.9271 47.2943C93.4751 47.7997 94.1204 48.4153 94.8187 48.9666C96.9931 50.6941 98.372 53.3221 98.3986 56.1615C98.4162 58.6608 98.0892 61.2337 97.3732 64.8173C99.8924 64.5876 102.341 62.9979 103.746 54.0388C104.082 51.8887 106.115 57.0068 108.767 51.8152C109.209 50.9422 110.553 43.9863 105.965 35.7348C102.562 29.5875 95.8794 22.7418 83.1066 17.1366C76.1325 14.0768 58.012 10.8791 42.6317 26.9411C39.043 30.6901 35.5957 35.4867 32.4842 41.588C27.2072 51.9162 18.7922 60.0299 13.3296 70.2295C-2.38662 99.5969 13.6124 110.706 25.899 114.299Z" fill="#60304B"/>
<path d="M68.2487 53.9196C68.673 54.3331 68.8321 54.0667 69.1062 53.7542C69.389 53.4418 70.4586 51.7695 71.9612 51.1446C73.0485 50.6117 74.3036 50.5657 75.4174 51.0344C77.1499 51.5949 76.7786 50.2441 75.8859 50.0144C71.2894 48.3972 68.4344 52.6424 68.4344 52.6424C68.4344 52.6424 67.8245 53.5153 68.2487 53.9196Z" fill="#60304B"/>
<path d="M90.5764 53.0925C90.3377 53.6347 90.6029 53.7266 91.0272 53.8736C92.2823 54.1768 93.4403 54.8109 94.3949 55.7205C95.2612 56.5843 95.7385 57.7972 95.712 59.0469C95.8445 60.8938 96.9318 60.0669 96.8257 59.1112C96.6754 54.039 91.8404 52.7709 91.8404 52.7709C91.8404 52.7709 90.815 52.5504 90.5764 53.0925Z" fill="#60304B"/>
<path d="M76.6991 59.3591C77.9543 60.1769 76.8052 63.053 76.3721 64.2659C75.939 65.4788 75.1081 66.0302 74.1888 65.0378C73.2695 64.0454 75.0462 60.1769 75.5147 59.3407C75.5147 59.3407 75.8506 58.817 76.6991 59.3591Z" fill="#60304B"/>
<path d="M91.0098 63.623C92.4153 64.1375 91.8054 67.225 91.6198 68.5022C91.4341 69.7795 90.6828 70.4778 89.6398 69.7059C88.5879 68.9341 89.5779 64.7716 89.8961 63.8619C89.8961 63.8619 90.1259 63.2738 91.0098 63.623Z" fill="#60304B"/>
<path d="M46.982 73.3169C46.982 73.3169 48.9267 65.7913 43.6143 60.6548" stroke="#60304B" stroke-width="0.584753" stroke-miterlimit="10" stroke-linecap="round" stroke-linejoin="round"/>
<path d="M43.499 68.98C43.499 68.98 43.7288 65.9936 46.248 65.1299" stroke="#60304B" stroke-width="0.584753" stroke-miterlimit="10" stroke-linecap="round" stroke-linejoin="round"/>
<path d="M110.296 158.075C108.325 158.158 106.354 158.305 104.374 158.498C102.014 158.727 99.6536 159.003 97.2935 159.27C88.1802 151.615 87.2786 137.207 97.9034 132.218L110.296 158.075Z" fill="#10A8E5"/>
<path d="M204.912 133.154C204.019 146.91 196.373 159.526 175.795 164.727C155.12 169.955 135.206 158.616 114.813 158.038C114.159 158.019 113.514 158.01 112.878 158.01C112.224 158.01 111.569 158.028 110.915 158.056C109.722 158.093 108.529 158.157 107.335 158.249C106.911 158.277 106.487 158.304 106.071 158.341C105.506 158.387 104.94 158.442 104.374 158.497C89.4978 153.434 85.0959 138.236 97.904 132.217C109.183 126.915 179.234 125.987 204.912 133.154Z" fill="#7BD3FF"/>
<path d="M70.8379 88.7642C70.8379 88.7642 71.8367 91.4932 75.1249 90.5008" stroke="#F5BB9C" stroke-width="0.584753" stroke-miterlimit="10" stroke-linecap="round" stroke-linejoin="round"/>
<path d="M99.3095 92.3099C94.881 88.9193 93.6082 80.8147 96.6047 72.9124C99.5128 65.2214 105.488 60.2594 110.827 60.627C111.198 60.9118 111.543 61.2426 111.87 61.5918L114.142 55.1137L110.447 53.7078C102.156 50.3079 91.752 57.2547 87.2086 69.2369C82.6652 81.2099 85.6971 93.6699 93.9883 97.0697L98.7792 98.8891L101.113 92.2364C100.503 92.3099 99.9017 92.3467 99.3095 92.3099Z" fill="#FF9566"/>
<path d="M98.4908 96.3825L95.4268 95.2202L91.1392 107.434L94.2032 108.597L98.4908 96.3825Z" fill="#60304B"/>
<path d="M114.84 55.3709C106.548 51.971 96.1445 58.9178 91.6012 70.9C87.0578 82.873 90.0896 95.333 98.3809 98.7328C106.672 102.133 117.076 95.1859 121.619 83.2037C126.163 71.2307 123.131 58.7707 114.84 55.3709ZM99.309 92.3098C94.8805 88.9192 93.6077 80.8147 96.6042 72.9123C99.5123 65.2213 105.488 60.2593 110.827 60.6269C115.255 64.0175 116.528 72.1221 113.531 80.0244C110.623 87.7063 104.648 92.6682 99.309 92.3098Z" fill="#FF7C4E"/>
<path d="M113.257 61.1778C112.47 60.8562 111.657 60.6816 110.826 60.6265C115.255 64.0171 116.527 72.1216 113.531 80.024C110.623 87.715 104.648 92.677 99.3086 92.3094C99.8566 92.7321 100.449 93.0905 101.094 93.357C106.937 95.7644 114.388 90.5084 117.747 81.6229C121.106 72.7281 119.1 63.5761 113.257 61.1778Z" fill="#FF9566"/>
<path d="M84.5656 134.799L81.9138 133.797C79.9957 133.071 79.0057 130.866 79.7129 128.872L87.5179 106.626C88.2162 104.632 90.3376 103.603 92.2558 104.338L94.9075 105.34L84.5656 134.799Z" fill="#FF9566"/>
<path d="M85.0961 135.001L82.4443 134L92.7863 104.541L95.438 105.542C97.3562 106.268 98.3461 108.473 97.639 110.467L89.8339 132.713C89.1356 134.707 87.0142 135.727 85.0961 135.001Z" fill="#FF7C4E"/>
<path opacity="0.5" d="M115.504 80.7224C112.455 88.7626 105.843 93.743 100.053 92.7322C99.8409 92.6127 99.6376 92.4657 99.452 92.3095C95.0147 88.928 93.7418 80.8235 96.7295 72.9211C99.6465 65.2209 105.613 60.259 110.961 60.6265C111.226 60.6449 111.482 60.6725 111.747 60.7184C116.918 63.9161 118.642 72.4617 115.504 80.7224Z" fill="white"/>
<path opacity="0.5" fill-rule="evenodd" clip-rule="evenodd" d="M155.218 90.8121C153.397 89.0019 151.824 87.4398 151.824 85.8685V82.6249C153.167 82.1011 153.918 81.513 153.918 80.8882C153.918 80.7871 153.901 80.6768 153.857 80.5758V79.4455C153.857 79.4455 153.247 77.1116 153.857 69.5033C154.033 67.252 137.513 66.4985 132.43 66.4985C123.37 66.4985 111.322 68.2076 111.004 69.5033C110.641 70.9643 110.933 79.1239 110.933 79.1239V80.8882C110.933 81.513 111.693 82.1011 113.037 82.6249V85.8685C113.037 89.5624 104.304 93.2104 104.304 100.203V138.64C104.304 145.136 120.533 147.985 135.55 147.443C148.5 146.974 160.557 143.988 160.557 138.64V100.203C160.557 96.1783 157.666 93.2655 155.218 90.8121Z" fill="white"/>
<path d="M110.932 80.2728C110.57 80.2728 110.27 79.9604 110.27 79.5836V79.1242C110.27 78.7475 110.57 78.4351 110.932 78.4351C111.295 78.4351 111.595 78.7475 111.595 79.1242V79.5836C111.595 79.9696 111.295 80.2728 110.932 80.2728Z" fill="#10A8E5"/>
<path d="M113.037 83.7737C112.675 83.7737 112.374 83.4705 112.374 83.0937C112.374 83.0937 112.374 83.0937 112.365 83.0937C112.029 82.9467 111.87 82.5424 112.012 82.1932C112.153 81.844 112.542 81.6787 112.878 81.8257C113.002 81.8808 113.134 81.9359 113.267 81.9819L113.691 82.1473V83.0845C113.7 83.4613 113.399 83.7737 113.037 83.7737Z" fill="#10A8E5"/>
<path d="M131.935 148.196C131.573 148.196 131.254 147.884 131.254 147.507C131.254 147.13 131.537 146.818 131.9 146.818H132.775C132.775 146.818 132.775 146.818 132.784 146.818C133.146 146.818 133.447 147.121 133.447 147.498C133.447 147.875 133.155 148.187 132.792 148.196H131.935ZM128.391 148.132C128.382 148.132 128.373 148.132 128.364 148.132L127.48 148.095C127.118 148.077 126.835 147.755 126.844 147.378C126.853 147.002 127.162 146.68 127.533 146.717L128.408 146.754C128.771 146.763 129.062 147.084 129.045 147.47C129.036 147.847 128.744 148.132 128.391 148.132ZM136.302 148.104C135.948 148.104 135.656 147.81 135.639 147.443C135.621 147.066 135.904 146.744 136.275 146.726L137.15 146.68C137.522 146.653 137.822 146.956 137.849 147.333C137.866 147.709 137.583 148.04 137.221 148.058L136.337 148.104C136.319 148.104 136.311 148.104 136.302 148.104ZM123.997 147.875C123.98 147.875 123.962 147.875 123.944 147.875C123.653 147.847 123.352 147.82 123.06 147.792C122.698 147.755 122.424 147.424 122.459 147.038C122.495 146.662 122.813 146.386 123.184 146.414C123.476 146.441 123.759 146.469 124.05 146.487C124.413 146.515 124.687 146.845 124.66 147.231C124.634 147.599 124.342 147.875 123.997 147.875ZM140.695 147.81C140.359 147.81 140.067 147.544 140.032 147.185C139.996 146.809 140.271 146.469 140.633 146.441C140.925 146.414 141.216 146.386 141.499 146.358C141.862 146.322 142.189 146.597 142.224 146.974C142.259 147.351 141.994 147.691 141.632 147.728C141.34 147.755 141.04 147.783 140.748 147.81C140.73 147.81 140.712 147.81 140.695 147.81ZM119.622 147.388C119.595 147.388 119.56 147.388 119.534 147.378C119.242 147.333 118.941 147.296 118.659 147.25C118.296 147.195 118.049 146.845 118.102 146.469C118.155 146.092 118.491 145.835 118.853 145.89C119.136 145.936 119.428 145.973 119.719 146.019C120.082 146.074 120.338 146.423 120.285 146.8C120.232 147.13 119.949 147.388 119.622 147.388ZM145.061 147.287C144.734 147.287 144.451 147.038 144.407 146.698C144.354 146.322 144.611 145.973 144.973 145.917C145.265 145.871 145.548 145.835 145.83 145.78C146.193 145.724 146.529 145.982 146.591 146.358C146.652 146.735 146.396 147.084 146.034 147.149C145.742 147.195 145.45 147.241 145.159 147.287C145.123 147.287 145.097 147.287 145.061 147.287ZM115.291 146.607C115.247 146.607 115.202 146.607 115.149 146.588C114.858 146.524 114.566 146.46 114.274 146.386C113.921 146.303 113.7 145.927 113.779 145.559C113.859 145.192 114.212 144.953 114.575 145.044C114.849 145.109 115.132 145.173 115.423 145.237C115.786 145.311 116.007 145.679 115.936 146.055C115.874 146.386 115.6 146.607 115.291 146.607ZM149.393 146.496C149.083 146.496 148.809 146.276 148.747 145.954C148.668 145.577 148.898 145.219 149.26 145.136C149.543 145.072 149.826 145.008 150.109 144.943C150.462 144.861 150.825 145.081 150.904 145.458C150.984 145.826 150.763 146.202 150.409 146.285C150.126 146.358 149.835 146.423 149.534 146.487C149.49 146.496 149.446 146.496 149.393 146.496ZM111.048 145.412C110.977 145.412 110.906 145.403 110.836 145.375C110.544 145.274 110.261 145.164 109.987 145.063C109.642 144.925 109.475 144.53 109.598 144.172C109.731 143.813 110.111 143.639 110.456 143.767C110.721 143.868 110.986 143.969 111.269 144.07C111.614 144.19 111.799 144.585 111.684 144.943C111.578 145.237 111.322 145.412 111.048 145.412ZM153.644 145.311C153.37 145.311 153.105 145.127 153.017 144.842C152.902 144.484 153.087 144.089 153.441 143.969C153.715 143.878 153.989 143.776 154.254 143.675C154.599 143.547 154.979 143.73 155.103 144.08C155.227 144.438 155.05 144.833 154.714 144.962C154.44 145.063 154.157 145.173 153.865 145.274C153.786 145.302 153.715 145.311 153.644 145.311ZM107.053 143.51C106.929 143.51 106.805 143.473 106.69 143.4C106.416 143.216 106.16 143.032 105.921 142.839C105.629 142.609 105.576 142.168 105.806 141.874C106.036 141.58 106.452 141.516 106.734 141.755C106.947 141.92 107.167 142.086 107.406 142.251C107.716 142.453 107.804 142.885 107.601 143.207C107.486 143.4 107.274 143.51 107.053 143.51ZM157.657 143.464C157.436 143.464 157.215 143.345 157.092 143.133C156.897 142.812 156.994 142.38 157.313 142.187C157.56 142.031 157.781 141.874 158.002 141.709C158.294 141.479 158.709 141.553 158.93 141.856C159.142 142.159 159.08 142.591 158.789 142.821C158.55 143.005 158.285 143.188 158.011 143.363C157.896 143.427 157.772 143.464 157.657 143.464ZM160.459 140.11C160.406 140.11 160.353 140.101 160.3 140.092C159.947 140 159.726 139.632 159.814 139.256C159.858 139.053 159.885 138.842 159.885 138.631V138.52C159.885 138.144 160.185 137.831 160.548 137.831C160.91 137.831 161.211 138.144 161.211 138.52V138.64C161.211 138.962 161.175 139.283 161.105 139.586C161.034 139.899 160.76 140.11 160.459 140.11ZM104.374 140.064C104.065 140.064 103.791 139.844 103.729 139.513C103.676 139.228 103.641 138.934 103.641 138.64V138.474C103.641 138.098 103.941 137.785 104.304 137.785C104.666 137.785 104.967 138.098 104.967 138.474V138.64C104.967 138.842 104.984 139.044 105.028 139.237C105.099 139.614 104.869 139.972 104.516 140.055C104.463 140.055 104.418 140.064 104.374 140.064ZM160.548 135.552C160.185 135.552 159.885 135.24 159.885 134.863V133.944C159.885 133.568 160.185 133.255 160.548 133.255C160.91 133.255 161.211 133.568 161.211 133.944V134.863C161.211 135.24 160.919 135.552 160.548 135.552ZM104.304 135.497C103.941 135.497 103.641 135.185 103.641 134.808V133.889C103.641 133.513 103.941 133.2 104.304 133.2C104.666 133.2 104.967 133.513 104.967 133.889V134.808C104.967 135.194 104.666 135.497 104.304 135.497ZM160.548 130.986C160.185 130.986 159.885 130.673 159.885 130.296V129.387C159.885 129.01 160.185 128.698 160.548 128.698C160.91 128.698 161.211 129.01 161.211 129.387V130.296C161.211 130.673 160.919 130.986 160.548 130.986ZM104.304 130.931C103.941 130.931 103.641 130.618 103.641 130.241V129.332C103.641 128.955 103.941 128.642 104.304 128.642C104.666 128.642 104.967 128.955 104.967 129.332V130.241C104.967 130.618 104.666 130.931 104.304 130.931ZM160.548 126.41C160.185 126.41 159.885 126.097 159.885 125.72V124.802C159.885 124.425 160.185 124.112 160.548 124.112C160.91 124.112 161.211 124.425 161.211 124.802V125.72C161.211 126.106 160.919 126.41 160.548 126.41ZM104.304 126.364C103.941 126.364 103.641 126.051 103.641 125.675V124.756C103.641 124.379 103.941 124.066 104.304 124.066C104.666 124.066 104.967 124.379 104.967 124.756V125.675C104.967 126.051 104.666 126.364 104.304 126.364ZM160.548 121.843C160.185 121.843 159.885 121.53 159.885 121.154V120.235C159.885 119.858 160.185 119.546 160.548 119.546C160.91 119.546 161.211 119.858 161.211 120.235V121.154C161.211 121.53 160.919 121.843 160.548 121.843ZM104.304 121.788C103.941 121.788 103.641 121.475 103.641 121.098V120.18C103.641 119.803 103.941 119.49 104.304 119.49C104.666 119.49 104.967 119.803 104.967 120.18V121.098C104.967 121.484 104.666 121.788 104.304 121.788ZM160.548 117.267C160.185 117.267 159.885 116.954 159.885 116.578V115.659C159.885 115.282 160.185 114.97 160.548 114.97C160.91 114.97 161.211 115.282 161.211 115.659V116.578C161.211 116.964 160.919 117.267 160.548 117.267ZM104.304 117.221C103.941 117.221 103.641 116.908 103.641 116.532V115.622C103.641 115.245 103.941 114.933 104.304 114.933C104.666 114.933 104.967 115.245 104.967 115.622V116.532C104.967 116.908 104.666 117.221 104.304 117.221ZM160.548 112.7C160.185 112.7 159.885 112.388 159.885 112.011V111.101C159.885 110.724 160.185 110.412 160.548 110.412C160.91 110.412 161.211 110.724 161.211 111.101V112.011C161.211 112.388 160.919 112.7 160.548 112.7ZM104.304 112.645C103.941 112.645 103.641 112.332 103.641 111.956V111.037C103.641 110.66 103.941 110.348 104.304 110.348C104.666 110.348 104.967 110.66 104.967 111.037V111.956C104.967 112.342 104.666 112.645 104.304 112.645ZM160.548 108.124C160.185 108.124 159.885 107.811 159.885 107.435V106.516C159.885 106.139 160.185 105.827 160.548 105.827C160.91 105.827 161.211 106.139 161.211 106.516V107.435C161.211 107.821 160.919 108.124 160.548 108.124ZM104.304 108.078C103.941 108.078 103.641 107.766 103.641 107.389V106.47C103.641 106.093 103.941 105.781 104.304 105.781C104.666 105.781 104.967 106.093 104.967 106.47V107.389C104.967 107.766 104.666 108.078 104.304 108.078ZM160.548 103.557C160.185 103.557 159.885 103.245 159.885 102.868V101.949C159.885 101.572 160.185 101.26 160.548 101.26C160.91 101.26 161.211 101.572 161.211 101.949V102.868C161.211 103.245 160.919 103.557 160.548 103.557ZM104.304 103.502C103.941 103.502 103.641 103.19 103.641 102.813V101.894C103.641 101.517 103.941 101.205 104.304 101.205C104.666 101.205 104.967 101.517 104.967 101.894V102.813C104.967 103.199 104.666 103.502 104.304 103.502ZM160.336 99.0086C160.035 99.0086 159.761 98.7973 159.69 98.4849C159.628 98.2092 159.549 97.9427 159.461 97.6854C159.337 97.3271 159.514 96.932 159.858 96.8033C160.203 96.6747 160.583 96.8584 160.707 97.2168C160.813 97.52 160.901 97.8416 160.981 98.1633C161.069 98.5308 160.848 98.9075 160.495 98.9994C160.442 98.9994 160.389 99.0086 160.336 99.0086ZM104.533 98.9535C104.48 98.9535 104.427 98.9443 104.374 98.9351C104.021 98.8432 103.8 98.4665 103.888 98.0989C103.968 97.7773 104.056 97.4649 104.162 97.1525C104.286 96.7941 104.666 96.6103 105.011 96.739C105.355 96.8676 105.532 97.2627 105.408 97.6211C105.32 97.8784 105.241 98.1541 105.17 98.4205C105.099 98.7513 104.825 98.9535 104.533 98.9535ZM158.347 94.9747C158.152 94.9747 157.949 94.8828 157.825 94.7083C157.648 94.4785 157.472 94.2488 157.286 94.0283C157.047 93.7343 157.083 93.3024 157.357 93.0543C157.64 92.8062 158.055 92.8429 158.294 93.1278C158.488 93.3667 158.683 93.6148 158.868 93.8629C159.089 94.1661 159.036 94.598 158.753 94.8277C158.638 94.9288 158.488 94.9747 158.347 94.9747ZM106.531 94.9288C106.39 94.9288 106.248 94.8829 106.124 94.7818C105.833 94.5521 105.789 94.111 106.01 93.8169C106.195 93.5689 106.39 93.3208 106.593 93.0818C106.832 92.797 107.256 92.7602 107.53 93.0083C107.804 93.2564 107.839 93.6883 107.601 93.9823C107.415 94.2029 107.238 94.4326 107.061 94.6623C106.929 94.8369 106.734 94.9288 106.531 94.9288ZM155.341 91.6392C155.174 91.6392 155.006 91.5749 154.882 91.4462L154.245 90.8122C153.98 90.5457 153.971 90.1139 154.228 89.8382C154.484 89.5625 154.899 89.5625 155.165 89.8198L155.801 90.4539C156.066 90.7203 156.075 91.1522 155.819 91.4279C155.686 91.5657 155.518 91.6392 155.341 91.6392ZM109.545 91.6025C109.368 91.6025 109.201 91.5289 109.068 91.3911C108.812 91.1154 108.82 90.6836 109.086 90.4171L109.722 89.7831C109.987 89.5166 110.403 89.5258 110.659 89.8014C110.915 90.0771 110.906 90.509 110.641 90.7755L110.005 91.4095C109.881 91.5381 109.713 91.6025 109.545 91.6025ZM152.38 88.2761C152.159 88.2761 151.947 88.1658 151.815 87.9545C151.62 87.6237 151.47 87.3205 151.364 87.0081C151.24 86.6497 151.417 86.2546 151.762 86.1259C152.106 85.9973 152.486 86.1811 152.61 86.5394C152.69 86.7508 152.796 86.9805 152.946 87.2286C153.14 87.5502 153.043 87.9729 152.734 88.175C152.619 88.2393 152.495 88.2761 152.38 88.2761ZM112.506 88.2302C112.391 88.2302 112.268 88.1934 112.162 88.1291C111.852 87.9269 111.755 87.5042 111.941 87.1826C112.082 86.9437 112.188 86.714 112.259 86.5027C112.383 86.1443 112.754 85.9513 113.099 86.08C113.443 86.2086 113.629 86.5946 113.505 86.9529C113.399 87.2653 113.258 87.5778 113.063 87.9086C112.94 88.1107 112.727 88.2302 112.506 88.2302Z" fill="#10A8E5"/>
<path d="M151.823 83.7737C151.461 83.7737 151.16 83.4613 151.16 83.0845V82.1473L151.584 81.9819C151.717 81.9267 151.85 81.8716 151.973 81.8257C152.309 81.6787 152.698 81.844 152.84 82.1932C152.981 82.5424 152.822 82.9467 152.486 83.0937C152.486 83.0937 152.486 83.0937 152.477 83.0937C152.477 83.4705 152.186 83.7737 151.823 83.7737Z" fill="#10A8E5"/>
<path d="M153.855 80.5941C153.493 80.5941 153.192 80.2817 153.192 79.905V79.4455C153.192 79.0688 153.493 78.7563 153.855 78.7563C154.218 78.7563 154.518 79.0688 154.518 79.4455V79.905C154.518 80.2817 154.218 80.5941 153.855 80.5941Z" fill="#10A8E5"/>
<path opacity="0.5" fill-rule="evenodd" clip-rule="evenodd" d="M132.431 144.879C146.352 144.879 157.711 142.04 157.711 138.548C157.711 135.065 146.352 132.217 132.431 132.217C118.509 132.217 107.15 135.056 107.15 138.548C107.15 142.03 118.509 144.879 132.431 144.879Z" fill="#7BD3FF"/>
<path d="M133.411 73.2063H132.527C132.165 73.2063 131.864 72.8939 131.864 72.5171C131.864 72.1404 132.165 71.828 132.527 71.828H133.341C133.703 71.828 134.039 72.1404 134.039 72.5171C134.039 72.8939 133.774 73.2063 133.411 73.2063ZM128.992 73.1604C128.983 73.1604 128.983 73.1604 128.974 73.1604L128.09 73.142C127.728 73.1328 127.436 72.8112 127.445 72.4344C127.454 72.0577 127.754 71.7728 128.125 71.7637L129.009 71.782C129.372 71.7912 129.663 72.1036 129.655 72.4896C129.646 72.8663 129.345 73.1604 128.992 73.1604ZM136.956 73.1512C136.593 73.1512 136.302 72.8571 136.293 72.4804C136.284 72.1036 136.576 71.782 136.938 71.7728L137.822 71.7453C138.167 71.7269 138.494 72.0301 138.503 72.4161C138.512 72.7928 138.229 73.1144 137.857 73.1236L136.973 73.1512C136.965 73.1512 136.965 73.1512 136.956 73.1512ZM124.572 72.995C124.563 72.995 124.545 72.995 124.537 72.995L123.653 72.9398C123.29 72.9214 123.007 72.5906 123.025 72.2139C123.052 71.8372 123.396 71.5523 123.723 71.5615L124.607 71.6166C124.97 71.635 125.253 71.9658 125.235 72.3426C125.217 72.7101 124.917 72.995 124.572 72.995ZM141.375 72.9582C141.031 72.9582 140.739 72.6733 140.712 72.315C140.686 71.9382 140.969 71.6075 141.331 71.5891L142.206 71.5339C142.586 71.5156 142.887 71.7912 142.913 72.1772C142.94 72.5539 142.666 72.8847 142.295 72.9123L141.402 72.9766C141.402 72.9582 141.393 72.9582 141.375 72.9582ZM120.161 72.655C120.144 72.655 120.117 72.655 120.099 72.655L119.215 72.5631C118.853 72.5263 118.588 72.1863 118.623 71.8096C118.659 71.4329 118.994 71.1572 119.348 71.194L120.223 71.2858C120.586 71.3226 120.851 71.6626 120.824 72.0393C120.789 72.3885 120.497 72.655 120.161 72.655ZM145.786 72.5723C145.45 72.5723 145.167 72.315 145.132 71.9566C145.088 71.5799 145.353 71.2399 145.715 71.194C146.007 71.1572 146.299 71.1204 146.582 71.0837C146.935 71.0377 147.28 71.3042 147.324 71.681C147.368 72.0577 147.112 72.4069 146.75 72.4528C146.458 72.4896 146.157 72.5263 145.866 72.5631C145.839 72.5631 145.813 72.5723 145.786 72.5723ZM115.777 72.0853C115.742 72.0853 115.706 72.0853 115.671 72.0761C115.362 72.0209 115.07 71.9658 114.787 71.9107C114.425 71.8372 114.195 71.4788 114.265 71.1021C114.336 70.7253 114.681 70.4772 115.043 70.5599C115.317 70.6151 115.6 70.6702 115.901 70.7161C116.263 70.7805 116.511 71.1296 116.449 71.5064C116.378 71.8464 116.095 72.0853 115.777 72.0853ZM150.153 71.828C149.852 71.828 149.578 71.6166 149.508 71.295C149.428 70.9275 149.649 70.5507 150.003 70.468C150.294 70.3945 150.568 70.321 150.833 70.2475C151.187 70.1464 151.549 70.3578 151.647 70.7253C151.744 71.0929 151.541 71.4696 151.187 71.5707C150.904 71.6534 150.612 71.7269 150.303 71.8004C150.25 71.8188 150.206 71.828 150.153 71.828ZM111.534 70.8632C111.419 70.8632 111.304 70.8356 111.198 70.7713C110.633 70.4221 110.341 69.9994 110.341 69.5124C110.341 69.1357 110.641 68.8232 111.004 68.8232C111.34 68.8232 111.623 69.0897 111.658 69.4205C111.684 69.4481 111.746 69.5032 111.87 69.5859C112.188 69.7789 112.285 70.2016 112.1 70.5324C111.976 70.7437 111.755 70.8632 111.534 70.8632Z" fill="#10A8E5"/>
<path d="M130.954 81.7613C130.954 81.7613 130.945 81.7613 130.954 81.7613L130.052 81.7429C129.69 81.7338 129.398 81.4213 129.407 81.0354C129.416 80.6587 129.708 80.3646 130.07 80.3646C130.07 80.3646 130.079 80.3646 130.088 80.3646L130.963 80.383C131.325 80.383 131.626 80.6954 131.617 81.0813C131.608 81.4581 131.316 81.7613 130.954 81.7613ZM134.49 81.7521C134.127 81.7521 133.836 81.4489 133.827 81.0722C133.818 80.6954 134.11 80.383 134.481 80.3738L135.356 80.3554C135.365 80.3554 135.365 80.3554 135.374 80.3554C135.736 80.3554 136.028 80.6495 136.037 81.0262C136.045 81.403 135.754 81.7246 135.391 81.7337L134.499 81.7521C134.499 81.7521 134.49 81.7521 134.49 81.7521ZM126.534 81.6051C126.526 81.6051 126.508 81.6051 126.499 81.6051L125.615 81.55C125.253 81.5224 124.97 81.2008 124.996 80.8149C125.023 80.4381 125.315 80.1441 125.704 80.1717L126.579 80.2268C126.941 80.2452 127.224 80.576 127.206 80.9527C127.18 81.3294 126.888 81.6051 126.534 81.6051ZM138.909 81.5775C138.565 81.5775 138.273 81.2927 138.246 80.9343C138.229 80.5576 138.503 80.2268 138.865 80.2084L139.74 80.1533C140.111 80.1257 140.421 80.4106 140.447 80.7965C140.474 81.1732 140.2 81.504 139.829 81.5316L138.945 81.5959C138.936 81.5775 138.918 81.5775 138.909 81.5775ZM122.132 81.2559C122.106 81.2559 122.088 81.2559 122.062 81.2559C121.761 81.2192 121.469 81.1916 121.178 81.1549C120.815 81.1089 120.55 80.7689 120.594 80.3922C120.639 80.0154 120.966 79.749 121.328 79.7857C121.611 79.8225 121.903 79.8501 122.203 79.8868C122.566 79.9236 122.831 80.2635 122.795 80.6403C122.751 80.9895 122.459 81.2559 122.132 81.2559ZM143.311 81.1824C142.975 81.1824 142.693 80.9251 142.657 80.5668C142.613 80.19 142.878 79.85 143.241 79.8041C143.532 79.7673 143.824 79.7306 144.107 79.6938C144.478 79.6479 144.805 79.9144 144.849 80.2911C144.894 80.6678 144.637 81.017 144.275 81.063C143.983 81.0997 143.691 81.1365 143.391 81.1732C143.364 81.1824 143.338 81.1824 143.311 81.1824ZM117.748 80.6127C117.713 80.6127 117.669 80.6127 117.624 80.6035C117.324 80.5484 117.023 80.4841 116.74 80.4289C116.378 80.3554 116.148 79.9879 116.228 79.6111C116.299 79.2344 116.652 78.9955 117.015 79.0782C117.289 79.1333 117.571 79.1976 117.872 79.2528C118.234 79.3171 118.473 79.6755 118.402 80.0522C118.34 80.383 118.066 80.6127 117.748 80.6127ZM147.687 80.5025C147.377 80.5025 147.103 80.2727 147.041 79.9511C146.971 79.5744 147.201 79.216 147.563 79.1425C147.855 79.0782 148.138 79.0231 148.412 78.9587C148.774 78.876 149.128 79.1058 149.207 79.4825C149.287 79.85 149.066 80.2268 148.703 80.3095C148.42 80.3738 148.129 80.4381 147.819 80.5025C147.766 80.4933 147.722 80.5025 147.687 80.5025ZM113.479 79.4457C113.399 79.4457 113.311 79.4274 113.231 79.3998C112.904 79.262 112.613 79.1241 112.356 78.9771C112.038 78.7933 111.914 78.3707 112.091 78.0399C112.268 77.7091 112.674 77.5804 112.993 77.7642C113.205 77.8836 113.452 78.0031 113.726 78.1134C114.062 78.2604 114.23 78.6555 114.089 79.0139C113.991 79.2895 113.744 79.4457 113.479 79.4457ZM151.912 79.1976C151.664 79.1976 151.435 79.0506 151.32 78.8117C151.161 78.4717 151.293 78.0582 151.629 77.8928C151.894 77.7642 152.106 77.6264 152.274 77.4977C152.566 77.268 152.981 77.3231 153.202 77.6264C153.423 77.9296 153.37 78.3615 153.079 78.5912C152.84 78.775 152.548 78.9587 152.212 79.1333C152.106 79.1701 152.009 79.1976 151.912 79.1976ZM111.463 75.8989C111.119 75.8989 110.836 75.6232 110.801 75.2648L110.73 74.346C110.694 73.9692 110.968 73.6292 111.331 73.6017C111.702 73.5649 112.02 73.8498 112.047 74.2265L112.118 75.1454C112.153 75.5221 111.879 75.8621 111.516 75.8897C111.499 75.8989 111.481 75.8989 111.463 75.8989ZM153.441 75.2832C153.423 75.2832 153.406 75.2832 153.388 75.2832C153.026 75.2557 152.752 74.9157 152.787 74.5389L152.858 73.62C152.884 73.2433 153.229 72.9676 153.574 72.9952C153.936 73.0228 154.21 73.3628 154.175 73.7395L154.104 74.6584C154.078 75.0076 153.786 75.2832 153.441 75.2832ZM111.092 71.3228C110.747 71.3228 110.465 71.0472 110.429 70.6888L110.359 69.7699C110.323 69.3932 110.597 69.0532 110.96 69.0256C111.34 68.9981 111.649 69.2737 111.676 69.6505L111.746 70.5694C111.782 70.9461 111.508 71.2861 111.145 71.3137C111.128 71.3228 111.11 71.3228 111.092 71.3228ZM153.812 70.698C153.795 70.698 153.777 70.698 153.759 70.698C153.397 70.6704 153.123 70.3305 153.158 69.9537L153.185 69.577C153.149 69.5494 153.088 69.4943 152.981 69.43C152.663 69.237 152.566 68.8143 152.752 68.4835C152.937 68.1527 153.344 68.0516 153.662 68.2446C154.228 68.5938 154.519 69.0165 154.519 69.5035L154.475 70.0732C154.449 70.4315 154.157 70.698 153.812 70.698ZM113.841 68.704C113.541 68.704 113.267 68.4927 113.196 68.1711C113.116 67.8035 113.337 67.4268 113.691 67.3441C113.974 67.2798 114.265 67.2063 114.575 67.1419C114.92 67.0684 115.282 67.3073 115.353 67.6841C115.423 68.0608 115.194 68.4192 114.831 68.4927C114.54 68.557 114.257 68.6213 113.991 68.6857C113.947 68.6949 113.894 68.704 113.841 68.704ZM149.95 68.4651C149.905 68.4651 149.87 68.4651 149.826 68.4559C149.552 68.4008 149.269 68.3457 148.968 68.2997C148.606 68.2354 148.359 67.8862 148.42 67.5095C148.482 67.1328 148.827 66.8755 149.181 66.9398C149.49 66.9949 149.782 67.0501 150.065 67.1052C150.427 67.1787 150.657 67.5371 150.586 67.9138C150.542 68.2354 150.259 68.4651 149.95 68.4651ZM118.199 67.9506C117.872 67.9506 117.58 67.6933 117.545 67.3441C117.501 66.9674 117.757 66.6182 118.119 66.5814C118.411 66.5447 118.703 66.5079 119.003 66.4712C119.357 66.4344 119.693 66.7009 119.737 67.0868C119.772 67.4636 119.516 67.8035 119.145 67.8495C118.853 67.8862 118.561 67.9138 118.279 67.9506C118.252 67.9506 118.225 67.9506 118.199 67.9506ZM145.574 67.8219C145.548 67.8219 145.53 67.8219 145.503 67.8219L144.628 67.73C144.266 67.6933 144.001 67.3533 144.027 66.9765C144.063 66.5998 144.381 66.3241 144.752 66.3517L145.636 66.4436C145.998 66.4803 146.264 66.8203 146.228 67.1971C146.193 67.5554 145.91 67.8219 145.574 67.8219ZM122.61 67.5187C122.265 67.5187 121.973 67.243 121.947 66.8755C121.92 66.4987 122.194 66.1679 122.566 66.1404L123.449 66.076C123.803 66.0393 124.13 66.3425 124.148 66.7193C124.165 67.096 123.891 67.4268 123.529 67.4452L122.654 67.5003C122.636 67.5187 122.619 67.5187 122.61 67.5187ZM141.163 67.4544C141.146 67.4544 141.137 67.4544 141.128 67.4544L140.244 67.3992C139.882 67.3809 139.599 67.0501 139.616 66.6733C139.634 66.2966 139.979 65.9933 140.315 66.0209L141.199 66.076C141.561 66.0944 141.844 66.4252 141.826 66.802C141.809 67.1695 141.517 67.4544 141.163 67.4544ZM127.021 67.289C126.667 67.289 126.366 66.9949 126.358 66.6274C126.349 66.2506 126.632 65.929 126.994 65.9106L127.878 65.8831C128.249 65.8647 128.55 66.1679 128.559 66.5539C128.567 66.9398 128.285 67.2522 127.913 67.2614L127.029 67.289C127.038 67.289 127.029 67.289 127.021 67.289ZM136.744 67.2522C136.735 67.2522 136.735 67.2522 136.726 67.2522L135.842 67.2338C135.48 67.2246 135.188 66.9122 135.197 66.5263C135.206 66.1496 135.497 65.8555 135.86 65.8555C135.869 65.8555 135.869 65.8555 135.877 65.8555L136.761 65.8739C137.124 65.8831 137.416 66.2047 137.407 66.5814C137.398 66.949 137.106 67.2522 136.744 67.2522ZM131.44 67.1879C131.078 67.1879 130.777 66.8847 130.777 66.5079C130.777 66.1312 131.069 65.8188 131.431 65.8096H132.324C132.687 65.8096 132.987 66.122 132.987 66.4987C132.987 66.8755 132.687 67.1879 132.324 67.1879H131.44C131.44 67.1879 131.449 67.1879 131.44 67.1879Z" fill="#10A8E5"/>
<path d="M133.818 85.685C133.456 85.685 133.164 85.3817 133.155 85.005C133.146 84.6283 133.438 84.3067 133.809 84.3067L134.649 84.2883L134.72 85.6666L133.836 85.685C133.827 85.685 133.818 85.685 133.818 85.685ZM130.282 85.6758C130.273 85.6758 130.273 85.6758 130.265 85.6758L129.372 85.6482C129.009 85.639 128.718 85.3174 128.727 84.9407C128.735 84.5639 129.062 84.2975 129.407 84.2699L130.282 84.2975C130.645 84.3067 130.936 84.6191 130.928 85.005C130.936 85.3817 130.636 85.6758 130.282 85.6758ZM138.229 85.492C137.884 85.492 137.592 85.2163 137.566 84.8488C137.539 84.4721 137.822 84.1413 138.185 84.1137C138.476 84.0953 138.768 84.0769 139.06 84.0494C139.413 84.031 139.74 84.3067 139.767 84.6834C139.793 85.0601 139.519 85.3909 139.157 85.4185C138.856 85.4461 138.565 85.4644 138.273 85.4828C138.255 85.492 138.246 85.492 138.229 85.492ZM125.863 85.4461C125.845 85.4461 125.827 85.4461 125.81 85.4461C125.509 85.4185 125.209 85.3909 124.917 85.3726C124.554 85.3358 124.28 85.005 124.316 84.6283C124.351 84.2515 124.652 83.9667 125.032 84.0034C125.315 84.031 125.606 84.0586 125.907 84.0769C126.269 84.1045 126.543 84.4353 126.517 84.8212C126.499 85.1704 126.207 85.4461 125.863 85.4461ZM142.631 85.0877C142.295 85.0877 142.012 84.8304 141.977 84.4721C141.932 84.0953 142.198 83.7553 142.56 83.7094C142.852 83.6726 143.143 83.6359 143.435 83.5991C143.806 83.5532 144.133 83.8197 144.178 84.1964C144.222 84.5731 143.965 84.9223 143.603 84.9683C143.302 85.005 143.011 85.0418 142.719 85.0785C142.684 85.0785 142.657 85.0877 142.631 85.0877ZM121.47 84.9499C121.443 84.9499 121.408 84.9499 121.381 84.9407C121.072 84.8947 120.78 84.8488 120.497 84.8029C120.135 84.7477 119.887 84.3894 119.94 84.0126C119.993 83.6359 120.338 83.3786 120.701 83.4337C120.975 83.4797 121.266 83.5256 121.567 83.5624C121.929 83.6175 122.185 83.9667 122.132 84.3434C122.079 84.7018 121.797 84.9499 121.47 84.9499ZM147.006 84.4629C146.688 84.4629 146.405 84.224 146.352 83.884C146.29 83.5072 146.538 83.1581 146.9 83.0937L147.766 82.9467C148.138 82.8732 148.473 83.1397 148.526 83.5072C148.588 83.884 148.341 84.2423 147.987 84.2975L147.112 84.4445C147.077 84.4629 147.041 84.4629 147.006 84.4629ZM117.121 84.1321C117.068 84.1321 117.023 84.1229 116.97 84.1137C116.387 83.9759 116.078 83.884 116.078 83.884C115.724 83.7829 115.521 83.397 115.627 83.0294C115.724 82.6619 116.095 82.4505 116.449 82.5516C116.458 82.5516 116.741 82.6343 117.28 82.7629C117.633 82.8456 117.854 83.2224 117.775 83.5899C117.695 83.9207 117.421 84.1321 117.121 84.1321Z" fill="#10A8E5"/>
<path fill-rule="evenodd" clip-rule="evenodd" d="M124.343 141.663C140.165 143.878 156.818 140.156 156.818 133.733V103.144C156.818 95.9763 147.855 92.2273 147.855 88.4415V86.9805C146.008 87.2837 143.895 87.5318 141.57 87.7064V88.4415C141.57 92.2365 150.533 95.9763 150.533 103.144V105.67L120.524 105.514C118.553 105.505 116.944 107.168 116.944 109.217V127.191C116.944 129.24 118.544 130.903 120.524 130.894L150.542 130.783V133.733C150.533 139.292 135.807 142.269 124.343 141.663Z" fill="white"/>
<path d="M136.894 111.726C136.46 111.037 135.842 110.486 135.055 110.091C133.464 109.291 131.183 109.319 129.628 110.21C128.814 110.67 128.187 111.267 127.754 111.984C127.312 112.709 127.091 113.454 127.091 114.198C127.091 114.685 127.285 115.154 127.648 115.549C128.019 115.944 128.505 116.155 129.044 116.155C129.575 116.155 130.52 115.944 130.927 114.566C131.104 114.005 131.316 113.592 131.546 113.334C131.74 113.114 132.138 113.068 132.439 113.068C132.801 113.068 133.084 113.169 133.296 113.371C133.499 113.564 133.588 113.766 133.588 114.042C133.588 114.161 133.561 114.262 133.508 114.363C133.429 114.52 133.322 114.657 133.208 114.777C133.048 114.942 132.783 115.2 132.412 115.53C131.952 115.953 131.59 116.311 131.316 116.615C130.998 116.973 130.741 117.387 130.556 117.846C130.361 118.324 130.264 118.884 130.264 119.509C130.264 120.143 130.45 120.658 130.821 121.025C131.175 121.374 131.625 121.558 132.129 121.558C133.102 121.558 133.764 120.97 133.941 119.969C134.003 119.684 134.047 119.491 134.083 119.371C134.1 119.298 134.127 119.224 134.162 119.16C134.18 119.123 134.224 119.05 134.33 118.921C134.436 118.792 134.578 118.645 134.754 118.48C135.497 117.782 136.018 117.295 136.301 117.001C136.637 116.661 136.929 116.247 137.176 115.779C137.442 115.264 137.574 114.676 137.574 114.014C137.556 113.196 137.336 112.425 136.894 111.726Z" fill="#7BD3FF"/>
<path d="M130.715 124.003C130.308 124.416 130.087 124.958 130.087 125.556C130.087 126.401 130.449 126.907 130.759 127.182C131.174 127.55 131.66 127.743 132.208 127.743C132.748 127.743 133.243 127.541 133.649 127.173C134.082 126.778 134.312 126.217 134.312 125.556C134.312 124.958 134.1 124.426 133.702 124.012C132.898 123.176 131.519 123.185 130.715 124.003Z" fill="#7BD3FF"/>
<path opacity="0.15" fill-rule="evenodd" clip-rule="evenodd" d="M157.869 90.812C147.642 91.2439 143.736 92.8611 143.736 92.8611V100.681C143.736 101.195 144.363 101.692 145.486 102.123V104.834C145.486 107.912 138.202 110.954 138.202 116.78V147.443C151.152 146.974 163.208 143.988 163.208 138.64V100.203C163.208 96.1783 160.318 93.2654 157.869 90.812Z" fill="#1D7EDD"/>
<path d="M73.3306 84.3351C73.0831 84.868 72.9594 85.4469 72.871 86.035C72.818 86.4117 72.7738 86.7977 72.871 87.1652C73.1273 88.0933 74.2411 88.5251 75.1338 88.277C76.0266 88.029 76.7161 87.2847 77.2553 86.5128C78.148 85.2356 79.0585 82.8465 77.3436 81.7989C75.7437 80.8157 73.9405 82.9935 73.3306 84.3351Z" fill="#60304B"/>
<path d="M149.322 60.3972C148.526 60.3972 147.801 59.8366 147.607 58.9913L145.883 51.6127C145.653 50.6295 146.237 49.6371 147.182 49.389C148.128 49.1409 149.092 49.7566 149.322 50.7398L151.045 58.1183C151.275 59.1015 150.692 60.0939 149.746 60.342C149.604 60.3788 149.463 60.3972 149.322 60.3972Z" fill="#FF9566"/>
<path d="M157.851 63.1451C157.568 63.1451 157.276 63.0715 157.011 62.9245C156.154 62.4467 155.836 61.3257 156.295 60.4344L161.838 49.7662C162.297 48.8748 163.376 48.544 164.233 49.0219C165.09 49.4997 165.409 50.6207 164.949 51.512L159.407 62.1802C159.088 62.7959 158.487 63.1451 157.851 63.1451Z" fill="#FF9566"/>
<path d="M163.58 69.3935C162.802 69.3935 162.095 68.8606 161.883 68.052C161.618 67.0779 162.166 66.058 163.112 65.7915L170.28 63.7056C171.217 63.43 172.199 63.9997 172.455 64.9829C172.72 65.9569 172.172 66.9769 171.226 67.2433L164.058 69.3292C163.899 69.3751 163.739 69.3935 163.58 69.3935Z" fill="#FF9566"/>
<path d="M154.358 142.427C158.69 142.427 162.199 138.742 162.199 134.203C162.199 129.664 158.69 125.979 154.358 125.979H152.299V142.427H154.358Z" fill="#FF7C4E"/>
<path d="M152.299 142.427C156.63 142.427 160.14 138.745 160.14 134.203C160.14 129.661 156.63 125.979 152.299 125.979C147.969 125.979 144.459 129.661 144.459 134.203C144.459 138.745 147.969 142.427 152.299 142.427Z" fill="#FF9566"/>
<path d="M146.589 134.203C146.589 130.895 149.143 128.212 152.299 128.212C155.455 128.212 158.009 130.895 158.009 134.203C158.009 137.511 155.455 140.194 152.299 140.194C149.143 140.194 146.589 137.511 146.589 134.203Z" fill="#FF9566"/>
<path d="M145.943 134.203C145.943 130.527 148.798 127.532 152.299 127.532C155.799 127.532 158.654 130.527 158.654 134.203C158.654 137.878 155.799 140.874 152.299 140.874C148.798 140.874 145.943 137.878 145.943 134.203ZM147.234 134.203C147.234 137.134 149.506 139.514 152.299 139.514C155.092 139.514 157.364 137.134 157.364 134.203C157.364 131.272 155.092 128.892 152.299 128.892C149.506 128.892 147.234 131.272 147.234 134.203Z" fill="#FF7C4E"/>
<path d="M149.462 132.071C149.807 131.676 150.293 131.456 150.806 131.456C151.195 131.456 151.548 131.584 151.866 131.841C152.025 131.97 152.167 132.126 152.291 132.31C152.414 132.126 152.565 131.97 152.715 131.841C153.024 131.584 153.387 131.456 153.776 131.456C154.297 131.456 154.775 131.676 155.119 132.071C155.464 132.466 155.65 132.999 155.65 133.578C155.65 134.175 155.437 134.727 154.978 135.296C154.571 135.811 153.988 136.335 153.307 136.941C153.077 137.153 152.812 137.382 152.538 137.63C152.467 137.695 152.37 137.732 152.282 137.732C152.185 137.732 152.096 137.695 152.025 137.63C151.751 137.382 151.486 137.143 151.256 136.941C150.576 136.335 149.992 135.811 149.586 135.296C149.126 134.718 148.914 134.175 148.914 133.578C148.932 132.999 149.117 132.457 149.462 132.071Z" fill="#FAFEFF"/>
<path d="M168.793 142.031C173.124 142.031 176.633 138.347 176.633 133.807C176.633 129.268 173.124 125.583 168.793 125.583H166.733V142.041H168.793V142.031Z" fill="#FF7C4E"/>
<path d="M166.734 142.022C171.064 142.022 174.574 138.34 174.574 133.798C174.574 129.256 171.064 125.574 166.734 125.574C162.404 125.574 158.894 129.256 158.894 133.798C158.894 138.34 162.404 142.022 166.734 142.022Z" fill="#FF9566"/>
<path d="M161.024 133.798C161.024 130.49 163.579 127.807 166.735 127.807C169.89 127.807 172.445 130.49 172.445 133.798C172.445 137.106 169.89 139.789 166.735 139.789C163.579 139.799 161.024 137.115 161.024 133.798Z" fill="#FF9566"/>
<path d="M160.378 133.798C160.378 130.122 163.233 127.126 166.733 127.126C170.234 127.126 173.089 130.122 173.089 133.798C173.089 137.473 170.234 140.469 166.733 140.469C163.233 140.469 160.378 137.482 160.378 133.798ZM161.668 133.798C161.668 136.729 163.94 139.109 166.733 139.109C169.527 139.109 171.798 136.729 171.798 133.798C171.798 130.866 169.527 128.486 166.733 128.486C163.94 128.486 161.668 130.866 161.668 133.798Z" fill="#FF7C4E"/>
<path d="M163.905 131.666C164.25 131.271 164.736 131.051 165.249 131.051C165.638 131.051 165.992 131.179 166.31 131.437C166.469 131.565 166.61 131.722 166.734 131.905C166.858 131.722 167.008 131.565 167.158 131.437C167.468 131.179 167.83 131.051 168.219 131.051C168.741 131.051 169.218 131.271 169.563 131.666C169.907 132.062 170.093 132.594 170.093 133.173C170.093 133.771 169.881 134.322 169.421 134.892C169.015 135.406 168.431 135.93 167.751 136.536C167.521 136.748 167.256 136.978 166.982 137.226C166.911 137.29 166.814 137.327 166.725 137.327C166.628 137.327 166.54 137.29 166.469 137.226C166.195 136.978 165.93 136.739 165.7 136.536C165.019 135.93 164.436 135.406 164.029 134.892C163.57 134.313 163.357 133.771 163.357 133.173C163.366 132.594 163.561 132.062 163.905 131.666Z" fill="#FAFEFF"/>
<path d="M157.603 125.647C161.431 127.742 166.195 126.189 168.228 122.164C170.27 118.149 168.811 113.187 164.984 111.083L163.163 110.081L155.782 124.636L157.603 125.647Z" fill="#FF7C4E"/>
<path d="M166.411 121.172C168.448 117.154 166.993 112.195 163.162 110.096C159.331 107.998 154.575 109.554 152.538 113.572C150.501 117.591 151.955 122.549 155.786 124.648C159.617 126.746 164.374 125.19 166.411 121.172Z" fill="#FF9566"/>
<path d="M154.412 114.602C155.897 111.671 159.362 110.541 162.155 112.066C164.948 113.591 166 117.212 164.524 120.134C163.039 123.065 159.574 124.195 156.781 122.67C153.987 121.145 152.927 117.524 154.412 114.602Z" fill="#FF9566"/>
<path d="M153.846 114.289C155.499 111.037 159.362 109.769 162.465 111.469C165.567 113.168 166.752 117.193 165.099 120.455C163.446 123.708 159.583 124.976 156.48 123.276C153.378 121.567 152.193 117.542 153.846 114.289ZM154.987 114.914C153.67 117.506 154.615 120.712 157.081 122.072C159.548 123.432 162.633 122.422 163.941 119.821C165.258 117.23 164.312 114.023 161.846 112.663C159.38 111.312 156.304 112.323 154.987 114.914Z" fill="#FF7C4E"/>
<path d="M157.913 114.106C158.399 113.922 158.92 113.959 159.38 114.216C159.725 114.409 159.981 114.694 160.149 115.071C160.228 115.264 160.29 115.466 160.317 115.696C160.511 115.595 160.706 115.521 160.909 115.484C161.298 115.411 161.669 115.466 162.014 115.659C162.474 115.907 162.801 116.339 162.933 116.854C163.066 117.368 162.986 117.938 162.73 118.443C162.465 118.976 162.032 119.353 161.369 119.647C160.776 119.904 160.025 120.088 159.15 120.29C158.85 120.364 158.514 120.446 158.16 120.529C158.063 120.557 157.966 120.538 157.886 120.492C157.798 120.446 157.736 120.373 157.7 120.272C157.568 119.923 157.444 119.583 157.329 119.289C157.002 118.425 156.719 117.671 156.587 117.019C156.445 116.284 156.498 115.696 156.772 115.172C157.029 114.667 157.435 114.29 157.913 114.106Z" fill="#FAFEFF"/>
<path opacity="0.5" fill-rule="evenodd" clip-rule="evenodd" d="M166.645 153.435C179.215 153.435 189.477 151.606 189.477 149.355C189.477 147.113 179.224 145.275 166.645 145.275C154.067 145.275 143.813 147.103 143.813 149.355C143.813 151.606 154.076 153.435 166.645 153.435Z" fill="white"/>
<path d="M161.731 147.554H164.984C164.082 147.554 163.349 148.316 163.349 149.254V151.487C163.349 152.424 164.082 153.186 164.984 153.186H161.731C160.829 153.186 160.096 152.424 160.096 151.487V149.254C160.105 148.316 160.829 147.554 161.731 147.554Z" fill="#FF9566"/>
<path d="M163.358 151.487V149.254C163.358 148.316 164.092 147.554 164.994 147.554H166.806C165.904 147.554 165.17 148.316 165.17 149.254V151.487C165.17 152.424 165.904 153.186 166.806 153.186H164.994C164.092 153.177 163.358 152.424 163.358 151.487Z" fill="#FF7C4E"/>
<path d="M165.17 151.487V149.254C165.17 148.316 165.904 147.554 166.805 147.554H168.591C167.689 147.554 166.955 148.316 166.955 149.254V151.487C166.955 152.424 167.689 153.186 168.591 153.186H166.805C165.904 153.177 165.17 152.424 165.17 151.487Z" fill="#FF9566"/>
<path d="M166.956 151.487V149.254C166.956 148.316 167.69 147.554 168.591 147.554H170.032C169.131 147.554 168.397 148.316 168.397 149.254V151.487C168.397 152.424 169.131 153.186 170.032 153.186H168.591C167.69 153.177 166.956 152.424 166.956 151.487Z" fill="#FF7C4E"/>
<path d="M168.396 151.487V149.254C168.396 148.316 169.13 147.554 170.032 147.554H171.084C170.182 147.554 169.448 148.316 169.448 149.254V151.487C169.448 152.424 170.182 153.186 171.084 153.186H170.032C169.121 153.177 168.396 152.424 168.396 151.487Z" fill="#FF9566"/>
<path d="M169.448 151.487V149.254C169.448 148.316 170.182 147.554 171.084 147.554H178.341C179.242 147.554 179.976 148.316 179.976 149.254V151.487C179.976 152.424 179.242 153.186 178.341 153.186H171.084C170.182 153.177 169.448 152.424 169.448 151.487Z" fill="#FF7C4E"/>
<path d="M178.906 151.487V149.254C178.906 148.316 178.172 147.554 177.271 147.554H176.219C177.12 147.554 177.854 148.316 177.854 149.254V151.487C177.854 152.424 177.12 153.186 176.219 153.186H177.271C178.181 153.177 178.906 152.424 178.906 151.487Z" fill="#FF9566"/>
<path d="M170.862 132.806H174.115C173.213 132.806 172.479 133.568 172.479 134.506V136.738C172.479 137.676 173.213 138.438 174.115 138.438H170.862C169.96 138.438 169.227 137.676 169.227 136.738V134.506C169.227 133.568 169.96 132.806 170.862 132.806Z" fill="#FF9566"/>
<path d="M172.479 136.739V134.506C172.479 133.569 173.213 132.806 174.115 132.806H175.927C175.025 132.806 174.292 133.569 174.292 134.506V136.739C174.292 137.676 175.025 138.439 175.927 138.439H174.115C173.213 138.43 172.479 137.676 172.479 136.739Z" fill="#FF7C4E"/>
<path d="M174.293 136.739V134.506C174.293 133.569 175.027 132.806 175.928 132.806H177.714C176.812 132.806 176.078 133.569 176.078 134.506V136.739C176.078 137.676 176.812 138.439 177.714 138.439H175.928C175.027 138.43 174.293 137.676 174.293 136.739Z" fill="#FF9566"/>
<path d="M176.078 136.739V134.506C176.078 133.569 176.812 132.806 177.713 132.806H179.154C178.253 132.806 177.519 133.569 177.519 134.506V136.739C177.519 137.676 178.253 138.439 179.154 138.439H177.713C176.812 138.43 176.078 137.676 176.078 136.739Z" fill="#FF7C4E"/>
<path d="M177.52 136.739V134.506C177.52 133.569 178.253 132.806 179.155 132.806H180.207C179.305 132.806 178.571 133.569 178.571 134.506V136.739C178.571 137.676 179.305 138.439 180.207 138.439H179.155C178.253 138.43 177.52 137.676 177.52 136.739Z" fill="#FF9566"/>
<path d="M178.57 136.739V134.506C178.57 133.569 179.304 132.806 180.206 132.806H187.463C188.364 132.806 189.098 133.569 189.098 134.506V136.739C189.098 137.676 188.364 138.439 187.463 138.439H180.206C179.304 138.43 178.57 137.676 178.57 136.739Z" fill="#FF7C4E"/>
<path d="M188.037 136.739V134.506C188.037 133.569 187.303 132.806 186.401 132.806H185.35C186.251 132.806 186.985 133.569 186.985 134.506V136.739C186.985 137.676 186.251 138.439 185.35 138.439H186.401C187.303 138.43 188.037 137.676 188.037 136.739Z" fill="#FF9566"/>
<path d="M166.955 141.939H170.207C169.306 141.939 168.572 142.702 168.572 143.639V145.872C168.572 146.809 169.306 147.572 170.207 147.572H166.955C166.053 147.572 165.319 146.809 165.319 145.872V143.639C165.319 142.692 166.053 141.939 166.955 141.939Z" fill="#FF9566"/>
<path d="M168.581 145.863V143.631C168.581 142.693 169.315 141.931 170.216 141.931H172.028C171.127 141.931 170.393 142.693 170.393 143.631V145.863C170.393 146.801 171.127 147.563 172.028 147.563H170.216C169.306 147.563 168.581 146.801 168.581 145.863Z" fill="#FF7C4E"/>
<path d="M170.393 145.863V143.631C170.393 142.693 171.126 141.931 172.028 141.931H173.813C172.912 141.931 172.178 142.693 172.178 143.631V145.863C172.178 146.801 172.912 147.563 173.813 147.563H172.028C171.117 147.563 170.393 146.801 170.393 145.863Z" fill="#FF9566"/>
<path d="M146.917 141.93H150.169C149.268 141.93 148.534 142.693 148.534 143.63V145.863C148.534 146.8 149.268 147.563 150.169 147.563H146.917C146.015 147.563 145.281 146.8 145.281 145.863V143.63C145.29 142.693 146.015 141.93 146.917 141.93Z" fill="#FF9566"/>
<path d="M148.543 145.863V143.63C148.543 142.693 149.277 141.93 150.178 141.93H151.99C151.089 141.93 150.355 142.693 150.355 143.63V145.863C150.355 146.8 151.089 147.563 151.99 147.563H150.178C149.268 147.563 148.543 146.8 148.543 145.863Z" fill="#FF7C4E"/>
<path d="M150.354 145.863V143.63C150.354 142.693 151.088 141.93 151.99 141.93H153.775C152.874 141.93 152.14 142.693 152.14 143.63V145.863C152.14 146.8 152.874 147.563 153.775 147.563H151.99C151.079 147.563 150.354 146.8 150.354 145.863Z" fill="#FF9566"/>
<path d="M152.141 145.863V143.63C152.141 142.693 152.874 141.93 153.776 141.93H155.217C154.315 141.93 153.581 142.693 153.581 143.63V145.863C153.581 146.8 154.315 147.563 155.217 147.563H153.776C152.865 147.563 152.141 146.8 152.141 145.863Z" fill="#FF7C4E"/>
<path d="M153.581 145.863V143.63C153.581 142.693 154.315 141.93 155.216 141.93H156.268C155.367 141.93 154.633 142.693 154.633 143.63V145.863C154.633 146.8 155.367 147.563 156.268 147.563H155.216C154.306 147.563 153.581 146.8 153.581 145.863Z" fill="#FF9566"/>
<path d="M154.633 145.863V143.63C154.633 142.693 155.366 141.93 156.268 141.93H163.525C164.427 141.93 165.16 142.693 165.16 143.63V145.863C165.16 146.8 164.427 147.563 163.525 147.563H156.268C155.366 147.563 154.633 146.8 154.633 145.863Z" fill="#FF7C4E"/>
<path d="M164.09 145.863V143.63C164.09 142.693 163.357 141.93 162.455 141.93H161.403C162.305 141.93 163.039 142.693 163.039 143.63V145.863C163.039 146.8 162.305 147.563 161.403 147.563H162.455C163.366 147.563 164.09 146.8 164.09 145.863Z" fill="#FF9566"/>
<path d="M180.231 153.131C184.563 153.131 188.072 149.446 188.072 144.907C188.072 140.368 184.563 136.683 180.231 136.683H178.172V153.14H180.231V153.131Z" fill="#FF7C4E"/>
<path d="M178.172 153.131C182.503 153.131 186.013 149.449 186.013 144.907C186.013 140.365 182.503 136.683 178.172 136.683C173.842 136.683 170.332 140.365 170.332 144.907C170.332 149.449 173.842 153.131 178.172 153.131Z" fill="#FF9566"/>
<path d="M172.463 144.907C172.463 141.599 175.017 138.916 178.173 138.916C181.329 138.916 183.883 141.599 183.883 144.907C183.883 148.215 181.329 150.898 178.173 150.898C175.026 150.898 172.463 148.215 172.463 144.907Z" fill="#FF9566"/>
<path d="M171.816 144.907C171.816 141.231 174.671 138.236 178.172 138.236C181.681 138.236 184.527 141.231 184.527 144.907C184.527 148.582 181.672 151.578 178.172 151.578C174.671 151.578 171.816 148.582 171.816 144.907ZM173.107 144.907C173.107 147.838 175.379 150.218 178.172 150.218C180.965 150.218 183.237 147.838 183.237 144.907C183.237 141.976 180.965 139.596 178.172 139.596C175.379 139.596 173.107 141.976 173.107 144.907Z" fill="#FF7C4E"/>
<path d="M175.344 142.775C175.689 142.38 176.175 142.16 176.687 142.16C177.076 142.16 177.43 142.288 177.748 142.546C177.907 142.674 178.049 142.83 178.172 143.014C178.296 142.83 178.447 142.674 178.597 142.546C178.906 142.288 179.269 142.16 179.657 142.16C180.179 142.16 180.656 142.38 181.001 142.775C181.346 143.17 181.531 143.703 181.531 144.282C181.531 144.88 181.319 145.431 180.86 146.001C180.453 146.515 179.87 147.039 179.189 147.645C178.959 147.857 178.694 148.086 178.42 148.335C178.349 148.399 178.252 148.436 178.164 148.436C178.066 148.436 177.978 148.399 177.907 148.335C177.633 148.086 177.368 147.848 177.138 147.645C176.458 147.039 175.874 146.515 175.468 146.001C175.008 145.422 174.796 144.88 174.796 144.282C174.805 143.703 174.999 143.17 175.344 142.775Z" fill="#FAFEFF"/>
<path d="M158.762 153.279C163.093 153.279 166.602 149.594 166.602 145.055C166.602 140.515 163.093 136.831 158.762 136.831H156.702V153.288H158.762V153.279Z" fill="#FF7C4E"/>
<path d="M156.693 153.279C161.023 153.279 164.533 149.597 164.533 145.055C164.533 140.513 161.023 136.831 156.693 136.831C152.363 136.831 148.853 140.513 148.853 145.055C148.853 149.597 152.363 153.279 156.693 153.279Z" fill="#FF9566"/>
<path d="M150.983 145.055C150.983 141.747 153.538 139.063 156.694 139.063C159.849 139.063 162.404 141.747 162.404 145.055C162.404 148.363 159.849 151.046 156.694 151.046C153.547 151.046 150.983 148.363 150.983 145.055Z" fill="#FF9566"/>
<path d="M150.337 145.054C150.337 141.379 153.192 138.383 156.692 138.383C160.202 138.383 163.048 141.379 163.048 145.054C163.048 148.73 160.193 151.725 156.692 151.725C153.192 151.725 150.337 148.73 150.337 145.054ZM151.636 145.054C151.636 147.986 153.908 150.366 156.701 150.366C159.494 150.366 161.766 147.986 161.766 145.054C161.766 142.123 159.494 139.743 156.701 139.743C153.908 139.743 151.636 142.123 151.636 145.054Z" fill="#FF7C4E"/>
<path d="M153.864 142.923C154.209 142.528 154.695 142.307 155.208 142.307C155.597 142.307 155.951 142.436 156.269 142.693C156.428 142.822 156.569 142.978 156.693 143.162C156.817 142.978 156.967 142.822 157.117 142.693C157.427 142.436 157.789 142.307 158.178 142.307C158.7 142.307 159.177 142.528 159.522 142.923C159.866 143.318 160.052 143.851 160.052 144.43C160.052 145.027 159.84 145.578 159.38 146.148C158.974 146.663 158.39 147.186 157.71 147.793C157.48 148.004 157.215 148.234 156.941 148.482C156.87 148.546 156.773 148.583 156.684 148.583C156.587 148.583 156.499 148.546 156.428 148.482C156.154 148.234 155.889 147.995 155.659 147.793C154.978 147.186 154.395 146.663 153.988 146.148C153.529 145.569 153.316 145.027 153.316 144.43C153.325 143.851 153.52 143.309 153.864 142.923Z" fill="#FAFEFF"/>
<path opacity="0.5" fill-rule="evenodd" clip-rule="evenodd" d="M167.396 103.236C153.324 103.236 148.878 100.544 148.878 100.544V102.014C148.878 102.529 149.506 103.025 150.628 103.457V104.063V106.167C150.628 109.246 143.354 112.287 143.354 118.113V150.154C143.354 160.244 190.246 159.784 190.246 150.154V118.113C190.246 112.287 182.971 109.255 182.971 106.167V104.063V103.457C184.094 103.016 184.721 102.529 184.721 102.014C184.721 101.922 184.704 101.84 184.668 101.748V100.801C184.659 100.801 180.036 103.236 167.396 103.236Z" fill="white"/>
<path fill-rule="evenodd" clip-rule="evenodd" d="M159.954 151.386C173.063 153.223 186.861 150.136 186.861 144.816V119.464C186.861 113.528 179.436 110.422 179.436 107.279V106.066C177.907 106.315 176.148 106.526 174.23 106.664V107.279C174.23 110.422 181.654 113.528 181.654 119.464V121.559L163.198 121.43C161.563 121.421 160.228 122.799 160.228 124.499V136.904C160.228 138.604 161.554 139.982 163.189 139.973L181.646 139.881V144.816C181.663 149.419 169.465 151.891 159.954 151.386Z" fill="white"/>
<path fill-rule="evenodd" clip-rule="evenodd" d="M150.152 103.723V105.874C150.152 109.016 142.727 112.113 142.727 118.058V150.743C142.727 161.034 190.565 160.575 190.565 150.743V118.058C190.565 112.122 183.14 109.016 183.14 105.874V103.723V102.593H181.823V105.874C181.823 110.266 188.806 112.958 188.806 118.058V147.719C188.806 149.622 183.944 151.174 182.645 151.542C177.659 152.948 171.834 153.407 166.681 153.435C161.528 153.462 155.667 153.067 150.682 151.68C149.268 151.285 144.503 149.778 144.503 147.719V118.058C144.503 112.958 151.486 110.266 151.486 105.874V102.593H150.169V103.723H150.152Z" fill="white"/>
<path fill-rule="evenodd" clip-rule="evenodd" d="M184.872 100.406V101.371C184.908 101.463 184.925 101.546 184.925 101.637C184.925 103.521 176.74 105.046 166.646 105.046C156.551 105.046 148.366 103.521 148.366 101.637V100.14C148.366 102.023 156.551 103.549 166.646 103.549C176.254 103.549 184.13 102.161 184.872 100.406Z" fill="white"/>
<path fill-rule="evenodd" clip-rule="evenodd" d="M166.646 102.878C176.679 102.878 184.864 101.362 184.864 99.5056C184.864 97.6495 176.679 96.1333 166.646 96.1333C156.614 96.1333 148.429 97.6495 148.429 99.5056C148.429 101.371 156.614 102.878 166.646 102.878Z" fill="white"/>
<path fill-rule="evenodd" clip-rule="evenodd" d="M184.35 98.4216C184.324 100.287 176.422 101.794 166.654 101.794C156.878 101.794 148.958 100.287 148.958 98.4216V95.0493H166.654H184.35V98.4216Z" fill="#0A91DC"/>
<path fill-rule="evenodd" clip-rule="evenodd" d="M179.445 100.756C177.96 101.05 176.201 101.298 174.238 101.472V95.0493H179.445V100.756Z" fill="#10A8E5"/>
<path fill-rule="evenodd" clip-rule="evenodd" d="M184.872 94.746C184.845 96.6114 176.713 98.1183 166.654 98.1183C156.586 98.1183 148.437 96.6114 148.437 94.746V91.9526H166.654H184.872V94.746V94.746Z" fill="#10A8E5"/>
<path fill-rule="evenodd" clip-rule="evenodd" d="M179.445 97.1441C177.942 97.4198 176.183 97.6495 174.238 97.8149V92.4395H179.445V97.1441Z" fill="#21BAEA"/>
<path fill-rule="evenodd" clip-rule="evenodd" d="M166.646 94.5069C176.679 94.5069 184.864 93.3583 184.864 91.9524C184.864 90.5465 176.679 89.3979 166.646 89.3979C156.614 89.3979 148.429 90.5465 148.429 91.9524C148.429 93.3583 156.614 94.5069 166.646 94.5069Z" fill="#21BAEA"/>
<path fill-rule="evenodd" clip-rule="evenodd" d="M156.79 91.9526H176.502C176.599 91.9526 176.678 92.0353 176.678 92.1364C176.678 92.2375 176.599 92.3202 176.502 92.3202H156.79C156.693 92.3202 156.613 92.2375 156.613 92.1364C156.613 92.0353 156.693 91.9526 156.79 91.9526Z" fill="#0A91DC"/>
<path d="M179.128 129.397H168.185C167.699 129.397 167.301 128.983 167.301 128.478C167.301 127.973 167.699 127.559 168.185 127.559H179.128C179.614 127.559 180.012 127.973 180.012 128.478C180.012 128.983 179.614 129.397 179.128 129.397Z" fill="#7BD3FF"/>
<path d="M165.197 132.402H182.107" stroke="#7BD3FF" stroke-width="1.16951" stroke-miterlimit="10" stroke-linecap="round" stroke-linejoin="round"/>
<path d="M138.679 35.5243C138.626 34.4308 138.281 33.3649 137.645 32.3542C136.346 30.3234 133.72 28.7338 131.36 28.6511C130.132 28.6051 129.018 28.844 128.063 29.3586C127.082 29.8824 126.34 30.5715 125.862 31.4169C125.544 31.9774 125.456 32.6482 125.624 33.3557C125.791 34.0725 126.207 34.6514 126.817 35.0373C127.418 35.414 128.647 35.8459 130.008 34.5411C130.574 34.0265 131.086 33.7049 131.519 33.5763C131.891 33.466 132.368 33.6957 132.713 33.9071C133.128 34.1643 133.384 34.4768 133.49 34.8535C133.597 35.2119 133.561 35.5151 133.376 35.8275C133.296 35.9654 133.199 36.0664 133.075 36.1399C132.881 36.2594 132.677 36.3421 132.456 36.3972C132.156 36.4799 131.696 36.5718 131.06 36.6913C130.264 36.8475 129.61 37.0037 129.097 37.1599C128.505 37.3437 127.939 37.6377 127.418 38.0328C126.888 38.4371 126.41 39.016 125.995 39.7236C125.579 40.4495 125.456 41.1662 125.641 41.8462C125.818 42.4986 126.207 43.0315 126.79 43.3807C127.904 44.0699 129.044 43.8585 129.893 42.8478C130.149 42.5629 130.326 42.3699 130.441 42.2689C130.512 42.1954 130.591 42.1402 130.68 42.0851C130.724 42.0575 130.83 42.0024 131.033 41.9289C131.236 41.8554 131.493 41.791 131.802 41.7267C133.11 41.4602 134.021 41.2581 134.542 41.1294C135.152 40.9732 135.753 40.716 136.337 40.3484C136.973 39.9533 137.512 39.3652 137.945 38.6117C138.476 37.6745 138.732 36.6361 138.679 35.5243Z" fill="#BDEBFF"/>
<path d="M123.6 45.191C122.867 45.3748 122.266 45.8342 121.877 46.5234C121.329 47.4882 121.408 48.3244 121.576 48.8574C121.806 49.5741 122.239 50.1346 122.875 50.5205C123.485 50.8973 124.184 51.0259 124.891 50.8789C125.642 50.7319 126.27 50.2449 126.703 49.5006C127.092 48.8206 127.207 48.0579 127.021 47.3044C126.641 45.7975 125.05 44.8235 123.6 45.191Z" fill="#BDEBFF"/>
<path d="M117.996 17.8632C117.571 17.367 117.015 16.9994 116.334 16.7789C114.973 16.3378 113.143 16.6411 112.003 17.5324C111.411 18.001 110.969 18.5523 110.703 19.1864C110.438 19.8204 110.341 20.4452 110.421 21.0333C110.474 21.4284 110.686 21.7776 111.022 22.0441C111.366 22.3198 111.773 22.43 112.206 22.3565C112.63 22.2922 113.364 22.0073 113.532 20.8495C113.611 20.3809 113.735 20.0226 113.885 19.7928C114.018 19.5907 114.327 19.508 114.566 19.4712C114.858 19.4253 115.096 19.4712 115.282 19.6091C115.468 19.7377 115.556 19.8939 115.591 20.1144C115.609 20.2063 115.6 20.2982 115.565 20.3809C115.521 20.5096 115.45 20.6382 115.37 20.7485C115.256 20.9047 115.079 21.1344 114.822 21.4468C114.504 21.8419 114.257 22.1727 114.071 22.4484C113.859 22.77 113.7 23.1376 113.603 23.5327C113.505 23.937 113.488 24.3964 113.558 24.9018C113.629 25.4164 113.841 25.7931 114.168 26.0412C114.487 26.2801 114.875 26.372 115.273 26.3077C116.051 26.1882 116.511 25.6369 116.537 24.8191C116.555 24.5802 116.564 24.424 116.581 24.3229C116.59 24.2586 116.599 24.2035 116.626 24.1391C116.634 24.1116 116.661 24.0381 116.732 23.9278C116.802 23.8083 116.9 23.6797 117.015 23.5235C117.536 22.8803 117.89 22.4208 118.084 22.1452C118.314 21.8327 118.5 21.4652 118.641 21.0609C118.791 20.6198 118.835 20.1236 118.765 19.5999C118.694 18.9567 118.429 18.3686 117.996 17.8632Z" fill="#BDEBFF"/>
<path d="M114.443 28.4391C114.16 28.8158 114.054 29.2753 114.116 29.7531C114.213 30.4331 114.558 30.7914 114.832 30.9752C115.203 31.2233 115.618 31.3152 116.06 31.2417C116.485 31.1773 116.865 30.9568 117.148 30.6076C117.448 30.2401 117.563 29.7623 117.492 29.2293C117.422 28.7515 117.192 28.3472 116.829 28.0623C116.105 27.511 114.991 27.6856 114.443 28.4391Z" fill="#BDEBFF"/>
<path d="M39.4759 137.17C44.4436 140.055 48.1384 145.578 48.1561 151.495C48.1561 152.442 48.05 153.462 47.4754 154.197C47.007 154.803 46.2733 155.143 45.5308 155.263C43.6304 155.575 41.7564 154.574 40.2538 153.342C38.7423 152.102 37.4252 150.595 35.7634 149.602C33.5536 148.288 30.946 147.994 28.4445 147.507C23.9719 146.644 16.8828 142.224 21.9565 137.133C26.4469 132.612 34.6055 134.349 39.4759 137.17Z" fill="url(#paint1_linear_158_73879)"/>
</g>
<defs>
<linearGradient id="paint0_linear_158_73879" x1="85.5719" y1="-6.96698" x2="109.907" y2="150.716" gradientUnits="userSpaceOnUse">
<stop stop-color="white"/>
<stop offset="0.2115" stop-color="#FBFEFF"/>
<stop offset="0.4064" stop-color="#F0FAFE"/>
<stop offset="0.5949" stop-color="#DDF4FD"/>
<stop offset="0.7793" stop-color="#C3ECFB"/>
<stop offset="0.9593" stop-color="#A2E2FA"/>
<stop offset="1" stop-color="#99DFF9"/>
</linearGradient>
<linearGradient id="paint1_linear_158_73879" x1="32.5157" y1="131.216" x2="35.0666" y2="152.022" gradientUnits="userSpaceOnUse">
<stop stop-color="white"/>
<stop offset="0.2115" stop-color="#FBFEFF"/>
<stop offset="0.4064" stop-color="#F0FAFE"/>
<stop offset="0.5949" stop-color="#DDF4FD"/>
<stop offset="0.7793" stop-color="#C3ECFB"/>
<stop offset="0.9593" stop-color="#A2E2FA"/>
<stop offset="1" stop-color="#99DFF9"/>
</linearGradient>
<clipPath id="clip0_158_73879">
<rect width="205" height="166.106" fill="white"/>
</clipPath>
</defs>
</svg>
