<svg width="14" height="14" viewBox="0 0 14 14" fill="none" xmlns="http://www.w3.org/2000/svg">
<path fill-rule="evenodd" clip-rule="evenodd" d="M13.6663 7.00016C13.6663 10.6821 10.6816 13.6668 6.99967 13.6668C3.31778 13.6668 0.333008 10.6821 0.333008 7.00016C0.333008 3.31826 3.31778 0.333496 6.99967 0.333496C10.6816 0.333496 13.6663 3.31826 13.6663 7.00016ZM7.09497 9.08398C6.86517 9.08398 6.66179 9.16039 6.49874 9.31075C6.33114 9.4653 6.24333 9.6649 6.24333 9.89215C6.24333 10.1411 6.33522 10.3517 6.51649 10.5002C6.68127 10.6352 6.87767 10.7039 7.09497 10.7039C7.30881 10.7039 7.50291 10.6335 7.66635 10.4964C7.84459 10.3469 7.93518 10.1379 7.93518 9.89215C7.93518 9.66625 7.84973 9.4675 7.68586 9.31288C7.52514 9.16122 7.32335 9.08398 7.09497 9.08398ZM7.18647 3.29644C6.74835 3.29644 6.35876 3.38262 6.021 3.55695C5.68415 3.73081 5.42243 3.95488 5.24048 4.22928C5.05734 4.50549 4.96262 4.78755 4.96262 5.07209C4.96262 5.26091 5.04421 5.4319 5.19226 5.57522C5.34151 5.71971 5.5297 5.79393 5.74184 5.79393C6.08262 5.79393 6.33418 5.60613 6.46493 5.27652L6.49294 5.19797C6.56933 4.98213 6.66165 4.82028 6.76217 4.71904C6.8366 4.64408 6.97343 4.59985 7.18647 4.59985C7.36239 4.59985 7.49356 4.6442 7.5926 4.73059C7.68527 4.81141 7.7261 4.89883 7.7261 5.01095C7.7261 5.06067 7.71433 5.10397 7.68959 5.14586C7.6531 5.20766 7.60816 5.26375 7.55422 5.31465L7.4717 5.38942C7.42275 5.43251 7.3623 5.48412 7.2906 5.544L7.21515 5.60664C7.02271 5.76583 6.86861 5.90434 6.75188 6.02345C6.61986 6.15816 6.51399 6.31452 6.43486 6.49113C6.35213 6.67579 6.31196 7.10814 6.31196 7.53166C6.31196 7.7642 6.3846 7.9592 6.53699 8.09692C6.67844 8.22475 6.85496 8.28947 7.05306 8.28947C7.41193 8.28947 7.66523 8.10032 7.75682 7.76824L7.82224 7.09755C7.82224 7.09755 7.82799 7.07695 7.83041 7.06887C7.83887 7.04057 7.85124 7.01118 7.86785 6.98063C7.88134 6.9558 7.90694 6.92175 7.9448 6.88079C7.978 6.84489 8.02117 6.803 8.07407 6.75559L8.41221 6.46674C8.57923 6.32363 8.70424 6.21376 8.78726 6.13708C8.92879 6.00634 9.05026 5.85189 9.15148 5.67471C9.28849 5.43489 9.41694 4.62114 9.03934 4.12876C8.85655 3.86647 8.6 3.6611 8.27498 3.51328C7.95581 3.36813 7.59225 3.29644 7.18647 3.29644Z" fill="#10A8E5"/>
</svg>
