<svg width="15" height="12" viewBox="0 0 15 12" fill="none" xmlns="http://www.w3.org/2000/svg">
<path d="M4.82164 11.9999C5.84545 11.9999 6.80676 11.8377 7.70557 11.5133C8.60438 11.1888 9.37223 10.7543 10.0091 10.2097C10.646 9.66504 11.1952 9.03855 11.6565 8.33022C12.1178 7.62188 12.4615 6.8823 12.6877 6.11147C12.9139 5.34063 13.027 4.56831 13.027 3.7945C13.027 3.62784 13.024 3.50284 13.0181 3.4195C13.5835 3.00879 14.0657 2.51176 14.4645 1.92843C13.9109 2.16653 13.3574 2.31534 12.8038 2.37486C13.4288 1.99986 13.8514 1.4701 14.0716 0.785574C13.5002 1.12486 12.8901 1.357 12.2413 1.482C11.6699 0.87486 10.9675 0.571289 10.1341 0.571289C9.33652 0.571289 8.65646 0.852539 8.09396 1.41504C7.53146 1.97754 7.25021 2.6576 7.25021 3.45522C7.25021 3.6695 7.27402 3.88974 7.32164 4.11593C6.14307 4.05641 5.03741 3.76028 4.00467 3.22754C2.97193 2.6948 2.09545 1.98498 1.37521 1.09807C1.1133 1.5445 0.982352 2.02962 0.982352 2.55343C0.982352 3.04748 1.09842 3.50581 1.33057 3.92843C1.56271 4.35105 1.87521 4.69331 2.26807 4.95522C1.80378 4.93736 1.36926 4.81534 0.964495 4.58915V4.62486C0.964495 5.32129 1.18324 5.9329 1.62074 6.45968C2.05824 6.98647 2.61033 7.31831 3.27699 7.45522C3.02699 7.52069 2.77402 7.55343 2.51807 7.55343C2.3514 7.55343 2.16985 7.53855 1.97342 7.50879C2.15795 8.08617 2.49723 8.56087 2.99128 8.9329C3.48533 9.30492 4.04485 9.49688 4.66985 9.50879C3.62223 10.3302 2.42878 10.7409 1.08949 10.7409C0.833542 10.7409 0.6014 10.729 0.393066 10.7052C1.73235 11.5683 3.20854 11.9999 4.82164 11.9999Z" fill="#4A4A4A"/>
</svg>
