<svg width="20" height="14" viewBox="0 0 20 14" fill="none" xmlns="http://www.w3.org/2000/svg">
<path d="M14.1682 5.71135C14.3362 5.82335 14.5042 5.71135 14.4482 5.48735L13.5522 3.91935H13.2162L7.61624 13.8314C7.39224 14.0554 7.05624 14.0554 6.94424 13.8314L5.04024 10.6394L4.92824 10.1914V7.39135C4.92824 7.11135 4.81624 6.94335 4.64824 6.83135L0.168233 2.91135C-0.111767 2.74335 0.000233073 2.35135 0.392233 2.35135H8.40024L10.3602 3.47135C10.4722 3.58335 10.4722 3.69535 10.3602 3.75135L9.57623 5.20736C9.57623 5.31936 9.46423 5.37535 9.40823 5.31935L7.84024 4.47935L7.50424 4.36735H5.43224C5.26424 4.36735 5.20824 4.59135 5.32024 4.70335L6.72024 5.82335C6.88824 5.99135 6.94424 6.21535 6.94424 6.38335V10.0794C6.94424 10.3034 7.22424 10.3594 7.33624 10.1914L13.1602 0.111351C13.2722 -0.0566484 13.7202 -0.0566484 13.7202 0.111351L19.7122 10.4714C19.9922 10.8074 19.6002 11.1434 19.2642 11.0314L12.3202 6.94335C12.2082 6.94335 12.1522 6.77535 12.2082 6.71935L13.0482 5.31935C13.0482 5.20735 13.2162 5.20736 13.3282 5.20736L14.1682 5.76735V5.71135Z" fill="#4A4A4A"/>
</svg>
