<svg width="16" height="16" viewBox="0 0 16 16" fill="none" xmlns="http://www.w3.org/2000/svg">
<path d="M14.5951 0.666992C14.8853 0.666992 15.1364 0.773019 15.3484 0.985072C15.5605 1.19713 15.6665 1.44824 15.6665 1.73842V14.5956C15.6665 14.8857 15.5605 15.1369 15.3484 15.3489C15.1364 15.561 14.8853 15.667 14.5951 15.667H1.73793C1.44775 15.667 1.19664 15.561 0.984584 15.3489C0.772531 15.1369 0.666504 14.8857 0.666504 14.5956V1.73842C0.666504 1.44824 0.772531 1.19713 0.984584 0.985072C1.19664 0.773019 1.44775 0.666992 1.73793 0.666992H14.5951ZM2.97677 13.5241H5.22008V6.35896H2.97677V13.5241ZM4.08168 5.38797C4.43883 5.38797 4.74574 5.25963 5.00244 5.00293C5.25914 4.74623 5.38749 4.44489 5.38749 4.09891C5.38749 3.75293 5.25914 3.45159 5.00244 3.19489C4.74574 2.9382 4.43883 2.80985 4.08168 2.80985C3.72454 2.80985 3.4232 2.9382 3.17766 3.19489C2.93213 3.45159 2.80936 3.75293 2.80936 4.09891C2.80936 4.44489 2.93213 4.74623 3.17766 5.00293C3.4232 5.25963 3.72454 5.38797 4.08168 5.38797ZM13.5236 13.5241V9.60672C13.5236 8.49065 13.3674 7.67592 13.0549 7.16253C12.6308 6.51521 11.9053 6.19155 10.8786 6.19155C10.3652 6.19155 9.90758 6.31431 9.50579 6.55985C9.17097 6.76074 8.92543 7.01744 8.76918 7.32994H8.7357V6.35896H6.59284V13.5241H8.80266V9.97503C8.80266 9.41699 8.88079 8.99289 9.03704 8.70271C9.26025 8.32324 9.62856 8.13351 10.142 8.13351C10.6553 8.13351 10.9902 8.34556 11.1464 8.76967C11.258 9.03753 11.3138 9.46164 11.3138 10.042V13.5241H13.5236Z" fill="#4A4A4A"/>
</svg>
