<svg width="17" height="12" viewBox="0 0 17 12" fill="none" xmlns="http://www.w3.org/2000/svg">
<path d="M9.13138 11.6661C11.572 11.6578 13.4141 11.5837 14.6578 11.4436C15.0804 11.396 15.4495 11.2234 15.765 10.9258C16.0804 10.6282 16.2858 10.2621 16.381 9.82757C16.4703 9.44066 16.5373 9.00167 16.5819 8.5106C16.6266 8.01953 16.6519 7.61328 16.6578 7.29185C16.6638 6.97042 16.6668 6.524 16.6668 5.95257C16.6668 5.38114 16.6638 4.93471 16.6578 4.61328C16.6519 4.29185 16.6266 3.8856 16.5819 3.39453C16.5373 2.90346 16.4733 2.46447 16.39 2.07757C16.2947 1.64304 16.0879 1.27697 15.7694 0.979353C15.451 0.681734 15.0804 0.509114 14.6578 0.461495C13.3364 0.312686 11.3394 0.238281 8.66675 0.238281C5.99413 0.238281 3.99711 0.312686 2.67568 0.461495C2.25306 0.509114 1.88401 0.681734 1.56854 0.979353C1.25306 1.27697 1.0477 1.64304 0.952466 2.07757C0.86318 2.46447 0.796216 2.90346 0.751574 3.39453C0.706931 3.8856 0.681633 4.29185 0.67568 4.61328C0.671428 4.84287 0.668695 5.13624 0.66748 5.49338V6.41175C0.668695 6.76889 0.671428 7.06226 0.67568 7.29185C0.681633 7.61328 0.706931 8.01953 0.751574 8.5106C0.796216 9.00167 0.860204 9.44066 0.943538 9.82757C1.03878 10.2621 1.24562 10.6282 1.56407 10.9258C1.88253 11.2234 2.25306 11.396 2.67568 11.4436C3.99711 11.5924 5.99413 11.6669 8.66675 11.6669L9.13138 11.6661ZM6.95247 9.38114C6.86318 9.38114 6.77092 9.35733 6.67568 9.30971C6.47925 9.20257 6.38104 9.0359 6.38104 8.80971V3.09542C6.38104 2.86923 6.47925 2.70257 6.67568 2.59542C6.87806 2.48828 7.07151 2.49423 7.25604 2.61328L11.8275 5.47042C12.006 5.57162 12.0953 5.73233 12.0953 5.95257C12.0953 6.17281 12.006 6.33352 11.8275 6.43471L7.25604 9.29185C7.1727 9.35138 7.07151 9.38114 6.95247 9.38114Z" fill="#4A4A4A"/>
</svg>
