<svg width="14" height="17" viewBox="0 0 14 17" fill="none" xmlns="http://www.w3.org/2000/svg">
<path d="M13.7547 4.54202C12.9028 4.54202 12.1167 4.24897 11.4855 3.7546C10.7615 3.18788 10.2414 2.35656 10.0577 1.3984C10.0122 1.16166 9.98771 0.917355 9.98538 0.666992H7.5517V7.57181L7.54878 11.3539C7.54878 12.365 6.91463 13.2224 6.03557 13.5239C5.78045 13.6114 5.50492 13.6529 5.21802 13.6365C4.85182 13.6156 4.50865 13.5009 4.21038 13.3156C3.57565 12.9215 3.1453 12.2064 3.13364 11.3884C3.11527 10.1099 4.11066 9.06763 5.34106 9.06763C5.58393 9.06763 5.81719 9.1088 6.03557 9.18357V7.29632V6.61788C5.80523 6.58246 5.57081 6.564 5.33377 6.564C3.98704 6.564 2.72749 7.14525 1.82714 8.19242C1.14663 8.98377 0.738441 9.99339 0.675463 11.0521C0.592951 12.4428 1.08307 13.7649 2.03357 14.7403C2.17323 14.8835 2.31988 15.0164 2.47324 15.139C3.28816 15.7902 4.28444 16.1432 5.33377 16.1432C5.57081 16.1432 5.80523 16.125 6.03557 16.0896C7.0158 15.9388 7.92023 15.4729 8.63398 14.7403C9.511 13.8403 9.99558 12.6454 10.0008 11.3736L9.98829 5.72572C10.4067 6.06085 10.8642 6.33815 11.3551 6.5534C12.1187 6.88792 12.9284 7.05746 13.7618 7.05715V5.22227V4.54141C13.7623 4.54202 13.7553 4.54202 13.7547 4.54202Z" fill="#4A4A4A"/>
</svg>
