<svg width="15" height="16" viewBox="0 0 15 16" fill="none" xmlns="http://www.w3.org/2000/svg">
<path d="M7.79278 15.6444C9.06852 15.6421 9.99869 15.6255 10.5833 15.5947C11.2166 15.5614 11.7666 15.4669 12.2333 15.3114C12.7889 15.1114 13.2722 14.8058 13.6833 14.3947C14.0944 13.9836 14.4 13.5003 14.6 12.9447C14.7555 12.4781 14.85 11.9281 14.8833 11.2947C14.9166 10.6614 14.9333 9.62252 14.9333 8.17807L14.9325 7.5406C14.9296 6.42542 14.9188 5.60458 14.9 5.07808C14.8555 4.43364 14.7555 3.87809 14.6 3.41142C14.4 2.85587 14.0944 2.37253 13.6833 1.96142C13.2722 1.55031 12.7889 1.24476 12.2333 1.04476C11.7666 0.889204 11.2166 0.794759 10.5833 0.761426C9.94998 0.728093 8.91109 0.711426 7.46665 0.711426L7.14052 0.711722C5.86478 0.714089 4.9346 0.730657 4.34999 0.761426C3.71666 0.794759 3.16666 0.889204 2.69999 1.04476C2.14444 1.24476 1.66111 1.55031 1.25 1.96142C0.838887 2.37253 0.533334 2.85587 0.333333 3.41142C0.177778 3.87809 0.0833333 4.42808 0.05 5.06142C0.0166668 5.69475 0 6.73363 0 8.17807L0.000296021 8.50421C0.00266288 9.77995 0.0192309 10.7101 0.05 11.2947C0.0833333 11.9281 0.177778 12.4781 0.333333 12.9447C0.533334 13.5003 0.838887 13.9836 1.25 14.3947C1.66111 14.8058 2.14444 15.1003 2.69999 15.2781C3.16666 15.4558 3.71666 15.5614 4.34999 15.5947C4.98332 15.6281 6.02221 15.6447 7.46665 15.6447L7.79278 15.6444ZM7.99998 14.3114H6.93332C6.04443 14.3114 5.35554 14.3003 4.86666 14.2781C4.04444 14.2336 3.44444 14.1447 3.06666 14.0114C2.4 13.7447 1.92222 13.267 1.63333 12.5781C1.5 12.2003 1.41111 11.6003 1.36666 10.7781C1.34444 10.2892 1.33333 9.6003 1.33333 8.71141V7.64474C1.33333 6.75586 1.34444 6.06697 1.36666 5.57808C1.41111 4.73364 1.5 4.13364 1.63333 3.77809C1.9 3.0892 2.37777 2.61142 3.06666 2.34476C3.44444 2.21142 4.04444 2.12253 4.86666 2.07809C5.35554 2.05587 6.04443 2.04476 6.93332 2.04476L8.32394 2.04528C9.05797 2.04771 9.63887 2.05865 10.0666 2.07809C10.9111 2.12253 11.5111 2.21142 11.8666 2.34476C12.5555 2.61142 13.0333 3.0892 13.3 3.77809C13.4333 4.13364 13.5222 4.73364 13.5666 5.57808C13.5889 6.04475 13.6 6.73363 13.6 7.64474L13.5994 9.03537C13.597 9.76939 13.5861 10.3503 13.5666 10.7781C13.5222 11.6003 13.4333 12.2003 13.3 12.5781C13.0333 13.2447 12.5555 13.7225 11.8666 14.0114C11.5111 14.1447 10.9111 14.2336 10.0666 14.2781C9.59998 14.3003 8.91109 14.3114 7.99998 14.3114ZM11.4666 5.07808C11.7111 5.07808 11.9166 4.98919 12.0833 4.81142C12.25 4.63364 12.3444 4.42253 12.3666 4.17808C12.3666 3.93364 12.2777 3.72253 12.1 3.54475C11.9222 3.36698 11.7111 3.27809 11.4666 3.27809C11.2222 3.27809 11.0111 3.36698 10.8333 3.54475C10.6555 3.72253 10.5666 3.93364 10.5666 4.17808C10.5666 4.42253 10.6555 4.63364 10.8333 4.81142C11.0111 4.98919 11.2222 5.07808 11.4666 5.07808ZM7.46665 12.0114C8.15554 12.0114 8.79443 11.8392 9.38331 11.4947C9.9722 11.1503 10.4389 10.6836 10.7833 10.0947C11.1278 9.50585 11.3 8.86696 11.3 8.17807C11.3 7.48919 11.1278 6.8503 10.7833 6.26141C10.4389 5.67253 9.9722 5.20586 9.38331 4.86142C8.79443 4.51697 8.15554 4.34475 7.46665 4.34475C6.77776 4.34475 6.13887 4.51697 5.54999 4.86142C4.9611 5.20586 4.49443 5.67253 4.14999 6.26141C3.80555 6.8503 3.63333 7.48919 3.63333 8.17807C3.63333 8.86696 3.80555 9.50585 4.14999 10.0947C4.49443 10.6836 4.9611 11.1503 5.54999 11.4947C6.13887 11.8392 6.77776 12.0114 7.46665 12.0114ZM7.46665 10.6781C6.77776 10.6781 6.18888 10.4336 5.69999 9.94475C5.2111 9.45585 4.96666 8.86696 4.96666 8.17807C4.96666 7.48919 5.2111 6.9003 5.69999 6.41141C6.18888 5.92252 6.77776 5.67808 7.46665 5.67808C8.15554 5.67808 8.74442 5.92252 9.23332 6.41141C9.7222 6.9003 9.96664 7.48919 9.96664 8.17807C9.96664 8.86696 9.7222 9.45585 9.23332 9.94475C8.74442 10.4336 8.15554 10.6781 7.46665 10.6781Z" fill="#4A4A4A"/>
</svg>
