<svg width="56" height="56" viewBox="0 0 56 56" fill="none" xmlns="http://www.w3.org/2000/svg">
<path d="M56 28C56 12.536 43.464 1.91483e-06 28 2.59078e-06C12.536 3.26673e-06 -1.89987e-06 12.536 -1.22392e-06 28C-5.47967e-07 43.464 12.536 56 28 56C43.464 56 56 43.464 56 28Z" fill="#FFCA4C"/>
<path fill-rule="evenodd" clip-rule="evenodd" d="M18.4349 33.9237C19.1252 33.4658 20.0561 33.6542 20.514 34.3445C21.8759 36.3974 24.476 38.2175 27.3576 38.5999C30.1231 38.9668 33.3037 38.0319 36.0551 34.2858C36.5455 33.6181 37.4843 33.4744 38.152 33.9648C38.8197 34.4551 38.9634 35.394 38.473 36.0616C35.1112 40.6389 30.8767 42.0931 26.963 41.5738C23.1654 41.0699 19.8221 38.7283 18.0141 36.0029C17.5562 35.3126 17.7445 34.3817 18.4349 33.9237Z" fill="#3A3A3A"/>
<circle cx="44.605" cy="33.1737" r="5" fill="#F77670"/>
<circle cx="11.605" cy="33.1737" r="5" fill="#F77670"/>
<path fill-rule="evenodd" clip-rule="evenodd" d="M17.203 16.0932C19.3403 16.0962 20.7491 16.9747 21.6044 17.9385C22.0175 18.4041 22.2842 18.8685 22.4497 19.2207C22.5329 19.3979 22.5923 19.5506 22.6328 19.6662C22.6531 19.7241 22.6689 19.7732 22.6806 19.812C22.6865 19.8314 22.6914 19.8482 22.6953 19.8624L22.7006 19.8815L22.7028 19.8895L22.7037 19.8931L22.7042 19.8948C22.7044 19.8956 22.7046 19.8964 21.304 20.2622L22.7046 19.8964C22.9066 20.67 22.4433 21.4608 21.6698 21.6628C20.9032 21.863 20.1196 21.4097 19.909 20.6486C19.9077 20.6447 19.905 20.6362 19.9007 20.6239C19.889 20.5904 19.866 20.53 19.8292 20.4516C19.7546 20.2926 19.6301 20.0756 19.4389 19.8601C19.0887 19.4654 18.4435 18.9862 17.1838 18.9884C17.1674 18.9884 17.1511 18.9881 17.1347 18.9876C16.5487 18.9687 15.9712 19.1318 15.4817 19.4545C14.9921 19.7772 14.6146 20.2436 14.401 20.7896C14.1097 21.5341 13.27 21.9015 12.5255 21.6103C11.781 21.319 11.4136 20.4793 11.7049 19.7348C12.1365 18.6316 12.8992 17.6893 13.8883 17.0373C14.8703 16.3899 16.0276 16.0605 17.203 16.0932ZM19.9043 20.6312C19.9042 20.6309 19.9042 20.6307 19.9041 20.6305C19.904 20.6302 19.9039 20.6298 19.9038 20.6295C19.9038 20.6295 19.9038 20.6295 19.9038 20.6295L19.9041 20.6305L19.9042 20.6311L19.9043 20.6312Z" fill="#3A3A3A"/>
<path fill-rule="evenodd" clip-rule="evenodd" d="M37.7748 16.0932C39.9127 16.0959 41.3218 16.9745 42.1772 17.9386C42.5903 18.4041 42.857 18.8685 43.0225 19.2207C43.1057 19.398 43.1651 19.5506 43.2056 19.6662C43.226 19.7242 43.2417 19.7733 43.2534 19.812C43.2593 19.8314 43.2642 19.8482 43.2682 19.8624L43.2734 19.8815L43.2756 19.8895L43.2766 19.8931L43.277 19.8948C43.2772 19.8956 43.2774 19.8964 41.8768 20.2622L43.2774 19.8964C43.4794 20.67 43.0161 21.4608 42.2426 21.6628C41.476 21.863 40.6924 21.4097 40.4818 20.6486C40.4806 20.6446 40.4778 20.6362 40.4735 20.6239C40.4618 20.5904 40.4389 20.53 40.4021 20.4516C40.3274 20.2926 40.2029 20.0756 40.0117 19.8601C39.6615 19.4654 39.0163 18.9862 37.7566 18.9884C37.7409 18.9884 37.7252 18.9882 37.7094 18.9877C37.1241 18.9696 36.5474 19.133 36.0587 19.4557C35.5699 19.7783 35.193 20.2443 34.9796 20.7897C34.6883 21.5342 33.8486 21.9016 33.1041 21.6102C32.3596 21.3189 31.9922 20.4792 32.2835 19.7347C32.7147 18.6328 33.4762 17.6914 34.4637 17.0395C35.4445 16.3921 36.6004 16.0619 37.7748 16.0932Z" fill="#3A3A3A"/>
</svg>
