<svg width="56" height="56" viewBox="0 0 56 56" fill="none" xmlns="http://www.w3.org/2000/svg">
<path d="M56 28C56 12.536 43.464 1.91483e-06 28 2.59078e-06C12.536 3.26673e-06 -1.89987e-06 12.536 -1.22392e-06 28C-5.47967e-07 43.464 12.536 56 28 56C43.464 56 56 43.464 56 28Z" fill="#FFCA4C"/>
<path fill-rule="evenodd" clip-rule="evenodd" d="M17.5111 15.9107C19.6484 15.9137 21.0572 16.7922 21.9125 17.7561C22.3256 18.2216 22.5923 18.686 22.7578 19.0382C22.841 19.2155 22.9004 19.3681 22.9409 19.4837C22.9612 19.5417 22.977 19.5908 22.9887 19.6295C22.9946 19.6489 22.9995 19.6657 23.0034 19.6799L23.0087 19.699L23.0109 19.707L23.0118 19.7106L23.0123 19.7123C23.0125 19.7131 23.0127 19.7139 21.6121 20.0797L23.0127 19.7139C23.2147 20.4875 22.7514 21.2783 21.9779 21.4803C21.2113 21.6805 20.4277 21.2272 20.2171 20.4661C20.2158 20.4622 20.2131 20.4537 20.2088 20.4414C20.1971 20.4079 20.1742 20.3475 20.1373 20.2691C20.0627 20.1101 19.9382 19.8931 19.747 19.6776C19.3968 19.2829 18.7516 18.8037 17.4919 18.8059C17.4755 18.8059 17.4592 18.8056 17.4428 18.8051C16.8568 18.7862 16.2793 18.9493 15.7898 19.272C15.3002 19.5947 14.9227 20.0611 14.7091 20.6071C14.4178 21.3516 13.5781 21.7191 12.8336 21.4278C12.0891 21.1365 11.7217 20.2968 12.013 19.5523C12.4446 18.4491 13.2073 17.5068 14.1964 16.8548C15.1784 16.2074 16.3357 15.878 17.5111 15.9107ZM20.2124 20.4487C20.2123 20.4485 20.2123 20.4482 20.2122 20.448C20.2121 20.4477 20.212 20.4473 20.2119 20.447C20.2119 20.447 20.2119 20.447 20.2119 20.447L20.2122 20.448L20.2123 20.4486L20.2124 20.4487Z" fill="#3A3A3A"/>
<path fill-rule="evenodd" clip-rule="evenodd" d="M38.0829 15.9107C40.2208 15.9134 41.6299 16.792 42.4853 17.7561C42.8984 18.2216 43.1652 18.686 43.3306 19.0382C43.4138 19.2155 43.4732 19.3681 43.5137 19.4837C43.5341 19.5417 43.5498 19.5908 43.5615 19.6295C43.5674 19.6489 43.5723 19.6657 43.5763 19.6799L43.5816 19.699L43.5837 19.707L43.5847 19.7106L43.5851 19.7123C43.5853 19.7131 43.5855 19.714 42.1849 20.0797L43.5855 19.714C43.7875 20.4875 43.3242 21.2783 42.5507 21.4803C41.7841 21.6805 41.0005 21.2272 40.7899 20.4661C40.7887 20.4621 40.7859 20.4537 40.7816 20.4414C40.7699 20.4079 40.747 20.3475 40.7102 20.2691C40.6355 20.1101 40.511 19.8931 40.3198 19.6776C39.9696 19.2829 39.3244 18.8037 38.0648 18.8059C38.049 18.8059 38.0333 18.8057 38.0175 18.8052C37.4322 18.7871 36.8556 18.9505 36.3668 19.2732C35.878 19.5958 35.5011 20.0618 35.2877 20.6072C34.9964 21.3517 34.1567 21.7191 33.4122 21.4277C32.6677 21.1364 32.3003 20.2967 32.5916 19.5522C33.0228 18.4503 33.7843 17.5089 34.7718 16.857C35.7526 16.2096 36.9085 15.8794 38.0829 15.9107Z" fill="#3A3A3A"/>
<path d="M12.9152 31.2099C22.8013 29.585 33.025 29.585 42.9111 31.2099C42.9111 31.2099 43.4299 45.9912 27.9088 45.9912C12.3878 45.9912 12.9152 31.2099 12.9152 31.2099Z" fill="#DD4C45"/>
<path d="M36.9131 43.4063C34.7851 44.9507 31.8835 45.9912 27.9276 45.9912C23.9528 45.9912 21.043 44.9407 18.9131 43.3841C19.9964 41.7432 21.7505 40.3869 24.019 39.6226C28.9127 37.9739 34.4645 39.6647 36.9131 43.4063Z" fill="#AC3835"/>
</svg>
