<svg width="57" height="56" viewBox="0 0 57 56" fill="none" xmlns="http://www.w3.org/2000/svg">
<path d="M28 56C43.464 56 56 43.464 56 28C56 12.536 43.464 0 28 0C12.536 0 0 12.536 0 28C0 43.464 12.536 56 28 56Z" fill="#FFCA4C"/>
<path d="M17.1415 24.9185C18.607 24.9185 19.7951 22.9713 19.7951 20.5692C19.7951 18.1672 18.607 16.22 17.1415 16.22C15.6759 16.22 14.4878 18.1672 14.4878 20.5692C14.4878 22.9713 15.6759 24.9185 17.1415 24.9185Z" fill="#3A3A3A"/>
<path d="M40.7981 20.5692C40.7981 22.9732 39.6367 24.9185 38.1444 24.9185C36.6521 24.9185 35.4907 22.9732 35.4907 20.5692C35.4907 18.1652 36.6521 16.22 38.1444 16.22C39.6367 16.22 40.7981 18.1652 40.7981 20.5692Z" fill="#3A3A3A"/>
<path d="M30.3228 31.5886C30.3228 31.5886 34.5791 32.2738 34.7068 34.8519C34.8346 37.4301 30.3228 37.4301 30.3228 37.4301C30.3228 37.4301 35.0959 38.0747 34.7068 40.5251C34.3178 42.9755 30.3228 42.5865 30.3228 42.5865" stroke="#3A3A3A" stroke-width="2" stroke-linecap="round" stroke-linejoin="round"/>
<path fill-rule="evenodd" clip-rule="evenodd" d="M49.5546 28.6271C49.2 28.3066 48.7845 28.0608 48.3328 27.9044C47.8811 27.7479 47.4026 27.6841 46.9257 27.7166C46.4488 27.7491 45.9834 27.8773 45.5571 28.0936C45.1309 28.3099 44.7525 28.6099 44.4447 28.9755C42.5924 31.1008 43.4169 34.7823 43.8176 40.7225C49.7288 40.3161 53.5148 40.6296 55.3671 38.5044C55.6876 38.1497 55.9335 37.7342 56.0899 37.2826C56.2463 36.8309 56.3102 36.3523 56.2777 35.8754C56.2452 35.3986 56.1169 34.9331 55.9006 34.5069C55.6843 34.0806 55.3844 33.7023 55.0187 33.3945C54.4326 32.889 53.712 32.565 52.945 32.4619C52.1779 32.3588 51.3974 32.481 50.6985 32.8138C50.9325 32.0758 50.9473 31.2858 50.7411 30.5396C50.535 29.7934 50.1168 29.123 49.5372 28.6097L49.5546 28.6271Z" fill="#DD4C45"/>
</svg>
