<svg width="56" height="56" viewBox="0 0 56 56" fill="none" xmlns="http://www.w3.org/2000/svg">
<path d="M56 28C56 12.536 43.464 1.91483e-06 28 2.59078e-06C12.536 3.26673e-06 -1.89987e-06 12.536 -1.22392e-06 28C-5.47967e-07 43.464 12.536 56 28 56C43.464 56 56 43.464 56 28Z" fill="#FFCA4C"/>
<path d="M13.5803 31.2117C23.4663 29.5867 33.69 29.5867 43.5761 31.2117C43.5761 31.2117 44.0949 45.993 28.5739 45.993C13.0528 45.993 13.5803 31.2117 13.5803 31.2117Z" fill="#DD4C45"/>
<path d="M37.5781 43.4081C35.4501 44.9524 32.5485 45.993 28.5927 45.993C24.6179 45.993 21.708 44.9424 19.5781 43.3858C20.6614 41.7449 22.4156 40.3886 24.6841 39.6244C29.5777 37.9756 35.1295 39.6664 37.5781 43.4081Z" fill="#AC3835"/>
<path fill-rule="evenodd" clip-rule="evenodd" d="M18.2263 10.8545C17.482 11.0582 16.8123 11.4722 16.2973 12.0469C15.7824 12.6216 15.4441 13.3325 15.3229 14.0946C14.8482 13.4841 14.2067 13.0242 13.476 12.7707C12.7453 12.5172 11.9568 12.4808 11.206 12.6661C10.7407 12.7761 10.3024 12.9789 9.9173 13.2622C9.53222 13.5456 9.20826 13.9037 8.96483 14.3152C8.72141 14.7267 8.56353 15.1831 8.50062 15.657C8.43772 16.1309 8.47108 16.6127 8.59874 17.0734C9.29555 19.8026 12.8202 21.2311 17.8895 24.2447C20.909 19.1523 23.313 16.2082 22.6162 13.4791C22.5054 13.0135 22.3021 12.5749 22.0183 12.1896C21.7344 11.8042 21.3759 11.48 20.9641 11.2361C20.5523 10.9923 20.0956 10.8339 19.6212 10.7703C19.1469 10.7067 18.6646 10.7393 18.2031 10.8661L18.2263 10.8545Z" fill="#DD4C45"/>
<path fill-rule="evenodd" clip-rule="evenodd" d="M37.4057 10.8545C36.9446 10.7277 36.4627 10.6952 35.9887 10.7589C35.5147 10.8225 35.0584 10.981 34.6471 11.2249C34.2357 11.4688 33.8777 11.7931 33.5945 12.1784C33.3112 12.5637 33.1085 13.0021 32.9984 13.4675C32.3016 16.1967 34.7056 19.1407 37.7193 24.2332C42.8176 21.2195 46.3423 19.791 47.0391 17.0619C47.164 16.6015 47.1952 16.1207 47.1307 15.6481C47.0662 15.1755 46.9073 14.7206 46.6636 14.3106C46.4198 13.9005 46.0962 13.5437 45.7118 13.2612C45.3274 12.9787 44.8902 12.7764 44.4261 12.6662C43.6758 12.4831 42.8885 12.5217 42.1598 12.7773C41.431 13.0329 40.7922 13.4946 40.3207 14.1062C40.2002 13.3439 39.8622 12.6326 39.3471 12.0578C38.8321 11.483 38.1619 11.0692 37.4173 10.8661L37.4057 10.8545Z" fill="#DD4C45"/>
</svg>
