<?xml version="1.0" standalone="no"?><svg xmlns="http://www.w3.org/2000/svg" viewBox="0 0 1440 320"><path fill="#a2d9ff" fill-opacity="0.3" d="M0,0L40,10.7C80,21,160,43,240,58.7C320,75,400,85,480,90.7C560,96,640,96,720,117.3C800,139,880,181,960,186.7C1040,192,1120,160,1200,165.3C1280,171,1360,213,1400,234.7L1440,256L1440,320L1400,320C1360,320,1280,320,1200,320C1120,320,1040,320,960,320C880,320,800,320,720,320C640,320,560,320,480,320C400,320,320,320,240,320C160,320,80,320,40,320L0,320Z"></path></svg>